<mxfile host="Electron" modified="2025-08-16T23:49:09.096Z" agent="Mozilla/5.0 (Windows NT 10.0; Win64; x64) AppleWebKit/537.36 (KHTML, like Gecko) draw.io/24.1.0 Chrome/120.0.6099.109 Electron/28.1.0 Safari/537.36" etag="AryxIOQsMRcwMg8Nki3e" version="24.1.0" type="device">
  <diagram name="Sheet 1" id="rlgoqLv1cVGT0BMiNDzZ">
    <mxGraphModel dx="1434" dy="836" grid="1" gridSize="1.9685" guides="1" tooltips="1" connect="1" arrows="1" fold="1" page="1" pageScale="1" pageWidth="827" pageHeight="1169" math="0" shadow="0">
      <root>
        <mxCell id="6ik4fCtfQ_uQef5bXLx3-0" />
        <mxCell id="6ik4fCtfQ_uQef5bXLx3-1" parent="6ik4fCtfQ_uQef5bXLx3-0" />
        <mxCell id="scn-_4tQOSIpETwV97LQ-0" value="" style="shape=image;verticalLabelPosition=bottom;verticalAlign=top;imageAspect=0;aspect=fixed;image=data:image/svg+xml,PHN2ZyB4bWxucz0iaHR0cDovL3d3dy53My5vcmcvMjAwMC9zdmciIHZpZXdCb3g9IjAgMCA3OTMuMzMzMzEgMTEyMi42NjY3IiBoZWlnaHQ9IjExMjIuNjY2NyIgd2lkdGg9Ijc5My4zMzMzMSIgaWQ9InN2ZzIiIHZlcnNpb249IjEuMSI+JiN4YTsgIDxkZWZzIGlkPSJkZWZzNiI+JiN4YTsgICAgPGNsaXBQYXRoIGlkPSJjbGlwUGF0aDE2IiBjbGlwUGF0aFVuaXRzPSJ1c2VyU3BhY2VPblVzZSI+JiN4YTsgICAgICA8cGF0aCBpZD0icGF0aDE0IiBkPSJtIDE5NDgsNzY3MyBoIDE2MjggdiA0OTM1IEggMTk0OCBWIDc2NzMiLz4mI3hhOyAgICA8L2NsaXBQYXRoPiYjeGE7ICAgIDxjbGlwUGF0aCBpZD0iY2xpcFBhdGg4OCIgY2xpcFBhdGhVbml0cz0idXNlclNwYWNlT25Vc2UiPiYjeGE7ICAgICAgPHBhdGggaWQ9InBhdGg4NiIgZD0iTSAxOTQ4LDQyMjQgSCAzNTc2IFYgNjU4NiBIIDE5NDggViA0MjI0Ii8+JiN4YTsgICAgPC9jbGlwUGF0aD4mI3hhOyAgICA8Y2xpcFBhdGggaWQ9ImNsaXBQYXRoMTIwIiBjbGlwUGF0aFVuaXRzPSJ1c2VyU3BhY2VPblVzZSI+JiN4YTsgICAgICA8cGF0aCBpZD0icGF0aDExOCIgZD0ibSA1NjU1LDc2NzMgaCAyMzYyIHYgNDkzNSBIIDU2NTUgViA3NjczIi8+JiN4YTsgICAgPC9jbGlwUGF0aD4mI3hhOyAgICA8Y2xpcFBhdGggaWQ9ImNsaXBQYXRoMjM0IiBjbGlwUGF0aFVuaXRzPSJ1c2VyU3BhY2VPblVzZSI+JiN4YTsgICAgICA8cGF0aCBpZD0icGF0aDIzMiIgZD0iTSAwLDAgSCA5OTIxIFYgMTQwMzEgSCAwIFYgMCIvPiYjeGE7ICAgIDwvY2xpcFBhdGg+JiN4YTsgICAgPGNsaXBQYXRoIGlkPSJjbGlwUGF0aDQwMCIgY2xpcFBhdGhVbml0cz0idXNlclNwYWNlT25Vc2UiPiYjeGE7ICAgICAgPHBhdGggaWQ9InBhdGgzOTgiIGQ9Ik0gMCwwIEggOTkyMSBWIDE0MDMxIEggMCBWIDAiLz4mI3hhOyAgICA8L2NsaXBQYXRoPiYjeGE7ICAgIDxjbGlwUGF0aCBpZD0iY2xpcFBhdGg0MTIiIGNsaXBQYXRoVW5pdHM9InVzZXJTcGFjZU9uVXNlIj4mI3hhOyAgICAgIDxwYXRoIGlkPSJwYXRoNDEwIiBkPSJNIDAsMCBIIDk5MjEgViAxNDAzMSBIIDAgViAwIi8+JiN4YTsgICAgPC9jbGlwUGF0aD4mI3hhOyAgICA8Y2xpcFBhdGggaWQ9ImNsaXBQYXRoNDM4IiBjbGlwUGF0aFVuaXRzPSJ1c2VyU3BhY2VPblVzZSI+JiN4YTsgICAgICA8cGF0aCBpZD0icGF0aDQzNiIgZD0iTSAwLDAgSCA5OTIxIFYgMTQwMzEgSCAwIFYgMCIvPiYjeGE7ICAgIDwvY2xpcFBhdGg+JiN4YTsgICAgPGNsaXBQYXRoIGlkPSJjbGlwUGF0aDQ1MCIgY2xpcFBhdGhVbml0cz0idXNlclNwYWNlT25Vc2UiPiYjeGE7ICAgICAgPHBhdGggaWQ9InBhdGg0NDgiIGQ9Ik0gMCwwIEggOTkyMSBWIDE0MDMxIEggMCBWIDAiLz4mI3hhOyAgICA8L2NsaXBQYXRoPiYjeGE7ICA8L2RlZnM+JiN4YTsgIDxnIHRyYW5zZm9ybT0ibWF0cml4KDAuMDgsMCwwLC0wLjA4LDAsMTEyMi42NjY3KSIgaWQ9Imc4Ij4mI3hhOyAgICA8ZyBpZD0iZzEwIj4mI3hhOyAgICAgIDxnIGNsaXAtcGF0aD0idXJsKCNjbGlwUGF0aDE2KSIgaWQ9ImcxMiI+JiN4YTsgICAgICAgIDxwYXRoIGlkPSJwYXRoMTgiIHN0eWxlPSJmaWxsOm5vbmU7c3Ryb2tlOiMwMDAwMDA7c3Ryb2tlLXdpZHRoOjEyO3N0cm9rZS1saW5lY2FwOnJvdW5kO3N0cm9rZS1saW5lam9pbjpyb3VuZDtzdHJva2UtbWl0ZXJsaW1pdDoxMDtzdHJva2UtZGFzaGFycmF5Om5vbmU7c3Ryb2tlLW9wYWNpdHk6MSIgZD0ibSAzMjM1LDc4MjUgaCAxOSAyMCAxNyAxNyAxNCAxMSA4IDUgMiIvPiYjeGE7ICAgICAgICA8cGF0aCBpZD0icGF0aDIwIiBzdHlsZT0iZmlsbDpub25lO3N0cm9rZTojMDAwMDAwO3N0cm9rZS13aWR0aDoxMjtzdHJva2UtbGluZWNhcDpyb3VuZDtzdHJva2UtbGluZWpvaW46cm91bmQ7c3Ryb2tlLW1pdGVybGltaXQ6MTA7c3Ryb2tlLWRhc2hhcnJheTpub25lO3N0cm9rZS1vcGFjaXR5OjEiIGQ9Im0gMzM0OC41LDc4MjYgYyA0MS42OTc1LDAgNzUuNSwzMy44MDI3IDc1LjUsNzUuNSIvPiYjeGE7ICAgICAgICA8cGF0aCBpZD0icGF0aDIyIiBzdHlsZT0iZmlsbDpub25lO3N0cm9rZTojMDAwMDAwO3N0cm9rZS13aWR0aDoxMjtzdHJva2UtbGluZWNhcDpyb3VuZDtzdHJva2UtbGluZWpvaW46cm91bmQ7c3Ryb2tlLW1pdGVybGltaXQ6MTA7c3Ryb2tlLWRhc2hhcnJheTpub25lO3N0cm9rZS1vcGFjaXR5OjEiIGQ9Im0gMjEwMSw3OTAxLjUgYyAwLC00MS42OTczIDMzLjgwMjUsLTc1LjUgNzUuNSwtNzUuNSIvPiYjeGE7ICAgICAgICA8cGF0aCBpZD0icGF0aDI0IiBzdHlsZT0iZmlsbDpub25lO3N0cm9rZTojMDAwMDAwO3N0cm9rZS13aWR0aDoxMjtzdHJva2UtbGluZWNhcDpyb3VuZDtzdHJva2UtbGluZWpvaW46cm91bmQ7c3Ryb2tlLW1pdGVybGltaXQ6MTA7c3Ryb2tlLWRhc2hhcnJheTpub25lO3N0cm9rZS1vcGFjaXR5OjEiIGQ9Im0gMjE3Niw3ODI1IGggMiA1IDggMTEgMTQgMTcgMTcgMjAgMTkgOTQ2Ii8+JiN4YTsgICAgICAgIDxwYXRoIGlkPSJwYXRoMjYiIHN0eWxlPSJmaWxsOm5vbmU7c3Ryb2tlOiMwMDAwMDA7c3Ryb2tlLXdpZHRoOjEyO3N0cm9rZS1saW5lY2FwOnJvdW5kO3N0cm9rZS1saW5lam9pbjpyb3VuZDtzdHJva2UtbWl0ZXJsaW1pdDoxMDtzdHJva2UtZGFzaGFycmF5Om5vbmU7c3Ryb2tlLW9wYWNpdHk6MSIgZD0iTSAyMTAwLDEwNjc5IFYgNzkwMSIvPiYjeGE7ICAgICAgICA8cGF0aCBpZD0icGF0aDI4IiBzdHlsZT0iZmlsbDpub25lO3N0cm9rZTojMDAwMDAwO3N0cm9rZS13aWR0aDoxMjtzdHJva2UtbGluZWNhcDpyb3VuZDtzdHJva2UtbGluZWpvaW46cm91bmQ7c3Ryb2tlLW1pdGVybGltaXQ6MTA7c3Ryb2tlLWRhc2hhcnJheTpub25lO3N0cm9rZS1vcGFjaXR5OjEiIGQ9Im0gMzQyNCw3OTAxIHYgMjc3OCIvPiYjeGE7ICAgICAgICA8ZyB0cmFuc2Zvcm09InJvdGF0ZSgxODAsMTY3NC4yNSw1MzM5Ljc1KSIgaWQ9ImczMCI+JiN4YTsgICAgICAgICAgPHBhdGggaWQ9InBhdGgzMiIgc3R5bGU9ImZpbGw6bm9uZTtzdHJva2U6IzAwMDAwMDtzdHJva2Utd2lkdGg6MTI7c3Ryb2tlLWxpbmVjYXA6cm91bmQ7c3Ryb2tlLWxpbmVqb2luOnJvdW5kO3N0cm9rZS1taXRlcmxpbWl0OjEwO3N0cm9rZS1kYXNoYXJyYXk6bm9uZTtzdHJva2Utb3BhY2l0eToxIiBkPSJtIC03NS41LDAgYyAwLC00MS42OTc1IDMzLjgwMjUsLTc1LjUgNzUuNSwtNzUuNSIvPiYjeGE7ICAgICAgICA8L2c+JiN4YTsgICAgICAgIDxwYXRoIGlkPSJwYXRoMzQiIHN0eWxlPSJmaWxsOm5vbmU7c3Ryb2tlOiMwMDAwMDA7c3Ryb2tlLXdpZHRoOjEyO3N0cm9rZS1saW5lY2FwOnJvdW5kO3N0cm9rZS1saW5lam9pbjpyb3VuZDtzdHJva2UtbWl0ZXJsaW1pdDoxMDtzdHJva2UtZGFzaGFycmF5Om5vbmU7c3Ryb2tlLW9wYWNpdHk6MSIgZD0ibSAzMzQ4LDEwNzU1IGggLTIgLTUgLTggLTExIC0xNCAtMTcgLTE3IC0yMCAtMTkgLTk0NiIvPiYjeGE7ICAgICAgICA8ZyB0cmFuc2Zvcm09InJvdGF0ZSgxODAsMTA4OC4yNSw1MzM5Ljc1KSIgaWQ9ImczNiI+JiN4YTsgICAgICAgICAgPHBhdGggaWQ9InBhdGgzOCIgc3R5bGU9ImZpbGw6bm9uZTtzdHJva2U6IzAwMDAwMDtzdHJva2Utd2lkdGg6MTI7c3Ryb2tlLWxpbmVjYXA6cm91bmQ7c3Ryb2tlLWxpbmVqb2luOnJvdW5kO3N0cm9rZS1taXRlcmxpbWl0OjEwO3N0cm9rZS1kYXNoYXJyYXk6bm9uZTtzdHJva2Utb3BhY2l0eToxIiBkPSJtIDAsLTc1LjUgYyA0MS42OTc1LDAgNzUuNSwzMy44MDI1IDc1LjUsNzUuNSIvPiYjeGE7ICAgICAgICA8L2c+JiN4YTsgICAgICAgIDxwYXRoIGlkPSJwYXRoNDAiIHN0eWxlPSJmaWxsOm5vbmU7c3Ryb2tlOiMwMDAwMDA7c3Ryb2tlLXdpZHRoOjEyO3N0cm9rZS1saW5lY2FwOnJvdW5kO3N0cm9rZS1saW5lam9pbjpyb3VuZDtzdHJva2UtbWl0ZXJsaW1pdDoxMDtzdHJva2UtZGFzaGFycmF5Om5vbmU7c3Ryb2tlLW9wYWNpdHk6MSIgZD0ibSAyMjg5LDEwNzU1IGggLTE5IC0yMCAtMTcgLTE3IC0xNCAtMTEgLTggLTUgLTIiLz4mI3hhOyAgICAgICAgPHBhdGggaWQ9InBhdGg0MiIgc3R5bGU9ImZpbGw6bm9uZTtzdHJva2U6IzAwMDAwMDtzdHJva2Utd2lkdGg6MTI7c3Ryb2tlLWxpbmVjYXA6cm91bmQ7c3Ryb2tlLWxpbmVqb2luOnJvdW5kO3N0cm9rZS1taXRlcmxpbWl0OjEwO3N0cm9rZS1kYXNoYXJyYXk6bm9uZTtzdHJva2Utb3BhY2l0eToxIiBkPSJtIDIyMDQsMTA3NTUgdiA1NjcgMCIvPiYjeGE7ICAgICAgICA8cGF0aCBpZD0icGF0aDQ0IiBzdHlsZT0iZmlsbDpub25lO3N0cm9rZTojMDAwMDAwO3N0cm9rZS13aWR0aDoxMjtzdHJva2UtbGluZWNhcDpyb3VuZDtzdHJva2UtbGluZWpvaW46cm91bmQ7c3Ryb2tlLW1pdGVybGltaXQ6MTA7c3Ryb2tlLWRhc2hhcnJheTpub25lO3N0cm9rZS1vcGFjaXR5OjEiIGQ9Im0gMjIwNCwxMTMyMiBoIDggbCA2LDYgNiw1IDYsNiA1LDUgNiw2IDUsNSA2LDYgNSw1IDYsNSA1LDYgNSw1IDUsNSA2LDUgNSw1IDUsNSA1LDUgdiAtNjUyIi8+JiN4YTsgICAgICAgIDxwYXRoIGlkPSJwYXRoNDYiIHN0eWxlPSJmaWxsOm5vbmU7c3Ryb2tlOiMwMDAwMDA7c3Ryb2tlLXdpZHRoOjEyO3N0cm9rZS1saW5lY2FwOnJvdW5kO3N0cm9rZS1saW5lam9pbjpyb3VuZDtzdHJva2UtbWl0ZXJsaW1pdDoxMDtzdHJva2UtZGFzaGFycmF5Om5vbmU7c3Ryb2tlLW9wYWNpdHk6MSIgZD0ibSAyMjk5LDExNDA3IGggLTcgLTMiLz4mI3hhOyAgICAgICAgPHBhdGggaWQ9InBhdGg0OCIgc3R5bGU9ImZpbGw6bm9uZTtzdHJva2U6IzAwMDAwMDtzdHJva2Utd2lkdGg6MTI7c3Ryb2tlLWxpbmVjYXA6cm91bmQ7c3Ryb2tlLWxpbmVqb2luOnJvdW5kO3N0cm9rZS1taXRlcmxpbWl0OjEwO3N0cm9rZS1kYXNoYXJyYXk6bm9uZTtzdHJva2Utb3BhY2l0eToxIiBkPSJtIDM0MjQsMTE5MzQgdiAxIDEgMSAxIDIgMSAyIDIgMiAyIDIgMiA1IDUgMiAyIDMgMiAyIDIgMSAyIDEgMSAxIDEgMjg0Ii8+JiN4YTsgICAgICAgIDxwYXRoIGlkPSJwYXRoNTAiIHN0eWxlPSJmaWxsOm5vbmU7c3Ryb2tlOiMwMDAwMDA7c3Ryb2tlLXdpZHRoOjEyO3N0cm9rZS1saW5lY2FwOnJvdW5kO3N0cm9rZS1saW5lam9pbjpyb3VuZDtzdHJva2UtbWl0ZXJsaW1pdDoxMDtzdHJva2UtZGFzaGFycmF5Om5vbmU7c3Ryb2tlLW9wYWNpdHk6MSIgZD0iTSAzMjM1LDEyNDU2IEggMjI4OSIvPiYjeGE7ICAgICAgICA8cGF0aCBpZD0icGF0aDUyIiBzdHlsZT0iZmlsbDpub25lO3N0cm9rZTojMDAwMDAwO3N0cm9rZS13aWR0aDoxMjtzdHJva2UtbGluZWNhcDpyb3VuZDtzdHJva2UtbGluZWpvaW46cm91bmQ7c3Ryb2tlLW1pdGVybGltaXQ6MTA7c3Ryb2tlLWRhc2hhcnJheTpub25lO3N0cm9rZS1vcGFjaXR5OjEiIGQ9Im0gMzIzNSwxMjI2NyBoIDI3IDI2IDI1IDI0IDIyIDE5IDE2IDEzIDkgNiAyIGwgLTE4OSwxODkiLz4mI3hhOyAgICAgICAgPHBhdGggaWQ9InBhdGg1NCIgc3R5bGU9ImZpbGw6bm9uZTtzdHJva2U6IzAwMDAwMDtzdHJva2Utd2lkdGg6MTI7c3Ryb2tlLWxpbmVjYXA6cm91bmQ7c3Ryb2tlLWxpbmVqb2luOnJvdW5kO3N0cm9rZS1taXRlcmxpbWl0OjEwO3N0cm9rZS1kYXNoYXJyYXk6bm9uZTtzdHJva2Utb3BhY2l0eToxIiBkPSJtIDMyMzUsMTIyNjcgaCAtOTQ2IC0yNyAtMjYgLTI1IC0yNCAtMjIgLTE5IC0xNiAtMTMgLTkgLTYgLTIgbCAxODksMTg5Ii8+JiN4YTsgICAgICAgIDxwYXRoIGlkPSJwYXRoNTYiIHN0eWxlPSJmaWxsOm5vbmU7c3Ryb2tlOiMwMDAwMDA7c3Ryb2tlLXdpZHRoOjEyO3N0cm9rZS1saW5lY2FwOnJvdW5kO3N0cm9rZS1saW5lam9pbjpyb3VuZDtzdHJva2UtbWl0ZXJsaW1pdDoxMDtzdHJva2UtZGFzaGFycmF5Om5vbmU7c3Ryb2tlLW9wYWNpdHk6MSIgZD0ibSAyMTk1LDExODg5IGggMiA1IDkgMTEgMTUgMTYgMTggMTggOTQ2IDE4IDE4IDE2IDE1IDExIDkgNSAyIi8+JiN4YTsgICAgICAgIDxwYXRoIGlkPSJwYXRoNTgiIHN0eWxlPSJmaWxsOm5vbmU7c3Ryb2tlOiMwMDAwMDA7c3Ryb2tlLXdpZHRoOjEyO3N0cm9rZS1saW5lY2FwOnJvdW5kO3N0cm9rZS1saW5lam9pbjpyb3VuZDtzdHJva2UtbWl0ZXJsaW1pdDoxMDtzdHJva2UtZGFzaGFycmF5Om5vbmU7c3Ryb2tlLW9wYWNpdHk6MSIgZD0ibSAyMTAwLDEyMjY3IHYgLTI4NCAtMSAtMSAtMSAtMSAtMiAtMiAtMiAtMiAtMiAtMiAtNSAtNCAtNSAtMiAtMyAtMiAtMiAtMiAtMiAtMSAtMiAtMSAtMSAtMSAtMSIvPiYjeGE7ICAgICAgICA8cGF0aCBpZD0icGF0aDYwIiBzdHlsZT0iZmlsbDpub25lO3N0cm9rZTojMDAwMDAwO3N0cm9rZS13aWR0aDoxMjtzdHJva2UtbGluZWNhcDpyb3VuZDtzdHJva2UtbGluZWpvaW46cm91bmQ7c3Ryb2tlLW1pdGVybGltaXQ6MTA7c3Ryb2tlLWRhc2hhcnJheTpub25lO3N0cm9rZS1vcGFjaXR5OjEiIGQ9Im0gMzMyOS41LDExODg5IGMgNTIuMTkwOSwwIDk0LjUsNDIuMzEgOTQuNSw5NC41Ii8+JiN4YTsgICAgICAgIDxwYXRoIGlkPSJwYXRoNjIiIHN0eWxlPSJmaWxsOm5vbmU7c3Ryb2tlOiMwMDAwMDA7c3Ryb2tlLXdpZHRoOjEyO3N0cm9rZS1saW5lY2FwOnJvdW5kO3N0cm9rZS1saW5lam9pbjpyb3VuZDtzdHJva2UtbWl0ZXJsaW1pdDoxMDtzdHJva2UtZGFzaGFycmF5Om5vbmU7c3Ryb2tlLW9wYWNpdHk6MSIgZD0ibSAyMTAxLDExOTgzLjUgYyAwLC01Mi4xOSA0Mi4zMDkxLC05NC41IDk0LjUsLTk0LjUiLz4mI3hhOyAgICAgICAgPHBhdGggaWQ9InBhdGg2NCIgc3R5bGU9ImZpbGw6bm9uZTtzdHJva2U6IzAwMDAwMDtzdHJva2Utd2lkdGg6MTI7c3Ryb2tlLWxpbmVjYXA6cm91bmQ7c3Ryb2tlLWxpbmVqb2luOnJvdW5kO3N0cm9rZS1taXRlcmxpbWl0OjEwO3N0cm9rZS1kYXNoYXJyYXk6bm9uZTtzdHJva2Utb3BhY2l0eToxIiBkPSJtIDIyODksMTE2MDUgdiAtMTk4IGwgLTg1LC04NSIvPiYjeGE7ICAgICAgICA8cGF0aCBpZD0icGF0aDY2IiBzdHlsZT0iZmlsbDpub25lO3N0cm9rZTojMDAwMDAwO3N0cm9rZS13aWR0aDoxMjtzdHJva2UtbGluZWNhcDpyb3VuZDtzdHJva2UtbGluZWpvaW46cm91bmQ7c3Ryb2tlLW1pdGVybGltaXQ6MTA7c3Ryb2tlLWRhc2hhcnJheTpub25lO3N0cm9rZS1vcGFjaXR5OjEiIGQ9Im0gMzIzNSwxMDc1NSB2IDg1MCIvPiYjeGE7ICAgICAgICA8ZyB0cmFuc2Zvcm09InJvdGF0ZSgxODAsMTc1OS4yNSw1ODAyLjc1KSIgaWQ9Imc2OCI+JiN4YTsgICAgICAgICAgPHBhdGggaWQ9InBhdGg3MCIgc3R5bGU9ImZpbGw6bm9uZTtzdHJva2U6IzAwMDAwMDtzdHJva2Utd2lkdGg6MTI7c3Ryb2tlLWxpbmVjYXA6cm91bmQ7c3Ryb2tlLWxpbmVqb2luOnJvdW5kO3N0cm9rZS1taXRlcmxpbWl0OjEwO3N0cm9rZS1kYXNoYXJyYXk6bm9uZTtzdHJva2Utb3BhY2l0eToxIiBkPSJNIDE0MS43NDIxNiwtMjQ1LjUyMjc0IEMgMjI5LjQ2MTc4LC0xOTQuODgxNTIgMjgzLjUsLTEwMS4yODgwMyAyODMuNSwwIi8+JiN4YTsgICAgICAgIDwvZz4mI3hhOyAgICAgICAgPGcgdHJhbnNmb3JtPSJtYXRyaXgoLTAuODY2MDQsMC40OTk5NywtMC40OTk5NywtMC44NjYwNCwyMDA2LjUsMTE2MDUuNSkiIGlkPSJnNzIiPiYjeGE7ICAgICAgICAgIDxwYXRoIGlkPSJwYXRoNzQiIHN0eWxlPSJmaWxsOm5vbmU7c3Ryb2tlOiMwMDAwMDA7c3Ryb2tlLXdpZHRoOjEyO3N0cm9rZS1saW5lY2FwOnJvdW5kO3N0cm9rZS1saW5lam9pbjpyb3VuZDtzdHJva2UtbWl0ZXJsaW1pdDoxMDtzdHJva2UtZGFzaGFycmF5Om5vbmU7c3Ryb2tlLW9wYWNpdHk6MSIgZD0iTSAtMjQ1LjUyMjc0LC0xNDEuNzQyMTYgQyAtMTk0Ljg4MTUyLC0yMjkuNDYxNzggLTEwMS4yODgwMywtMjgzLjUgMCwtMjgzLjUiLz4mI3hhOyAgICAgICAgPC9nPiYjeGE7ICAgICAgICA8ZyB0cmFuc2Zvcm09Im1hdHJpeCgwLjg2NjA0LC0wLjQ5OTk3LDAuNDk5OTcsMC44NjYwNCwyMTk1LjUsMTE5MzMuNSkiIGlkPSJnNzYiPiYjeGE7ICAgICAgICAgIDxwYXRoIGlkPSJwYXRoNzgiIHN0eWxlPSJmaWxsOm5vbmU7c3Ryb2tlOiMwMDAwMDA7c3Ryb2tlLXdpZHRoOjEyO3N0cm9rZS1saW5lY2FwOnJvdW5kO3N0cm9rZS1saW5lam9pbjpyb3VuZDtzdHJva2UtbWl0ZXJsaW1pdDoxMDtzdHJva2UtZGFzaGFycmF5Om5vbmU7c3Ryb2tlLW9wYWNpdHk6MSIgZD0iTSAtODEuODQwOTEsLTQ3LjI0NzM4IEMgLTY0Ljk2MDUxLC03Ni40ODcyNiAtMzMuNzYyNjgsLTk0LjUgMCwtOTQuNSIvPiYjeGE7ICAgICAgICA8L2c+JiN4YTsgICAgICAgIDxwYXRoIGlkPSJwYXRoODAiIHN0eWxlPSJmaWxsOm5vbmU7c3Ryb2tlOiMwMDAwMDA7c3Ryb2tlLXdpZHRoOjEyO3N0cm9rZS1saW5lY2FwOnJvdW5kO3N0cm9rZS1saW5lam9pbjpyb3VuZDtzdHJva2UtbWl0ZXJsaW1pdDoxMDtzdHJva2UtZGFzaGFycmF5Om5vbmU7c3Ryb2tlLW9wYWNpdHk6MSIgZD0ibSAzMzc2Ljc0NzMsMTE4NTEuNjU5IGMgMjkuMjQsMTYuODggNDcuMjUyNyw0OC4wNzggNDcuMjUyNyw4MS44NDEiLz4mI3hhOyAgICAgIDwvZz4mI3hhOyAgICA8L2c+JiN4YTsgICAgPGcgaWQ9Imc4MiI+JiN4YTsgICAgICA8ZyBjbGlwLXBhdGg9InVybCgjY2xpcFBhdGg4OCkiIGlkPSJnODQiPiYjeGE7ICAgICAgICA8cGF0aCBpZD0icGF0aDkwIiBzdHlsZT0iZmlsbDpub25lO3N0cm9rZTojMDAwMDAwO3N0cm9rZS13aWR0aDoxMjtzdHJva2UtbGluZWNhcDpyb3VuZDtzdHJva2UtbGluZWpvaW46cm91bmQ7c3Ryb2tlLW1pdGVybGltaXQ6MTA7c3Ryb2tlLWRhc2hhcnJheTpub25lO3N0cm9rZS1vcGFjaXR5OjEiIGQ9Ik0gMjEwMCw1ODg5IFYgNTc3MiIvPiYjeGE7ICAgICAgICA8cGF0aCBpZD0icGF0aDkyIiBzdHlsZT0iZmlsbDpub25lO3N0cm9rZTojMDAwMDAwO3N0cm9rZS13aWR0aDoxMjtzdHJva2UtbGluZWNhcDpyb3VuZDtzdHJva2UtbGluZWpvaW46cm91bmQ7c3Ryb2tlLW1pdGVybGltaXQ6MTA7c3Ryb2tlLWRhc2hhcnJheTpub25lO3N0cm9rZS1vcGFjaXR5OjEiIGQ9Ik0gMjI4OS41LDYwNzkgQyAyMTg0Ljg0Miw2MDc5IDIxMDAsNTk5NC4xNTgyIDIxMDAsNTg4OS41Ii8+JiN4YTsgICAgICAgIDxwYXRoIGlkPSJwYXRoOTQiIHN0eWxlPSJmaWxsOm5vbmU7c3Ryb2tlOiMwMDAwMDA7c3Ryb2tlLXdpZHRoOjEyO3N0cm9rZS1saW5lY2FwOnJvdW5kO3N0cm9rZS1saW5lam9pbjpyb3VuZDtzdHJva2UtbWl0ZXJsaW1pdDoxMDtzdHJva2UtZGFzaGFycmF5Om5vbmU7c3Ryb2tlLW9wYWNpdHk6MSIgZD0iTSAyNDc4LDYwNzggSCAyMjg5Ii8+JiN4YTsgICAgICAgIDxwYXRoIGlkPSJwYXRoOTYiIHN0eWxlPSJmaWxsOm5vbmU7c3Ryb2tlOiMwMDAwMDA7c3Ryb2tlLXdpZHRoOjEyO3N0cm9rZS1saW5lY2FwOnJvdW5kO3N0cm9rZS1saW5lam9pbjpyb3VuZDtzdHJva2UtbWl0ZXJsaW1pdDoxMDtzdHJva2UtZGFzaGFycmF5Om5vbmU7c3Ryb2tlLW9wYWNpdHk6MSIgZD0iTSAzNDI0LDQ1NjUgViA2MjQ1Ii8+JiN4YTsgICAgICAgIDxwYXRoIGlkPSJwYXRoOTgiIHN0eWxlPSJmaWxsOm5vbmU7c3Ryb2tlOiMwMDAwMDA7c3Ryb2tlLXdpZHRoOjEyO3N0cm9rZS1saW5lY2FwOnJvdW5kO3N0cm9rZS1saW5lam9pbjpyb3VuZDtzdHJva2UtbWl0ZXJsaW1pdDoxMDtzdHJva2UtZGFzaGFycmF5Om5vbmU7c3Ryb2tlLW9wYWNpdHk6MSIgZD0ibSAzNDI1LDYyNDUuNSBjIDAsNjUuNjc2MyAtMzQuMDA2MSwxMjYuNjY5OSAtODkuODczOCwxNjEuMTk4MiAtNTUuODY3NywzNC41Mjg0IC0xMjUuNjMwMSwzNy42NjcgLTE4NC4zNzI4LDguMjk1OSIvPiYjeGE7ICAgICAgICA8cGF0aCBpZD0icGF0aDEwMCIgc3R5bGU9ImZpbGw6bm9uZTtzdHJva2U6IzAwMDAwMDtzdHJva2Utd2lkdGg6MTI7c3Ryb2tlLWxpbmVjYXA6cm91bmQ7c3Ryb2tlLWxpbmVqb2luOnJvdW5kO3N0cm9rZS1taXRlcmxpbWl0OjEwO3N0cm9rZS1kYXNoYXJyYXk6bm9uZTtzdHJva2Utb3BhY2l0eToxIiBkPSJtIDIyODksNDU2NSB2IDEyMDcgbCA5NDYsNDczIFYgNDU2NSBoIC05NDYiLz4mI3hhOyAgICAgICAgPHBhdGggaWQ9InBhdGgxMDIiIHN0eWxlPSJmaWxsOm5vbmU7c3Ryb2tlOiMwMDAwMDA7c3Ryb2tlLXdpZHRoOjEyO3N0cm9rZS1saW5lY2FwOnJvdW5kO3N0cm9rZS1saW5lam9pbjpyb3VuZDtzdHJva2UtbWl0ZXJsaW1pdDoxMDtzdHJva2UtZGFzaGFycmF5Om5vbmU7c3Ryb2tlLW9wYWNpdHk6MSIgZD0iTSAzMTUwLDY0MTQgMjIwNSw1OTQxIi8+JiN4YTsgICAgICAgIDxwYXRoIGlkPSJwYXRoMTA0IiBzdHlsZT0iZmlsbDpub25lO3N0cm9rZTojMDAwMDAwO3N0cm9rZS13aWR0aDoxMjtzdHJva2UtbGluZWNhcDpyb3VuZDtzdHJva2UtbGluZWpvaW46cm91bmQ7c3Ryb2tlLW1pdGVybGltaXQ6MTA7c3Ryb2tlLWRhc2hhcnJheTpub25lO3N0cm9rZS1vcGFjaXR5OjEiIGQ9Ik0gMjIwNC43NTM0LDU5NDEuOTk0MSBDIDIxNDAuNTUzNyw1OTA5Ljg5NDUgMjEwMCw1ODQ0LjI3NzMgMjEwMCw1NzcyLjUiLz4mI3hhOyAgICAgICAgPHBhdGggaWQ9InBhdGgxMDYiIHN0eWxlPSJmaWxsOm5vbmU7c3Ryb2tlOiMwMDAwMDA7c3Ryb2tlLXdpZHRoOjEyO3N0cm9rZS1saW5lY2FwOnJvdW5kO3N0cm9rZS1saW5lam9pbjpyb3VuZDtzdHJva2UtbWl0ZXJsaW1pdDoxMDtzdHJva2UtZGFzaGFycmF5Om5vbmU7c3Ryb2tlLW9wYWNpdHk6MSIgZD0ibSAzMjM1LjUsNDM3NiBjIDEwNC42NTgsMCAxODkuNSw4NC44NDE4IDE4OS41LDE4OS41Ii8+JiN4YTsgICAgICAgIDxwYXRoIGlkPSJwYXRoMTA4IiBzdHlsZT0iZmlsbDpub25lO3N0cm9rZTojMDAwMDAwO3N0cm9rZS13aWR0aDoxMjtzdHJva2UtbGluZWNhcDpyb3VuZDtzdHJva2UtbGluZWpvaW46cm91bmQ7c3Ryb2tlLW1pdGVybGltaXQ6MTA7c3Ryb2tlLWRhc2hhcnJheTpub25lO3N0cm9rZS1vcGFjaXR5OjEiIGQ9Im0gMjEwMCw0NTY1LjUgYyAwLC0xMDQuNjU4MiA4NC44NDIsLTE4OS41IDE4OS41LC0xODkuNSIvPiYjeGE7ICAgICAgICA8cGF0aCBpZD0icGF0aDExMCIgc3R5bGU9ImZpbGw6bm9uZTtzdHJva2U6IzAwMDAwMDtzdHJva2Utd2lkdGg6MTI7c3Ryb2tlLWxpbmVjYXA6cm91bmQ7c3Ryb2tlLWxpbmVqb2luOnJvdW5kO3N0cm9rZS1taXRlcmxpbWl0OjEwO3N0cm9rZS1kYXNoYXJyYXk6bm9uZTtzdHJva2Utb3BhY2l0eToxIiBkPSJNIDIxMDAsNTc3MiBWIDQ1NjUiLz4mI3hhOyAgICAgICAgPHBhdGggaWQ9InBhdGgxMTIiIHN0eWxlPSJmaWxsOm5vbmU7c3Ryb2tlOiMwMDAwMDA7c3Ryb2tlLXdpZHRoOjEyO3N0cm9rZS1saW5lY2FwOnJvdW5kO3N0cm9rZS1saW5lam9pbjpyb3VuZDtzdHJva2UtbWl0ZXJsaW1pdDoxMDtzdHJva2UtZGFzaGFycmF5Om5vbmU7c3Ryb2tlLW9wYWNpdHk6MSIgZD0ibSAyMjg5LDQzNzYgaCA5NDYiLz4mI3hhOyAgICAgIDwvZz4mI3hhOyAgICA8L2c+JiN4YTsgICAgPGcgaWQ9ImcxMTQiPiYjeGE7ICAgICAgPGcgY2xpcC1wYXRoPSJ1cmwoI2NsaXBQYXRoMTIwKSIgaWQ9ImcxMTYiPiYjeGE7ICAgICAgICA8cGF0aCBpZD0icGF0aDEyMiIgc3R5bGU9ImZpbGw6bm9uZTtzdHJva2U6IzAwMDAwMDtzdHJva2Utd2lkdGg6MTI7c3Ryb2tlLWxpbmVjYXA6cm91bmQ7c3Ryb2tlLWxpbmVqb2luOnJvdW5kO3N0cm9rZS1taXRlcmxpbWl0OjEwO3N0cm9rZS1kYXNoYXJyYXk6bm9uZTtzdHJva2Utb3BhY2l0eToxIiBkPSJtIDY1NDEsODgxNyBoIC0xODkgdiAtMTg5IGggMTg5IHYgMTg5Ii8+JiN4YTsgICAgICAgIDxnIHRyYW5zZm9ybT0icm90YXRlKDE4MCwzMTE5Ljc1LDM5NTAuNzUpIiBpZD0iZzEyNCI+JiN4YTsgICAgICAgICAgPHBhdGggaWQ9InBhdGgxMjYiIHN0eWxlPSJmaWxsOm5vbmU7c3Ryb2tlOiMwMDAwMDA7c3Ryb2tlLXdpZHRoOjEyO3N0cm9rZS1saW5lY2FwOnJvdW5kO3N0cm9rZS1saW5lam9pbjpyb3VuZDtzdHJva2UtbWl0ZXJsaW1pdDoxMDtzdHJva2UtZGFzaGFycmF5Om5vbmU7c3Ryb2tlLW9wYWNpdHk6MSIgZD0iTSA3NS41LDAgQyA3NS41LDQxLjY5NzUgNDEuNjk3NSw3NS41IDAsNzUuNSIvPiYjeGE7ICAgICAgICA8L2c+JiN4YTsgICAgICAgIDxwYXRoIGlkPSJwYXRoMTI4IiBzdHlsZT0iZmlsbDpub25lO3N0cm9rZTojMDAwMDAwO3N0cm9rZS13aWR0aDoxMjtzdHJva2UtbGluZWNhcDpyb3VuZDtzdHJva2UtbGluZWpvaW46cm91bmQ7c3Ryb2tlLW1pdGVybGltaXQ6MTA7c3Ryb2tlLWRhc2hhcnJheTpub25lO3N0cm9rZS1vcGFjaXR5OjEiIGQ9Ik0gNjIzOSw3ODI1IEggNzQxMSIvPiYjeGE7ICAgICAgICA8cGF0aCBpZD0icGF0aDEzMCIgc3R5bGU9ImZpbGw6bm9uZTtzdHJva2U6IzAwMDAwMDtzdHJva2Utd2lkdGg6MTI7c3Ryb2tlLWxpbmVjYXA6cm91bmQ7c3Ryb2tlLWxpbmVqb2luOnJvdW5kO3N0cm9rZS1taXRlcmxpbWl0OjEwO3N0cm9rZS1kYXNoYXJyYXk6bm9uZTtzdHJva2Utb3BhY2l0eToxIiBkPSJtIDc0MTEuNSw3ODI2IGMgNDEuNjk3MywwIDc1LjUsMzMuODAyNyA3NS41LDc1LjUiLz4mI3hhOyAgICAgICAgPHBhdGggaWQ9InBhdGgxMzIiIHN0eWxlPSJmaWxsOm5vbmU7c3Ryb2tlOiMwMDAwMDA7c3Ryb2tlLXdpZHRoOjEyO3N0cm9rZS1saW5lY2FwOnJvdW5kO3N0cm9rZS1saW5lam9pbjpyb3VuZDtzdHJva2UtbWl0ZXJsaW1pdDoxMDtzdHJva2UtZGFzaGFycmF5Om5vbmU7c3Ryb2tlLW9wYWNpdHk6MSIgZD0ibSA3NDg3LDc5MDEgdiAyNzc4Ii8+JiN4YTsgICAgICAgIDxwYXRoIGlkPSJwYXRoMTM0IiBzdHlsZT0iZmlsbDpub25lO3N0cm9rZTojMDAwMDAwO3N0cm9rZS13aWR0aDoxMjtzdHJva2UtbGluZWNhcDpyb3VuZDtzdHJva2UtbGluZWpvaW46cm91bmQ7c3Ryb2tlLW1pdGVybGltaXQ6MTA7c3Ryb2tlLWRhc2hhcnJheTpub25lO3N0cm9rZS1vcGFjaXR5OjEiIGQ9Im0gNzQ4NywxMDY3OS41IGMgMCw0MS42OTcgLTMzLjgwMjcsNzUuNSAtNzUuNSw3NS41Ii8+JiN4YTsgICAgICAgIDxwYXRoIGlkPSJwYXRoMTM2IiBzdHlsZT0iZmlsbDpub25lO3N0cm9rZTojMDAwMDAwO3N0cm9rZS13aWR0aDoxMjtzdHJva2UtbGluZWNhcDpyb3VuZDtzdHJva2UtbGluZWpvaW46cm91bmQ7c3Ryb2tlLW1pdGVybGltaXQ6MTA7c3Ryb2tlLWRhc2hhcnJheTpub25lO3N0cm9rZS1vcGFjaXR5OjEiIGQ9Im0gNzQxMSwxMDc1NSBoIC04NSB2IC05NDUgbCAyOCwtMjkgViA4MjAzIGggLTU2IHYgMTQyIGggLTE5MCB2IC0xNDIgaCAtODEzIHYgMTU3OCBsIDI5LDI5IHYgOTQ1IGggLTg1Ii8+JiN4YTsgICAgICAgIDxnIHRyYW5zZm9ybT0icm90YXRlKDE4MCwzMTE5Ljc1LDUzMzkuNzUpIiBpZD0iZzEzOCI+JiN4YTsgICAgICAgICAgPHBhdGggaWQ9InBhdGgxNDAiIHN0eWxlPSJmaWxsOm5vbmU7c3Ryb2tlOiMwMDAwMDA7c3Ryb2tlLXdpZHRoOjEyO3N0cm9rZS1saW5lY2FwOnJvdW5kO3N0cm9rZS1saW5lam9pbjpyb3VuZDtzdHJva2UtbWl0ZXJsaW1pdDoxMDtzdHJva2UtZGFzaGFycmF5Om5vbmU7c3Ryb2tlLW9wYWNpdHk6MSIgZD0ibSAwLC03NS41IGMgNDEuNjk3NSwwIDc1LjUsMzMuODAyNSA3NS41LDc1LjUiLz4mI3hhOyAgICAgICAgPC9nPiYjeGE7ICAgICAgICA8cGF0aCBpZD0icGF0aDE0MiIgc3R5bGU9ImZpbGw6bm9uZTtzdHJva2U6IzAwMDAwMDtzdHJva2Utd2lkdGg6MTI7c3Ryb2tlLWxpbmVjYXA6cm91bmQ7c3Ryb2tlLWxpbmVqb2luOnJvdW5kO3N0cm9rZS1taXRlcmxpbWl0OjEwO3N0cm9rZS1kYXNoYXJyYXk6bm9uZTtzdHJva2Utb3BhY2l0eToxIiBkPSJNIDYxNjMsMTA2NzkgViA3OTAxIi8+JiN4YTsgICAgICAgIDxwYXRoIGlkPSJwYXRoMTQ0IiBzdHlsZT0iZmlsbDpub25lO3N0cm9rZTojMDAwMDAwO3N0cm9rZS13aWR0aDoxMjtzdHJva2UtbGluZWNhcDpyb3VuZDtzdHJva2UtbGluZWpvaW46cm91bmQ7c3Ryb2tlLW1pdGVybGltaXQ6MTA7c3Ryb2tlLWRhc2hhcnJheTpub25lO3N0cm9rZS1vcGFjaXR5OjEiIGQ9Im0gNjMyNCwxMDc1NSBoIDIgNSA5IDEyIi8+JiN4YTsgICAgICAgIDxwYXRoIGlkPSJwYXRoMTQ2IiBzdHlsZT0iZmlsbDpub25lO3N0cm9rZTojMDAwMDAwO3N0cm9rZS13aWR0aDoxMjtzdHJva2UtbGluZWNhcDpyb3VuZDtzdHJva2UtbGluZWpvaW46cm91bmQ7c3Ryb2tlLW1pdGVybGltaXQ6MTA7c3Ryb2tlLWRhc2hhcnJheTpub25lO3N0cm9rZS1vcGFjaXR5OjEiIGQ9Im0gNzI5OCwxMDc1NSBoIDEyIDkgNSAyIi8+JiN4YTsgICAgICAgIDxwYXRoIGlkPSJwYXRoMTQ4IiBzdHlsZT0iZmlsbDpub25lO3N0cm9rZTojMDAwMDAwO3N0cm9rZS13aWR0aDoxMjtzdHJva2UtbGluZWNhcDpyb3VuZDtzdHJva2UtbGluZWpvaW46cm91bmQ7c3Ryb2tlLW1pdGVybGltaXQ6MTA7c3Ryb2tlLWRhc2hhcnJheTpub25lO3N0cm9rZS1vcGFjaXR5OjEiIGQ9Im0gNjI5NSw5NzgxIGggMiA2IDggMTMiLz4mI3hhOyAgICAgICAgPHBhdGggaWQ9InBhdGgxNTAiIHN0eWxlPSJmaWxsOm5vbmU7c3Ryb2tlOiMwMDAwMDA7c3Ryb2tlLXdpZHRoOjEyO3N0cm9rZS1saW5lY2FwOnJvdW5kO3N0cm9rZS1saW5lam9pbjpyb3VuZDtzdHJva2UtbWl0ZXJsaW1pdDoxMDtzdHJva2UtZGFzaGFycmF5Om5vbmU7c3Ryb2tlLW9wYWNpdHk6MSIgZD0ibSA3MzI2LDk3ODEgaCAxMiA5IDYgMSIvPiYjeGE7ICAgICAgICA8cGF0aCBpZD0icGF0aDE1MiIgc3R5bGU9ImZpbGw6bm9uZTtzdHJva2U6IzAwMDAwMDtzdHJva2Utd2lkdGg6MTI7c3Ryb2tlLWxpbmVjYXA6cm91bmQ7c3Ryb2tlLWxpbmVqb2luOnJvdW5kO3N0cm9rZS1taXRlcmxpbWl0OjEwO3N0cm9rZS1kYXNoYXJyYXk6bm9uZTtzdHJva2Utb3BhY2l0eToxIiBkPSJtIDY4MjUsODM5MiAtNiwyIC02LDIgLTUsMiAtNiwyIC02LDEgLTYsMiAtNSwyIC02LDIgLTYsMiAtNiwyIC01LDEgLTYsMiAtNiwyIC02LDIgLTUsMiAtNiwyIC02LDEgLTUsMiAtNiwyIC02LDIgLTUsMiAtNiwyIC01LDIgLTYsMSAtNSwyIC02LDIgLTUsMiAtNiwyIC01LDIgLTYsMSAtNSwyIC01LDIgLTYsMiAtNSwyIC01LDIgLTYsMiAtNSwxIC01LDIgLTUsMiAtNSwyIC02LDIgLTUsMiAtNSwxIC01LDIgLTUsMiAtNSwyIC01LDIgLTQsMiAtNSwyIC01LDEgLTUsMiAtNCwyIC01LDIgLTUsMiAtNCwyIC01LDEgLTQsMiAtNSwyIC00LDIgLTQsMiAtNSwyIC00LDIgLTQsMSAtNCwyIC00LDIgLTQsMiAtNCwyIC00LDIgLTQsMSAtNCwyIC00LDIgLTQsMiAtMywyIC00LDIgLTMsMiAtNCwxIC0zLDIgLTQsMiAtMywyIC0zLDIgLTMsMiAtMywxIC00LDIgLTMsMiAtMiwyIC0zLDIgLTMsMiAtMywyIC0zLDEgLTIsMiAtMywyIC0yLDIgLTMsMiAtMiwyIC0yLDEgLTMsMiAtMiwyIC0yLDIgLTIsMiAtMiwyIC0yLDIgLTIsMSAtMiwyIC0xLDIgLTIsMiAtMiwyIC0xLDIgLTIsMSAtMSwyIC0xLDIgLTEsMiAtMiwyIC0xLDIgLTEsMiAtMSwxIC0xLDIgdiAyIGwgLTEsMiAtMSwyIC0xLDIgdiAxIGwgLTEsMiB2IDIgMiBsIC0xLDIgdiAyIDIgMSIvPiYjeGE7ICAgICAgICA8cGF0aCBpZD0icGF0aDE1NCIgc3R5bGU9ImZpbGw6bm9uZTtzdHJva2U6IzAwMDAwMDtzdHJva2Utd2lkdGg6MTI7c3Ryb2tlLWxpbmVjYXA6cm91bmQ7c3Ryb2tlLWxpbmVqb2luOnJvdW5kO3N0cm9rZS1taXRlcmxpbWl0OjEwO3N0cm9rZS1kYXNoYXJyYXk6bm9uZTtzdHJva2Utb3BhY2l0eToxIiBkPSJtIDcwOTUsODIwMyAtMiwzIC0zLDQgLTIsMyAtMiwzIC0zLDQgLTMsMyAtMiwzIC0zLDQgLTMsMyAtNCwzIC0zLDQgLTMsMyAtNCwzIC0zLDQgLTQsMyAtNCwzIC00LDQgLTQsMyAtNCwzIC01LDQgLTQsMyAtNCwzIC01LDQgLTUsMyAtNCwzIC01LDMgLTUsNCAtNSwzIC01LDMgLTUsNCAtNiwzIC01LDMgLTUsNCAtNiwzIC01LDMgLTYsNCAtNSwzIC02LDMgLTYsNCAtNSwzIC02LDMgLTYsNCAtNiwzIC02LDMgLTYsNCAtNiwzIC02LDMgLTYsNCAtNiwzIC02LDMgLTYsNCAtNywzIC02LDMgLTYsNCAtNiwzIC03LDMgLTYsMyAtNiw0IC02LDMgLTcsMyAtNiw0IC02LDMgLTYsMyAtNiw0IC02LDMgLTcsMyAtNiw0IC02LDMgLTYsMyAtNiw0IC02LDMgLTYsMyAtNSw0IC02LDMgLTYsMyAtNiw0IC01LDMgLTYsMyAtNSw0IC02LDMgLTUsMyAtNiw0IC01LDMgLTUsMyAtNSw0IC01LDMgLTUsMyAtNSwzIC01LDQgLTUsMyAtNCwzIC01LDQgLTQsMyAtNSwzIC00LDQgLTQsMyAtNCwzIC00LDQgLTQsMyAtNCwzIC00LDQgLTMsMyAtMywzIC00LDQgLTMsMyAtMywzIC0zLDQgLTMsMyAtMiwzIC0zLDQgLTIsMyAtMiwzIC0yLDQgLTIsMyAtMiwzIC0yLDQgLTEsMyAtMiwzIC0xLDMgLTEsNCAtMSwzIC0xLDMgLTEsNCAtMSwzIHYgMyBsIC0xLDQgdiAzIDMiLz4mI3hhOyAgICAgICAgPHBhdGggaWQ9InBhdGgxNTYiIHN0eWxlPSJmaWxsOm5vbmU7c3Ryb2tlOiMwMDAwMDA7c3Ryb2tlLXdpZHRoOjEyO3N0cm9rZS1saW5lY2FwOnJvdW5kO3N0cm9rZS1saW5lam9pbjpyb3VuZDtzdHJva2UtbWl0ZXJsaW1pdDoxMDtzdHJva2UtZGFzaGFycmF5Om5vbmU7c3Ryb2tlLW9wYWNpdHk6MSIgZD0ibSA3Mjk4LDgzNDUgdiAyIGwgLTEsMiB2IDEgMiAyIGwgLTEsMiB2IDIgbCAtMSwyIHYgMSBsIC0xLDIgLTEsMiAtMSwyIC0xLDIgLTEsMiAtMSwyIC0xLDEgLTEsMiAtMiwyIC0xLDIgLTEsMiAtMiwyIC0xLDEgLTIsMiAtMiwyIC0xLDIgLTIsMiAtMiwyIC0yLDIgLTIsMSAtMiwyIC0yLDIgLTMsMiAtMiwyIC0yLDIgLTMsMSAtMiwyIC0zLDIgLTIsMiAtMywyIC0zLDIgLTIsMiAtMywxIC0zLDIgLTMsMiAtMywyIC0zLDIgLTMsMiAtMywxIC00LDIgLTMsMiAtMywyIC00LDIgLTMsMiAtNCwyIC0zLDEgLTQsMiAtNCwyIC0zLDIgLTQsMiAtNCwyIC00LDEgLTQsMiAtNCwyIC00LDIgLTQsMiAtNCwyIC00LDIgLTQsMSAtNSwyIC00LDIgLTQsMiAtNSwyIC00LDIgLTUsMSAtNCwyIC01LDIgLTQsMiAtNSwyIC01LDIgLTUsMiAtNCwxIC01LDIgLTUsMiAtNSwyIC01LDIgLTUsMiAtNSwxIC01LDIgLTUsMiAtNiwyIC01LDIgLTUsMiAtNSwyIC02LDEgLTUsMiAtNSwyIC02LDIgLTUsMiAtNSwyIC02LDEgLTUsMiAtNiwyIC01LDIgLTYsMiAtNiwyIC01LDIgLTYsMSAtNSwyIC02LDIgLTYsMiAtNSwyIC02LDIgLTYsMSAtNSwyIC02LDIgLTYsMiAtNiwyIC01LDIgLTYsMiAtNiwxIC02LDIgLTUsMiAtNiwyIC02LDIgLTYsMiAtNiwxIC01LDIgLTYsMiIvPiYjeGE7ICAgICAgICA8cGF0aCBpZD0icGF0aDE1OCIgc3R5bGU9ImZpbGw6bm9uZTtzdHJva2U6IzAwMDAwMDtzdHJva2Utd2lkdGg6MTI7c3Ryb2tlLWxpbmVjYXA6cm91bmQ7c3Ryb2tlLWxpbmVqb2luOnJvdW5kO3N0cm9rZS1taXRlcmxpbWl0OjEwO3N0cm9rZS1kYXNoYXJyYXk6bm9uZTtzdHJva2Utb3BhY2l0eToxIiBkPSJtIDcxMDgsODM0NSB2IDIgMiAxIDIgMiAyIGwgLTEsMiB2IDIgMSBsIC0xLDIgdiAyIGwgLTEsMiB2IDIgbCAtMSwyIC0xLDIgdiAxIGwgLTIsNCAtMiw0IC0xLDMgLTIsNCAtMyw0IC0yLDQgLTIsMyAtMyw0IC0zLDQgLTMsMyAtMyw0IC0zLDQgLTQsMyAtMyw0IC00LDQgLTQsMyAtNCw0IC00LDQgLTQsNCAtNCwzIC01LDQgLTQsNCAtNSwzIC01LDQgLTUsNCAtNSwzIC01LDQgLTUsNCAtNSwzIC02LDQgLTUsNCAtNiw0IC02LDMgLTYsNCAtMywyIC0zLDIgLTMsMSAtMywyIC0zLDIgLTMsMiAtMywyIC0zLDIgLTMsMiAtMywxIC0zLDIgLTQsMiAtMywyIC0zLDIgLTMsMiAtNCwxIC0zLDIgLTMsMiAtMywyIC00LDIgLTMsMiAtMywyIC00LDEgLTMsMiAtNCwyIC0zLDIgLTMsMiAtNCwyIC0zLDEgLTQsMiAtNiw0IC03LDQgLTcsMyAtNyw0IC03LDQgLTcsMyAtNyw0IC03LDQgLTcsNCAtNywzIC03LDQgLTcsNCAtNiwzIC03LDQgLTcsNCAtNywzIC03LDQgLTYsNCAtNywzIC03LDQgLTYsNCAtNyw0IC02LDMgLTcsNCAtNiw0IC02LDMgLTYsNCAtNyw0IC02LDMgLTYsNCAtNSw0IC02LDMgLTYsNCAtNSw0IC02LDMgLTMsMiAtMiwyIC0zLDIgLTMsMiAtMiwyIC0zLDIgLTIsMSAtMywyIC0yLDIgLTMsMiAtMiwyIC0yLDIgLTMsMSAtMiwyIC0yLDIgLTIsMiAtMywyIC0yLDIgLTIsMiAtMiwxIC00LDQgLTQsNCAtNCwzIC0zLDQgLTQsNCAtMyw0IC0zLDMgLTMsNCAtMyw0IC0zLDMgLTMsNCAtMiw0IC0yLDMgLTIsNCAtMiw0IC0yLDMgLTIsNCAtMSw0IC0yLDQgLTEsMyAtMSw0IHYgNCBsIC0xLDMgdiA0IGwgLTEsMiB2IDIgMiAxIi8+JiN4YTsgICAgICAgIDxwYXRoIGlkPSJwYXRoMTYwIiBzdHlsZT0iZmlsbDpub25lO3N0cm9rZTojMDAwMDAwO3N0cm9rZS13aWR0aDoxMjtzdHJva2UtbGluZWNhcDpyb3VuZDtzdHJva2UtbGluZWpvaW46cm91bmQ7c3Ryb2tlLW1pdGVybGltaXQ6MTA7c3Ryb2tlLWRhc2hhcnJheTpub25lO3N0cm9rZS1vcGFjaXR5OjEiIGQ9Im0gNjU0MSw5NzYyIGggLTE4OSB2IC0xODkgaCAxODkgdiAxODkiLz4mI3hhOyAgICAgICAgPHBhdGggaWQ9InBhdGgxNjIiIHN0eWxlPSJmaWxsOm5vbmU7c3Ryb2tlOiMwMDAwMDA7c3Ryb2tlLXdpZHRoOjEyO3N0cm9rZS1saW5lY2FwOnJvdW5kO3N0cm9rZS1saW5lam9pbjpyb3VuZDtzdHJva2UtbWl0ZXJsaW1pdDoxMDtzdHJva2UtZGFzaGFycmF5Om5vbmU7c3Ryb2tlLW9wYWNpdHk6MSIgZD0ibSA3Mjk4LDkyOTAgaCAtMTkwIHYgLTE4OSBoIDE5MCB2IDE4OSIvPiYjeGE7ICAgICAgICA8cGF0aCBpZD0icGF0aDE2NCIgc3R5bGU9ImZpbGw6bm9uZTtzdHJva2U6IzAwMDAwMDtzdHJva2Utd2lkdGg6MTI7c3Ryb2tlLWxpbmVjYXA6cm91bmQ7c3Ryb2tlLWxpbmVqb2luOnJvdW5kO3N0cm9rZS1taXRlcmxpbWl0OjEwO3N0cm9rZS1kYXNoYXJyYXk6bm9uZTtzdHJva2Utb3BhY2l0eToxIiBkPSJtIDcxMDgsOTEwMSB2IDIgMiAxIDIgMiAyIGwgLTEsMiB2IDIgMiBsIC0xLDEgdiAyIGwgLTEsMiB2IDIgbCAtMSwyIC0xLDIgdiAxIGwgLTIsNCAtMiw0IC0xLDQgLTIsMyAtMyw0IC0yLDQgLTIsMyAtMyw0IC0zLDQgLTMsMyAtMyw0IC0zLDQgLTQsMyAtMyw0IC00LDQgLTQsNCAtNCwzIC00LDQgLTQsNCAtNCwzIC01LDQgLTQsNCAtNSwzIC01LDQgLTUsNCAtNSwzIC01LDQgLTUsNCAtNSw0IC02LDMgLTUsNCAtNiw0IC02LDMgLTYsNCAtMywyIC0zLDIgLTMsMiAtMywxIC0zLDIgLTMsMiAtMywyIC0zLDIgLTMsMiAtMywxIC0zLDIgLTQsMiAtMywyIC0zLDIgLTMsMiAtNCwyIC0zLDEgLTMsMiAtMywyIC00LDIgLTMsMiAtMywyIC00LDEgLTMsMiAtNCwyIC0zLDIgLTMsMiAtNCwyIC0zLDIgLTQsMSAtNiw0IC03LDQgLTcsMyAtNyw0IC03LDQgLTcsMyAtNyw0IC03LDQgLTcsNCAtNywzIC03LDQgLTcsNCAtNiwzIC03LDQgLTcsNCAtNywzIC03LDQgLTYsNCAtNywzIC03LDQgLTYsNCAtNyw0IC02LDMgLTcsNCAtNiw0IC02LDMgLTYsNCAtNyw0IC02LDMgLTYsNCAtNSw0IC02LDMgLTYsNCAtNSw0IC02LDQgLTMsMSAtMiwyIC0zLDIgLTMsMiAtMiwyIC0zLDIgLTIsMSAtMywyIC0yLDIgLTMsMiAtMiwyIC0yLDIgLTMsMiAtMiwxIC0yLDIgLTIsMiAtMywyIC0yLDIgLTIsMiAtMiwxIC00LDQgLTQsNCAtNCw0IC0zLDMgLTQsNCAtMyw0IC0zLDMgLTMsNCAtMyw0IC0zLDMgLTMsNCAtMiw0IC0yLDMgLTIsNCAtMiw0IC0yLDQgLTIsMyAtMSw0IC0yLDQgLTEsMyAtMSw0IHYgNCBsIC0xLDMgdiA0IGwgLTEsMiB2IDIgMiAxIi8+JiN4YTsgICAgICAgIDxwYXRoIGlkPSJwYXRoMTY2IiBzdHlsZT0iZmlsbDpub25lO3N0cm9rZTojMDAwMDAwO3N0cm9rZS13aWR0aDoxMjtzdHJva2UtbGluZWNhcDpyb3VuZDtzdHJva2UtbGluZWpvaW46cm91bmQ7c3Ryb2tlLW1pdGVybGltaXQ6MTA7c3Ryb2tlLWRhc2hhcnJheTpub25lO3N0cm9rZS1vcGFjaXR5OjEiIGQ9Im0gNjgyNSw5MzM3IC02LDIgLTYsMiAtNSwyIC02LDIgLTYsMSAtNiwyIC02LDIgLTUsMiAtNiwyIC02LDIgLTYsMSAtNSwyIC02LDIgLTYsMiAtNiwyIC01LDIgLTYsMiAtNiwxIC01LDIgLTYsMiAtNiwyIC01LDIgLTYsMiAtNSwxIC02LDIgLTUsMiAtNiwyIC01LDIgLTYsMiAtNSwyIC02LDEgLTUsMiAtNSwyIC02LDIgLTUsMiAtNSwyIC01LDEgLTYsMiAtNSwyIC01LDIgLTUsMiAtNSwyIC01LDIgLTUsMSAtNSwyIC01LDIgLTUsMiAtNSwyIC01LDIgLTQsMSAtNSwyIC01LDIgLTQsMiAtNSwyIC00LDIgLTUsMiAtNCwxIC01LDIgLTQsMiAtNCwyIC01LDIgLTQsMiAtNCwxIC00LDIgLTQsMiAtNCwyIC00LDIgLTQsMiAtNCwyIC00LDEgLTMsMiAtNCwyIC00LDIgLTMsMiAtNCwyIC0zLDEgLTMsMiAtNCwyIC0zLDIgLTMsMiAtNCwyIC0zLDIgLTMsMSAtMywyIC0zLDIgLTMsMiAtMiwyIC0zLDIgLTMsMSAtMiwyIC0zLDIgLTMsMiAtMiwyIC0yLDIgLTMsMiAtMiwxIC0yLDIgLTIsMiAtMiwyIC0yLDIgLTIsMiAtMiwxIC0yLDIgLTIsMiAtMiwyIC0xLDIgLTIsMiAtMSwyIC0yLDEgLTEsMiAtMSwyIC0xLDIgLTIsMiAtMSwyIC0xLDEgLTEsMiB2IDIgbCAtMSwyIC0xLDIgdiAyIGwgLTEsMiAtMSwxIHYgMiAyIGwgLTEsMiB2IDIgMiAxIi8+JiN4YTsgICAgICAgIDxwYXRoIGlkPSJwYXRoMTY4IiBzdHlsZT0iZmlsbDpub25lO3N0cm9rZTojMDAwMDAwO3N0cm9rZS13aWR0aDoxMjtzdHJva2UtbGluZWNhcDpyb3VuZDtzdHJva2UtbGluZWpvaW46cm91bmQ7c3Ryb2tlLW1pdGVybGltaXQ6MTA7c3Ryb2tlLWRhc2hhcnJheTpub25lO3N0cm9rZS1vcGFjaXR5OjEiIGQ9Im0gNzI5OCw5MjkwIHYgMiBsIC0xLDIgdiAxIDIgMiBsIC0xLDIgdiAyIGwgLTEsMiB2IDIgbCAtMSwxIC0xLDIgLTEsMiAtMSwyIC0xLDIgLTEsMiAtMSwxIC0xLDIgLTIsMiAtMSwyIC0xLDIgLTIsMiAtMSwyIC0yLDEgLTIsMiAtMSwyIC0yLDIgLTIsMiAtMiwyIC0yLDEgLTIsMiAtMiwyIC0zLDIgLTIsMiAtMiwyIC0zLDIgLTIsMSAtMywyIC0yLDIgLTMsMiAtMywyIC0yLDIgLTMsMSAtMywyIC0zLDIgLTMsMiAtMywyIC0zLDIgLTMsMiAtNCwxIC0zLDIgLTMsMiAtNCwyIC0zLDIgLTQsMiAtMywxIC00LDIgLTQsMiAtMywyIC00LDIgLTQsMiAtNCwyIC00LDEgLTQsMiAtNCwyIC00LDIgLTQsMiAtNCwyIC00LDEgLTUsMiAtNCwyIC00LDIgLTUsMiAtNCwyIC01LDIgLTQsMSAtNSwyIC00LDIgLTUsMiAtNSwyIC01LDIgLTQsMSAtNSwyIC01LDIgLTUsMiAtNSwyIC01LDIgLTUsMiAtNSwxIC01LDIgLTYsMiAtNSwyIC01LDIgLTUsMiAtNiwxIC01LDIgLTUsMiAtNiwyIC01LDIgLTUsMiAtNiwyIC01LDEgLTYsMiAtNSwyIC02LDIgLTYsMiAtNSwyIC02LDEgLTUsMiAtNiwyIC02LDIgLTUsMiAtNiwyIC02LDIgLTUsMSAtNiwyIC02LDIgLTYsMiAtNSwyIC02LDIgLTYsMSAtNiwyIC01LDIgLTYsMiAtNiwyIC02LDIgLTYsMiAtNSwxIC02LDIiLz4mI3hhOyAgICAgICAgPHBhdGggaWQ9InBhdGgxNzAiIHN0eWxlPSJmaWxsOm5vbmU7c3Ryb2tlOiMwMDAwMDA7c3Ryb2tlLXdpZHRoOjEyO3N0cm9rZS1saW5lY2FwOnJvdW5kO3N0cm9rZS1saW5lam9pbjpyb3VuZDtzdHJva2UtbWl0ZXJsaW1pdDoxMDtzdHJva2UtZGFzaGFycmF5Om5vbmU7c3Ryb2tlLW9wYWNpdHk6MSIgZD0ibSA3MTA4LDkyOTAgdiAzIDIgMyAyIGwgLTEsMyB2IDIgbCAtMSwzIHYgMyBsIC0xLDIgLTEsMyAtMSwyIC0xLDMgLTEsMyAtMSwyIC0xLDMgLTIsMiAtMSwzIC0yLDIgLTEsMyAtMiwzIC0yLDIgLTIsMyAtMSwyIC0yLDMgLTIsMyAtMywyIC0yLDMgLTIsMiAtMiwzIC0zLDIgLTIsMyAtMywzIC0yLDIgLTMsMyAtMywyIC0yLDMgLTMsMyAtMywyIC0zLDMgLTMsMiAtMywzIC0zLDIgLTQsMyAtMywzIC0zLDIgLTQsMyAtMywyIC00LDMgLTMsMyAtNCwyIC0zLDMgLTQsMiAtNCwzIC00LDIgLTQsMyAtNCwzIC0zLDIgLTUsMyAtNCwyIC00LDMgLTQsMyAtNCwyIC00LDMgLTUsMiAtNCwzIC00LDIgLTUsMyAtNCwzIC01LDIgLTQsMyAtNSwyIC00LDMgLTUsMyAtNCwyIC01LDMgLTUsMiAtNSwzIC00LDMgLTUsMiAtNSwzIC01LDIgLTQsMyAtNSwyIC01LDMgLTUsMyAtNSwyIC00LDMgLTUsMiAtNSwzIC01LDMgLTUsMiAtNSwzIC01LDIgLTQsMyAtNSwyIC01LDMgLTUsMyAtNSwyIC01LDMgLTQsMiAtNSwzIC01LDMgLTUsMiAtNSwzIC00LDIgLTUsMyAtNSwyIC00LDMgLTUsMyAtNSwyIC00LDMgLTUsMiAtNCwzIC01LDMgLTQsMiAtNSwzIC00LDIgLTUsMyAtNCwyIC00LDMgLTUsMyAtNCwyIC00LDMgLTQsMiAtNSwzIC00LDMgLTQsMiAtNCwzIi8+JiN4YTsgICAgICAgIDxwYXRoIGlkPSJwYXRoMTcyIiBzdHlsZT0iZmlsbDpub25lO3N0cm9rZTojMDAwMDAwO3N0cm9rZS13aWR0aDoxMjtzdHJva2UtbGluZWNhcDpyb3VuZDtzdHJva2UtbGluZWpvaW46cm91bmQ7c3Ryb2tlLW1pdGVybGltaXQ6MTA7c3Ryb2tlLWRhc2hhcnJheTpub25lO3N0cm9rZS1vcGFjaXR5OjEiIGQ9Im0gNzEwOCwxMDA0NiBoIDE5MCIvPiYjeGE7ICAgICAgICA8cGF0aCBpZD0icGF0aDE3NCIgc3R5bGU9ImZpbGw6bm9uZTtzdHJva2U6IzAwMDAwMDtzdHJva2Utd2lkdGg6MTI7c3Ryb2tlLWxpbmVjYXA6cm91bmQ7c3Ryb2tlLWxpbmVqb2luOnJvdW5kO3N0cm9rZS1taXRlcmxpbWl0OjEwO3N0cm9rZS1kYXNoYXJyYXk6bm9uZTtzdHJva2Utb3BhY2l0eToxIiBkPSJtIDYzNTIsMTA1MTkgaCAxODkiLz4mI3hhOyAgICAgICAgPHBhdGggaWQ9InBhdGgxNzYiIHN0eWxlPSJmaWxsOm5vbmU7c3Ryb2tlOiMwMDAwMDA7c3Ryb2tlLXdpZHRoOjEyO3N0cm9rZS1saW5lY2FwOnJvdW5kO3N0cm9rZS1saW5lam9pbjpyb3VuZDtzdHJva2UtbWl0ZXJsaW1pdDoxMDtzdHJva2UtZGFzaGFycmF5Om5vbmU7c3Ryb2tlLW9wYWNpdHk6MSIgZD0ibSA3Mjk4LDEwMDQ2IHYgMTg5Ii8+JiN4YTsgICAgICAgIDxwYXRoIGlkPSJwYXRoMTc4IiBzdHlsZT0iZmlsbDpub25lO3N0cm9rZTojMDAwMDAwO3N0cm9rZS13aWR0aDoxMjtzdHJva2UtbGluZWNhcDpyb3VuZDtzdHJva2UtbGluZWpvaW46cm91bmQ7c3Ryb2tlLW1pdGVybGltaXQ6MTA7c3Ryb2tlLWRhc2hhcnJheTpub25lO3N0cm9rZS1vcGFjaXR5OjEiIGQ9Im0gNjM1MiwxMDcwOCB2IC0xODkiLz4mI3hhOyAgICAgICAgPHBhdGggaWQ9InBhdGgxODAiIHN0eWxlPSJmaWxsOm5vbmU7c3Ryb2tlOiMwMDAwMDA7c3Ryb2tlLXdpZHRoOjEyO3N0cm9rZS1saW5lY2FwOnJvdW5kO3N0cm9rZS1saW5lam9pbjpyb3VuZDtzdHJva2UtbWl0ZXJsaW1pdDoxMDtzdHJva2UtZGFzaGFycmF5Om5vbmU7c3Ryb2tlLW9wYWNpdHk6MSIgZD0iTSA3Mjk4LDEwMjM1IEggNzEwOCIvPiYjeGE7ICAgICAgICA8cGF0aCBpZD0icGF0aDE4MiIgc3R5bGU9ImZpbGw6bm9uZTtzdHJva2U6IzAwMDAwMDtzdHJva2Utd2lkdGg6MTI7c3Ryb2tlLWxpbmVjYXA6cm91bmQ7c3Ryb2tlLWxpbmVqb2luOnJvdW5kO3N0cm9rZS1taXRlcmxpbWl0OjEwO3N0cm9rZS1kYXNoYXJyYXk6bm9uZTtzdHJva2Utb3BhY2l0eToxIiBkPSJNIDY1NDEsMTA3MDggSCA2MzUyIi8+JiN4YTsgICAgICAgIDxwYXRoIGlkPSJwYXRoMTg0IiBzdHlsZT0iZmlsbDpub25lO3N0cm9rZTojMDAwMDAwO3N0cm9rZS13aWR0aDoxMjtzdHJva2UtbGluZWNhcDpyb3VuZDtzdHJva2UtbGluZWpvaW46cm91bmQ7c3Ryb2tlLW1pdGVybGltaXQ6MTA7c3Ryb2tlLWRhc2hhcnJheTpub25lO3N0cm9rZS1vcGFjaXR5OjEiIGQ9Im0gNzEwOCwxMDIzNSB2IC0xODkiLz4mI3hhOyAgICAgICAgPHBhdGggaWQ9InBhdGgxODYiIHN0eWxlPSJmaWxsOm5vbmU7c3Ryb2tlOiMwMDAwMDA7c3Ryb2tlLXdpZHRoOjEyO3N0cm9rZS1saW5lY2FwOnJvdW5kO3N0cm9rZS1saW5lam9pbjpyb3VuZDtzdHJva2UtbWl0ZXJsaW1pdDoxMDtzdHJva2UtZGFzaGFycmF5Om5vbmU7c3Ryb2tlLW9wYWNpdHk6MSIgZD0ibSA2NTQxLDEwNTE5IHYgMTg5Ii8+JiN4YTsgICAgICAgIDxwYXRoIGlkPSJwYXRoMTg4IiBzdHlsZT0iZmlsbDpub25lO3N0cm9rZTojMDAwMDAwO3N0cm9rZS13aWR0aDoxMjtzdHJva2UtbGluZWNhcDpyb3VuZDtzdHJva2UtbGluZWpvaW46cm91bmQ7c3Ryb2tlLW1pdGVybGltaXQ6MTA7c3Ryb2tlLWRhc2hhcnJheTpub25lO3N0cm9rZS1vcGFjaXR5OjEiIGQ9Im0gNjIzMywxMjQ1NiAtMjEyLC0xODkgdiAtMjg1IC0zIC0yIC0yIGwgMSwtMiB2IC0zIC0yIGwgMSwtMiB2IC0yIGwgMSwtMiB2IC0zIGwgMSwtMiB2IC0yIGwgMSwtMiAxLC0yIDEsLTIgMSwtMiB2IC0yIGwgMSwtMiAxLC0yIDIsLTIgMSwtMiAxLC0yIDEsLTIgMSwtMiAyLC0yIDEsLTIgMSwtMSAyLC0yIDEsLTIgMiwtMSAxLC0yIDIsLTIgMSwtMSAyLC0yIDIsLTEgMSwtMiAyLC0xIDIsLTIgMiwtMSAxLC0xIDIsLTIgMiwtMSAyLC0xIDIsLTEgMiwtMSAyLC0yIDIsLTEgMiwtMSAyLC0xIDIsLTEgNCwtMSA0LC0yIDUsLTEgNCwtMiA0LC0xIDUsLTEgNCwtMSIvPiYjeGE7ICAgICAgICA8ZyB0cmFuc2Zvcm09Im1hdHJpeCgtMC45ODc5OSwwLjE1NDUsLTAuMTU0NSwtMC45ODc5OSw2MDY4LjUsMTE2MDUuNSkiIGlkPSJnMTkwIj4mI3hhOyAgICAgICAgICA8cGF0aCBpZD0icGF0aDE5MiIgc3R5bGU9ImZpbGw6bm9uZTtzdHJva2U6IzAwMDAwMDtzdHJva2Utd2lkdGg6MTI7c3Ryb2tlLWxpbmVjYXA6cm91bmQ7c3Ryb2tlLWxpbmVqb2luOnJvdW5kO3N0cm9rZS1taXRlcmxpbWl0OjEwO3N0cm9rZS1kYXNoYXJyYXk6bm9uZTtzdHJva2Utb3BhY2l0eToxIiBkPSJNIC0yODAuMDk1ODYsLTQzLjgwMTQ0IEMgLTI1OC41MTc3OSwtMTgxLjc4NjAzIC0xMzkuNjYxNTksLTI4My41IDAsLTI4My41Ii8+JiN4YTsgICAgICAgIDwvZz4mI3hhOyAgICAgICAgPHBhdGggaWQ9InBhdGgxOTQiIHN0eWxlPSJmaWxsOm5vbmU7c3Ryb2tlOiMwMDAwMDA7c3Ryb2tlLXdpZHRoOjEyO3N0cm9rZS1saW5lY2FwOnJvdW5kO3N0cm9rZS1saW5lam9pbjpyb3VuZDtzdHJva2UtbWl0ZXJsaW1pdDoxMDtzdHJva2UtZGFzaGFycmF5Om5vbmU7c3Ryb2tlLW9wYWNpdHk6MSIgZD0iTSA2MzUyLDExNjA1IFYgOTgzOCBsIC0yOCwtMjggdiAtMTE0Ii8+JiN4YTsgICAgICAgIDxnIHRyYW5zZm9ybT0icm90YXRlKDE4MCwzMTk5Ljc1LDQ4NDguMjUpIiBpZD0iZzE5NiI+JiN4YTsgICAgICAgICAgPHBhdGggaWQ9InBhdGgxOTgiIHN0eWxlPSJmaWxsOm5vbmU7c3Ryb2tlOiMwMDAwMDA7c3Ryb2tlLXdpZHRoOjEyO3N0cm9rZS1saW5lY2FwOnJvdW5kO3N0cm9rZS1saW5lam9pbjpyb3VuZDtzdHJva2UtbWl0ZXJsaW1pdDoxMDtzdHJva2UtZGFzaGFycmF5Om5vbmU7c3Ryb2tlLW9wYWNpdHk6MSIgZD0iTSA3NS41LDAgQyA3NS41LDQxLjY5NzUgNDEuNjk3NSw3NS41IDAsNzUuNSIvPiYjeGE7ICAgICAgICA8L2c+JiN4YTsgICAgICAgIDxwYXRoIGlkPSJwYXRoMjAwIiBzdHlsZT0iZmlsbDpub25lO3N0cm9rZTojMDAwMDAwO3N0cm9rZS13aWR0aDoxMjtzdHJva2UtbGluZWNhcDpyb3VuZDtzdHJva2UtbGluZWpvaW46cm91bmQ7c3Ryb2tlLW1pdGVybGltaXQ6MTA7c3Ryb2tlLWRhc2hhcnJheTpub25lO3N0cm9rZS1vcGFjaXR5OjEiIGQ9Im0gNjM5OSw5NjIxIGggODUxIi8+JiN4YTsgICAgICAgIDxwYXRoIGlkPSJwYXRoMjAyIiBzdHlsZT0iZmlsbDpub25lO3N0cm9rZTojMDAwMDAwO3N0cm9rZS13aWR0aDoxMjtzdHJva2UtbGluZWNhcDpyb3VuZDtzdHJva2UtbGluZWpvaW46cm91bmQ7c3Ryb2tlLW1pdGVybGltaXQ6MTA7c3Ryb2tlLWRhc2hhcnJheTpub25lO3N0cm9rZS1vcGFjaXR5OjEiIGQ9Im0gNzI1MC41LDk2MjEgYyA0MS42OTczLDAgNzUuNSwzMy44MDI3IDc1LjUsNzUuNSIvPiYjeGE7ICAgICAgICA8cGF0aCBpZD0icGF0aDIwNCIgc3R5bGU9ImZpbGw6bm9uZTtzdHJva2U6IzAwMDAwMDtzdHJva2Utd2lkdGg6MTI7c3Ryb2tlLWxpbmVjYXA6cm91bmQ7c3Ryb2tlLWxpbmVqb2luOnJvdW5kO3N0cm9rZS1taXRlcmxpbWl0OjEwO3N0cm9rZS1kYXNoYXJyYXk6bm9uZTtzdHJva2Utb3BhY2l0eToxIiBkPSJtIDczMjYsOTY5NiB2IDExNCBsIC0yOCwyOCB2IDE3NjciLz4mI3hhOyAgICAgICAgPGcgdHJhbnNmb3JtPSJyb3RhdGUoMTgwLDM3OTAuNzUsNTgwMi43NSkiIGlkPSJnMjA2Ij4mI3hhOyAgICAgICAgICA8cGF0aCBpZD0icGF0aDIwOCIgc3R5bGU9ImZpbGw6bm9uZTtzdHJva2U6IzAwMDAwMDtzdHJva2Utd2lkdGg6MTI7c3Ryb2tlLWxpbmVjYXA6cm91bmQ7c3Ryb2tlLWxpbmVqb2luOnJvdW5kO3N0cm9rZS1taXRlcmxpbWl0OjEwO3N0cm9rZS1kYXNoYXJyYXk6bm9uZTtzdHJva2Utb3BhY2l0eToxIiBkPSJtIDAsLTI4My41IGMgMTU2LjU3Mjc0LDAgMjgzLjUsMTI2LjkyNzI2IDI4My41LDI4My41Ii8+JiN4YTsgICAgICAgIDwvZz4mI3hhOyAgICAgICAgPHBhdGggaWQ9InBhdGgyMTAiIHN0eWxlPSJmaWxsOm5vbmU7c3Ryb2tlOiMwMDAwMDA7c3Ryb2tlLXdpZHRoOjEyO3N0cm9rZS1saW5lY2FwOnJvdW5kO3N0cm9rZS1saW5lam9pbjpyb3VuZDtzdHJva2UtbWl0ZXJsaW1pdDoxMDtzdHJva2UtZGFzaGFycmF5Om5vbmU7c3Ryb2tlLW9wYWNpdHk6MSIgZD0ibSA3NTgxLDExODg5IGggMTg5Ii8+JiN4YTsgICAgICAgIDxwYXRoIGlkPSJwYXRoMjEyIiBzdHlsZT0iZmlsbDpub25lO3N0cm9rZTojMDAwMDAwO3N0cm9rZS13aWR0aDoxMjtzdHJva2UtbGluZWNhcDpyb3VuZDtzdHJva2UtbGluZWpvaW46cm91bmQ7c3Ryb2tlLW1pdGVybGltaXQ6MTA7c3Ryb2tlLWRhc2hhcnJheTpub25lO3N0cm9rZS1vcGFjaXR5OjEiIGQ9Im0gNzc3MC41LDExODg5IGMgNTIuMTkwOSwwIDk0LjUsNDIuMzEgOTQuNSw5NC41Ii8+JiN4YTsgICAgICAgIDxwYXRoIGlkPSJwYXRoMjE0IiBzdHlsZT0iZmlsbDpub25lO3N0cm9rZTojMDAwMDAwO3N0cm9rZS13aWR0aDoxMjtzdHJva2UtbGluZWNhcDpyb3VuZDtzdHJva2UtbGluZWpvaW46cm91bmQ7c3Ryb2tlLW1pdGVybGltaXQ6MTA7c3Ryb2tlLWRhc2hhcnJheTpub25lO3N0cm9rZS1vcGFjaXR5OjEiIGQ9Im0gNzg2NSwxMTk4MyB2IDI4NCBsIC0xODksMTg5IEggNjIzMyIvPiYjeGE7ICAgICAgICA8cGF0aCBpZD0icGF0aDIxNiIgc3R5bGU9ImZpbGw6bm9uZTtzdHJva2U6IzAwMDAwMDtzdHJva2Utd2lkdGg6MTI7c3Ryb2tlLWxpbmVjYXA6cm91bmQ7c3Ryb2tlLWxpbmVqb2luOnJvdW5kO3N0cm9rZS1taXRlcmxpbWl0OjEwO3N0cm9rZS1kYXNoYXJyYXk6bm9uZTtzdHJva2Utb3BhY2l0eToxIiBkPSJtIDU4MjcsMTIyNjcgaCAxOTQiLz4mI3hhOyAgICAgICAgPHBhdGggaWQ9InBhdGgyMTgiIHN0eWxlPSJmaWxsOm5vbmU7c3Ryb2tlOiMwMDAwMDA7c3Ryb2tlLXdpZHRoOjEyO3N0cm9rZS1saW5lY2FwOnJvdW5kO3N0cm9rZS1saW5lam9pbjpyb3VuZDtzdHJva2UtbWl0ZXJsaW1pdDoxMDtzdHJva2UtZGFzaGFycmF5Om5vbmU7c3Ryb2tlLW9wYWNpdHk6MSIgZD0iTSA2MjMzLDEyNDU2IEggNTk5NiIvPiYjeGE7ICAgICAgICA8cGF0aCBpZD0icGF0aDIyMCIgc3R5bGU9ImZpbGw6bm9uZTtzdHJva2U6IzAwMDAwMDtzdHJva2Utd2lkdGg6MTI7c3Ryb2tlLWxpbmVjYXA6cm91bmQ7c3Ryb2tlLWxpbmVqb2luOnJvdW5kO3N0cm9rZS1taXRlcmxpbWl0OjEwO3N0cm9rZS1kYXNoYXJyYXk6bm9uZTtzdHJva2Utb3BhY2l0eToxIiBkPSJtIDU4MDcsMTIyNjcgaCAyIDcgMTEiLz4mI3hhOyAgICAgICAgPHBhdGggaWQ9InBhdGgyMjIiIHN0eWxlPSJmaWxsOm5vbmU7c3Ryb2tlOiMwMDAwMDA7c3Ryb2tlLXdpZHRoOjEyO3N0cm9rZS1saW5lY2FwOnJvdW5kO3N0cm9rZS1saW5lam9pbjpyb3VuZDtzdHJva2UtbWl0ZXJsaW1pdDoxMDtzdHJva2UtZGFzaGFycmF5Om5vbmU7c3Ryb2tlLW9wYWNpdHk6MSIgZD0ibSA1OTAyLDExODg5IGggMiA4IDE2MyAyIDIgMiAzIDIgbCAyLC0xIGggMiAyIDMgMiBsIDMsLTEgaCAyIDIgbCAzLC0xIGggMyBsIDIsLTEiLz4mI3hhOyAgICAgICAgPHBhdGggaWQ9InBhdGgyMjQiIHN0eWxlPSJmaWxsOm5vbmU7c3Ryb2tlOiMwMDAwMDA7c3Ryb2tlLXdpZHRoOjEyO3N0cm9rZS1saW5lY2FwOnJvdW5kO3N0cm9rZS1saW5lam9pbjpyb3VuZDtzdHJva2UtbWl0ZXJsaW1pdDoxMDtzdHJva2UtZGFzaGFycmF5Om5vbmU7c3Ryb2tlLW9wYWNpdHk6MSIgZD0ibSA1OTk2LDEyNDU2IC0xODksLTE4OSB2IC0yODQiLz4mI3hhOyAgICAgICAgPHBhdGggaWQ9InBhdGgyMjYiIHN0eWxlPSJmaWxsOm5vbmU7c3Ryb2tlOiMwMDAwMDA7c3Ryb2tlLXdpZHRoOjEyO3N0cm9rZS1saW5lY2FwOnJvdW5kO3N0cm9rZS1saW5lam9pbjpyb3VuZDtzdHJva2UtbWl0ZXJsaW1pdDoxMDtzdHJva2UtZGFzaGFycmF5Om5vbmU7c3Ryb2tlLW9wYWNpdHk6MSIgZD0ibSA1ODA4LDExOTgzLjUgYyAwLC01Mi4xOSA0Mi4zMDkxLC05NC41IDk0LjUsLTk0LjUiLz4mI3hhOyAgICAgIDwvZz4mI3hhOyAgICA8L2c+JiN4YTsgICAgPGcgaWQ9ImcyMjgiPiYjeGE7ICAgICAgPGcgY2xpcC1wYXRoPSJ1cmwoI2NsaXBQYXRoMjM0KSIgaWQ9ImcyMzAiPiYjeGE7ICAgICAgICA8cGF0aCBpZD0icGF0aDIzNiIgc3R5bGU9ImZpbGw6bm9uZTtzdHJva2U6IzAwMDAwMDtzdHJva2Utd2lkdGg6MTI7c3Ryb2tlLWxpbmVjYXA6cm91bmQ7c3Ryb2tlLWxpbmVqb2luOnJvdW5kO3N0cm9rZS1taXRlcmxpbWl0OjEwO3N0cm9rZS1kYXNoYXJyYXk6bm9uZTtzdHJva2Utb3BhY2l0eToxIiBkPSJtIDYxNjMsMTA2MTggMTM3LDEzNiIvPiYjeGE7ICAgICAgICA8cGF0aCBpZD0icGF0aDIzOCIgc3R5bGU9ImZpbGw6bm9uZTtzdHJva2U6IzAwMDAwMDtzdHJva2Utd2lkdGg6MTI7c3Ryb2tlLWxpbmVjYXA6cm91bmQ7c3Ryb2tlLWxpbmVqb2luOnJvdW5kO3N0cm9rZS1taXRlcmxpbWl0OjEwO3N0cm9rZS1kYXNoYXJyYXk6bm9uZTtzdHJva2Utb3BhY2l0eToxIiBkPSJtIDYxNjMsMTA0MDYgMTYxLDE2MCIvPiYjeGE7ICAgICAgICA8cGF0aCBpZD0icGF0aDI0MCIgc3R5bGU9ImZpbGw6bm9uZTtzdHJva2U6IzAwMDAwMDtzdHJva2Utd2lkdGg6MTI7c3Ryb2tlLWxpbmVjYXA6cm91bmQ7c3Ryb2tlLWxpbmVqb2luOnJvdW5kO3N0cm9rZS1taXRlcmxpbWl0OjEwO3N0cm9rZS1kYXNoYXJyYXk6bm9uZTtzdHJva2Utb3BhY2l0eToxIiBkPSJtIDYzNTIsMTA1OTUgMTEzLDExMiIvPiYjeGE7ICAgICAgICA8cGF0aCBpZD0icGF0aDI0MiIgc3R5bGU9ImZpbGw6bm9uZTtzdHJva2U6IzAwMDAwMDtzdHJva2Utd2lkdGg6MTI7c3Ryb2tlLWxpbmVjYXA6cm91bmQ7c3Ryb2tlLWxpbmVqb2luOnJvdW5kO3N0cm9rZS1taXRlcmxpbWl0OjEwO3N0cm9rZS1kYXNoYXJyYXk6bm9uZTtzdHJva2Utb3BhY2l0eToxIiBkPSJtIDYxNjMsMTAxOTQgMTYxLDE2MCIvPiYjeGE7ICAgICAgICA8cGF0aCBpZD0icGF0aDI0NCIgc3R5bGU9ImZpbGw6bm9uZTtzdHJva2U6IzAwMDAwMDtzdHJva2Utd2lkdGg6MTI7c3Ryb2tlLWxpbmVjYXA6cm91bmQ7c3Ryb2tlLWxpbmVqb2luOnJvdW5kO3N0cm9rZS1taXRlcmxpbWl0OjEwO3N0cm9rZS1kYXNoYXJyYXk6bm9uZTtzdHJva2Utb3BhY2l0eToxIiBkPSJtIDY0ODgsMTA1MTggNTMsNTQiLz4mI3hhOyAgICAgICAgPHBhdGggaWQ9InBhdGgyNDYiIHN0eWxlPSJmaWxsOm5vbmU7c3Ryb2tlOiMwMDAwMDA7c3Ryb2tlLXdpZHRoOjEyO3N0cm9rZS1saW5lY2FwOnJvdW5kO3N0cm9rZS1saW5lam9pbjpyb3VuZDtzdHJva2UtbWl0ZXJsaW1pdDoxMDtzdHJva2UtZGFzaGFycmF5Om5vbmU7c3Ryb2tlLW9wYWNpdHk6MSIgZD0ibSA2MTYzLDk5ODEgMTYxLDE2MSIvPiYjeGE7ICAgICAgICA8cGF0aCBpZD0icGF0aDI0OCIgc3R5bGU9ImZpbGw6bm9uZTtzdHJva2U6IzAwMDAwMDtzdHJva2Utd2lkdGg6MTI7c3Ryb2tlLWxpbmVjYXA6cm91bmQ7c3Ryb2tlLWxpbmVqb2luOnJvdW5kO3N0cm9rZS1taXRlcmxpbWl0OjEwO3N0cm9rZS1kYXNoYXJyYXk6bm9uZTtzdHJva2Utb3BhY2l0eToxIiBkPSJtIDYxNjMsOTc2OSAxNjEsMTYxIi8+JiN4YTsgICAgICAgIDxwYXRoIGlkPSJwYXRoMjUwIiBzdHlsZT0iZmlsbDpub25lO3N0cm9rZTojMDAwMDAwO3N0cm9rZS13aWR0aDoxMjtzdHJva2UtbGluZWNhcDpyb3VuZDtzdHJva2UtbGluZWpvaW46cm91bmQ7c3Ryb2tlLW1pdGVybGltaXQ6MTA7c3Ryb2tlLWRhc2hhcnJheTpub25lO3N0cm9rZS1vcGFjaXR5OjEiIGQ9Im0gNjE2Myw5NTU3IDEzMywxMzMiLz4mI3hhOyAgICAgICAgPHBhdGggaWQ9InBhdGgyNTIiIHN0eWxlPSJmaWxsOm5vbmU7c3Ryb2tlOiMwMDAwMDA7c3Ryb2tlLXdpZHRoOjEyO3N0cm9rZS1saW5lY2FwOnJvdW5kO3N0cm9rZS1saW5lam9pbjpyb3VuZDtzdHJva2UtbWl0ZXJsaW1pdDoxMDtzdHJva2UtZGFzaGFycmF5Om5vbmU7c3Ryb2tlLW9wYWNpdHk6MSIgZD0ibSA3MzI1LDEwNzE5IDM1LDM1Ii8+JiN4YTsgICAgICAgIDxwYXRoIGlkPSJwYXRoMjU0IiBzdHlsZT0iZmlsbDpub25lO3N0cm9rZTojMDAwMDAwO3N0cm9rZS13aWR0aDoxMjtzdHJva2UtbGluZWNhcDpyb3VuZDtzdHJva2UtbGluZWpvaW46cm91bmQ7c3Ryb2tlLW1pdGVybGltaXQ6MTA7c3Ryb2tlLWRhc2hhcnJheTpub25lO3N0cm9rZS1vcGFjaXR5OjEiIGQ9Im0gNjM1Miw5NzQ2IDE2LDE2Ii8+JiN4YTsgICAgICAgIDxwYXRoIGlkPSJwYXRoMjU2IiBzdHlsZT0iZmlsbDpub25lO3N0cm9rZTojMDAwMDAwO3N0cm9rZS13aWR0aDoxMjtzdHJva2UtbGluZWNhcDpyb3VuZDtzdHJva2UtbGluZWpvaW46cm91bmQ7c3Ryb2tlLW1pdGVybGltaXQ6MTA7c3Ryb2tlLWRhc2hhcnJheTpub25lO3N0cm9rZS1vcGFjaXR5OjEiIGQ9Im0gNjE2Myw5MzQ1IDEzMywxMzIiLz4mI3hhOyAgICAgICAgPHBhdGggaWQ9InBhdGgyNTgiIHN0eWxlPSJmaWxsOm5vbmU7c3Ryb2tlOiMwMDAwMDA7c3Ryb2tlLXdpZHRoOjEyO3N0cm9rZS1saW5lY2FwOnJvdW5kO3N0cm9rZS1saW5lam9pbjpyb3VuZDtzdHJva2UtbWl0ZXJsaW1pdDoxMDtzdHJva2UtZGFzaGFycmF5Om5vbmU7c3Ryb2tlLW9wYWNpdHk6MSIgZD0ibSA3MzI1LDEwNTA3IDE2MSwxNjEiLz4mI3hhOyAgICAgICAgPHBhdGggaWQ9InBhdGgyNjAiIHN0eWxlPSJmaWxsOm5vbmU7c3Ryb2tlOiMwMDAwMDA7c3Ryb2tlLXdpZHRoOjEyO3N0cm9rZS1saW5lY2FwOnJvdW5kO3N0cm9rZS1saW5lam9pbjpyb3VuZDtzdHJva2UtbWl0ZXJsaW1pdDoxMDtzdHJva2UtZGFzaGFycmF5Om5vbmU7c3Ryb2tlLW9wYWNpdHk6MSIgZD0ibSA2MzkyLDk1NzMgMTQ5LDE1MCIvPiYjeGE7ICAgICAgICA8cGF0aCBpZD0icGF0aDI2MiIgc3R5bGU9ImZpbGw6bm9uZTtzdHJva2U6IzAwMDAwMDtzdHJva2Utd2lkdGg6MTI7c3Ryb2tlLWxpbmVjYXA6cm91bmQ7c3Ryb2tlLWxpbmVqb2luOnJvdW5kO3N0cm9rZS1taXRlcmxpbWl0OjEwO3N0cm9rZS1kYXNoYXJyYXk6bm9uZTtzdHJva2Utb3BhY2l0eToxIiBkPSJtIDYxNjMsOTEzMyAxMzMsMTMyIi8+JiN4YTsgICAgICAgIDxwYXRoIGlkPSJwYXRoMjY0IiBzdHlsZT0iZmlsbDpub25lO3N0cm9rZTojMDAwMDAwO3N0cm9rZS13aWR0aDoxMjtzdHJva2UtbGluZWNhcDpyb3VuZDtzdHJva2UtbGluZWpvaW46cm91bmQ7c3Ryb2tlLW1pdGVybGltaXQ6MTA7c3Ryb2tlLWRhc2hhcnJheTpub25lO3N0cm9rZS1vcGFjaXR5OjEiIGQ9Im0gNzMyNSwxMDI5NSAxNjEsMTYxIi8+JiN4YTsgICAgICAgIDxwYXRoIGlkPSJwYXRoMjY2IiBzdHlsZT0iZmlsbDpub25lO3N0cm9rZTojMDAwMDAwO3N0cm9rZS13aWR0aDoxMjtzdHJva2UtbGluZWNhcDpyb3VuZDtzdHJva2UtbGluZWpvaW46cm91bmQ7c3Ryb2tlLW1pdGVybGltaXQ6MTA7c3Ryb2tlLWRhc2hhcnJheTpub25lO3N0cm9rZS1vcGFjaXR5OjEiIGQ9Im0gNzEwOCwxMDA3OCAxNTcsMTU3Ii8+JiN4YTsgICAgICAgIDxwYXRoIGlkPSJwYXRoMjY4IiBzdHlsZT0iZmlsbDpub25lO3N0cm9rZTojMDAwMDAwO3N0cm9rZS13aWR0aDoxMjtzdHJva2UtbGluZWNhcDpyb3VuZDtzdHJva2UtbGluZWpvaW46cm91bmQ7c3Ryb2tlLW1pdGVybGltaXQ6MTA7c3Ryb2tlLWRhc2hhcnJheTpub25lO3N0cm9rZS1vcGFjaXR5OjEiIGQ9Im0gNjE2Myw4OTIxIDEzMywxMzIiLz4mI3hhOyAgICAgICAgPHBhdGggaWQ9InBhdGgyNzAiIHN0eWxlPSJmaWxsOm5vbmU7c3Ryb2tlOiMwMDAwMDA7c3Ryb2tlLXdpZHRoOjEyO3N0cm9rZS1saW5lY2FwOnJvdW5kO3N0cm9rZS1saW5lam9pbjpyb3VuZDtzdHJva2UtbWl0ZXJsaW1pdDoxMDtzdHJva2UtZGFzaGFycmF5Om5vbmU7c3Ryb2tlLW9wYWNpdHk6MSIgZD0ibSA3MzI1LDEwMDgzIDE2MSwxNjEiLz4mI3hhOyAgICAgICAgPHBhdGggaWQ9InBhdGgyNzIiIHN0eWxlPSJmaWxsOm5vbmU7c3Ryb2tlOiMwMDAwMDA7c3Ryb2tlLXdpZHRoOjEyO3N0cm9rZS1saW5lY2FwOnJvdW5kO3N0cm9rZS1saW5lam9pbjpyb3VuZDtzdHJva2UtbWl0ZXJsaW1pdDoxMDtzdHJva2UtZGFzaGFycmF5Om5vbmU7c3Ryb2tlLW9wYWNpdHk6MSIgZD0ibSA3Mjg4LDEwMDQ2IDksOSIvPiYjeGE7ICAgICAgICA8cGF0aCBpZD0icGF0aDI3NCIgc3R5bGU9ImZpbGw6bm9uZTtzdHJva2U6IzAwMDAwMDtzdHJva2Utd2lkdGg6MTI7c3Ryb2tlLWxpbmVjYXA6cm91bmQ7c3Ryb2tlLWxpbmVqb2luOnJvdW5kO3N0cm9rZS1taXRlcmxpbWl0OjEwO3N0cm9rZS1kYXNoYXJyYXk6bm9uZTtzdHJva2Utb3BhY2l0eToxIiBkPSJtIDYxNjMsODcwOSAxMzMsMTMyIi8+JiN4YTsgICAgICAgIDxwYXRoIGlkPSJwYXRoMjc2IiBzdHlsZT0iZmlsbDpub25lO3N0cm9rZTojMDAwMDAwO3N0cm9rZS13aWR0aDoxMjtzdHJva2UtbGluZWNhcDpyb3VuZDtzdHJva2UtbGluZWpvaW46cm91bmQ7c3Ryb2tlLW1pdGVybGltaXQ6MTA7c3Ryb2tlLWRhc2hhcnJheTpub25lO3N0cm9rZS1vcGFjaXR5OjEiIGQ9Im0gNzMyNSw5ODcxIDE2MSwxNjEiLz4mI3hhOyAgICAgICAgPHBhdGggaWQ9InBhdGgyNzgiIHN0eWxlPSJmaWxsOm5vbmU7c3Ryb2tlOiMwMDAwMDA7c3Ryb2tlLXdpZHRoOjEyO3N0cm9rZS1saW5lY2FwOnJvdW5kO3N0cm9rZS1saW5lam9pbjpyb3VuZDtzdHJva2UtbWl0ZXJsaW1pdDoxMDtzdHJva2UtZGFzaGFycmF5Om5vbmU7c3Ryb2tlLW9wYWNpdHk6MSIgZD0ibSA2MTYzLDg0OTcgMTMzLDEzMiIvPiYjeGE7ICAgICAgICA8cGF0aCBpZD0icGF0aDI4MCIgc3R5bGU9ImZpbGw6bm9uZTtzdHJva2U6IzAwMDAwMDtzdHJva2Utd2lkdGg6MTI7c3Ryb2tlLWxpbmVjYXA6cm91bmQ7c3Ryb2tlLWxpbmVqb2luOnJvdW5kO3N0cm9rZS1taXRlcmxpbWl0OjEwO3N0cm9rZS1kYXNoYXJyYXk6bm9uZTtzdHJva2Utb3BhY2l0eToxIiBkPSJtIDczNTQsOTY4NyAxMzIsMTMyIi8+JiN4YTsgICAgICAgIDxwYXRoIGlkPSJwYXRoMjgyIiBzdHlsZT0iZmlsbDpub25lO3N0cm9rZTojMDAwMDAwO3N0cm9rZS13aWR0aDoxMjtzdHJva2UtbGluZWNhcDpyb3VuZDtzdHJva2UtbGluZWpvaW46cm91bmQ7c3Ryb2tlLW1pdGVybGltaXQ6MTA7c3Ryb2tlLWRhc2hhcnJheTpub25lO3N0cm9rZS1vcGFjaXR5OjEiIGQ9Im0gNjM1Miw4Njg2IDEzMiwxMzEiLz4mI3hhOyAgICAgICAgPHBhdGggaWQ9InBhdGgyODQiIHN0eWxlPSJmaWxsOm5vbmU7c3Ryb2tlOiMwMDAwMDA7c3Ryb2tlLXdpZHRoOjEyO3N0cm9rZS1saW5lY2FwOnJvdW5kO3N0cm9rZS1saW5lam9pbjpyb3VuZDtzdHJva2UtbWl0ZXJsaW1pdDoxMDtzdHJva2UtZGFzaGFycmF5Om5vbmU7c3Ryb2tlLW9wYWNpdHk6MSIgZD0ibSA2MTYzLDgyODQgMTMzLDEzMyIvPiYjeGE7ICAgICAgICA8cGF0aCBpZD0icGF0aDI4NiIgc3R5bGU9ImZpbGw6bm9uZTtzdHJva2U6IzAwMDAwMDtzdHJva2Utd2lkdGg6MTI7c3Ryb2tlLWxpbmVjYXA6cm91bmQ7c3Ryb2tlLWxpbmVqb2luOnJvdW5kO3N0cm9rZS1taXRlcmxpbWl0OjEwO3N0cm9rZS1kYXNoYXJyYXk6bm9uZTtzdHJva2Utb3BhY2l0eToxIiBkPSJtIDczNTQsOTQ3NSAxMzIsMTMyIi8+JiN4YTsgICAgICAgIDxwYXRoIGlkPSJwYXRoMjg4IiBzdHlsZT0iZmlsbDpub25lO3N0cm9rZTojMDAwMDAwO3N0cm9rZS13aWR0aDoxMjtzdHJva2UtbGluZWNhcDpyb3VuZDtzdHJva2UtbGluZWpvaW46cm91bmQ7c3Ryb2tlLW1pdGVybGltaXQ6MTA7c3Ryb2tlLWRhc2hhcnJheTpub25lO3N0cm9rZS1vcGFjaXR5OjEiIGQ9Im0gNjUwNyw4NjI4IDM0LDM0Ii8+JiN4YTsgICAgICAgIDxwYXRoIGlkPSJwYXRoMjkwIiBzdHlsZT0iZmlsbDpub25lO3N0cm9rZTojMDAwMDAwO3N0cm9rZS13aWR0aDoxMjtzdHJva2UtbGluZWNhcDpyb3VuZDtzdHJva2UtbGluZWpvaW46cm91bmQ7c3Ryb2tlLW1pdGVybGltaXQ6MTA7c3Ryb2tlLWRhc2hhcnJheTpub25lO3N0cm9rZS1vcGFjaXR5OjEiIGQ9Im0gNzEwOCw5MjI5IDYxLDYxIi8+JiN4YTsgICAgICAgIDxwYXRoIGlkPSJwYXRoMjkyIiBzdHlsZT0iZmlsbDpub25lO3N0cm9rZTojMDAwMDAwO3N0cm9rZS13aWR0aDoxMjtzdHJva2UtbGluZWNhcDpyb3VuZDtzdHJva2UtbGluZWpvaW46cm91bmQ7c3Ryb2tlLW1pdGVybGltaXQ6MTA7c3Ryb2tlLWRhc2hhcnJheTpub25lO3N0cm9rZS1vcGFjaXR5OjEiIGQ9Im0gNjE2Myw4MDcyIDEzMywxMzMiLz4mI3hhOyAgICAgICAgPHBhdGggaWQ9InBhdGgyOTQiIHN0eWxlPSJmaWxsOm5vbmU7c3Ryb2tlOiMwMDAwMDA7c3Ryb2tlLXdpZHRoOjEyO3N0cm9rZS1saW5lY2FwOnJvdW5kO3N0cm9rZS1saW5lam9pbjpyb3VuZDtzdHJva2UtbWl0ZXJsaW1pdDoxMDtzdHJva2UtZGFzaGFycmF5Om5vbmU7c3Ryb2tlLW9wYWNpdHk6MSIgZD0ibSA3MzU0LDkyNjMgMTMyLDEzMiIvPiYjeGE7ICAgICAgICA8cGF0aCBpZD0icGF0aDI5NiIgc3R5bGU9ImZpbGw6bm9uZTtzdHJva2U6IzAwMDAwMDtzdHJva2Utd2lkdGg6MTI7c3Ryb2tlLWxpbmVjYXA6cm91bmQ7c3Ryb2tlLWxpbmVqb2luOnJvdW5kO3N0cm9rZS1taXRlcmxpbWl0OjEwO3N0cm9rZS1kYXNoYXJyYXk6bm9uZTtzdHJva2Utb3BhY2l0eToxIiBkPSJtIDcxOTIsOTEwMSAxMDUsMTA1Ii8+JiN4YTsgICAgICAgIDxwYXRoIGlkPSJwYXRoMjk4IiBzdHlsZT0iZmlsbDpub25lO3N0cm9rZTojMDAwMDAwO3N0cm9rZS13aWR0aDoxMjtzdHJva2UtbGluZWNhcDpyb3VuZDtzdHJva2UtbGluZWpvaW46cm91bmQ7c3Ryb2tlLW1pdGVybGltaXQ6MTA7c3Ryb2tlLWRhc2hhcnJheTpub25lO3N0cm9rZS1vcGFjaXR5OjEiIGQ9Im0gNjE3MSw3ODY4IDMzNSwzMzUiLz4mI3hhOyAgICAgICAgPHBhdGggaWQ9InBhdGgzMDAiIHN0eWxlPSJmaWxsOm5vbmU7c3Ryb2tlOiMwMDAwMDA7c3Ryb2tlLXdpZHRoOjEyO3N0cm9rZS1saW5lY2FwOnJvdW5kO3N0cm9rZS1saW5lam9pbjpyb3VuZDtzdHJva2UtbWl0ZXJsaW1pdDoxMDtzdHJva2UtZGFzaGFycmF5Om5vbmU7c3Ryb2tlLW9wYWNpdHk6MSIgZD0ibSA3MzU0LDkwNTEgMTMyLDEzMiIvPiYjeGE7ICAgICAgICA8cGF0aCBpZD0icGF0aDMwMiIgc3R5bGU9ImZpbGw6bm9uZTtzdHJva2U6IzAwMDAwMDtzdHJva2Utd2lkdGg6MTI7c3Ryb2tlLWxpbmVjYXA6cm91bmQ7c3Ryb2tlLWxpbmVqb2luOnJvdW5kO3N0cm9rZS1taXRlcmxpbWl0OjEwO3N0cm9rZS1kYXNoYXJyYXk6bm9uZTtzdHJva2Utb3BhY2l0eToxIiBkPSJtIDYzNDEsNzgyNSAzNzcsMzc4Ii8+JiN4YTsgICAgICAgIDxwYXRoIGlkPSJwYXRoMzA0IiBzdHlsZT0iZmlsbDpub25lO3N0cm9rZTojMDAwMDAwO3N0cm9rZS13aWR0aDoxMjtzdHJva2UtbGluZWNhcDpyb3VuZDtzdHJva2UtbGluZWpvaW46cm91bmQ7c3Ryb2tlLW1pdGVybGltaXQ6MTA7c3Ryb2tlLWRhc2hhcnJheTpub25lO3N0cm9rZS1vcGFjaXR5OjEiIGQ9Im0gNzM1NCw4ODM5IDEzMiwxMzIiLz4mI3hhOyAgICAgICAgPHBhdGggaWQ9InBhdGgzMDYiIHN0eWxlPSJmaWxsOm5vbmU7c3Ryb2tlOiMwMDAwMDA7c3Ryb2tlLXdpZHRoOjEyO3N0cm9rZS1saW5lY2FwOnJvdW5kO3N0cm9rZS1saW5lam9pbjpyb3VuZDtzdHJva2UtbWl0ZXJsaW1pdDoxMDtzdHJva2UtZGFzaGFycmF5Om5vbmU7c3Ryb2tlLW9wYWNpdHk6MSIgZD0ibSA2NTUzLDc4MjUgMzc4LDM3OCIvPiYjeGE7ICAgICAgICA8cGF0aCBpZD0icGF0aDMwOCIgc3R5bGU9ImZpbGw6bm9uZTtzdHJva2U6IzAwMDAwMDtzdHJva2Utd2lkdGg6MTI7c3Ryb2tlLWxpbmVjYXA6cm91bmQ7c3Ryb2tlLWxpbmVqb2luOnJvdW5kO3N0cm9rZS1taXRlcmxpbWl0OjEwO3N0cm9rZS1kYXNoYXJyYXk6bm9uZTtzdHJva2Utb3BhY2l0eToxIiBkPSJtIDczNTQsODYyNyAxMzIsMTMyIi8+JiN4YTsgICAgICAgIDxwYXRoIGlkPSJwYXRoMzEwIiBzdHlsZT0iZmlsbDpub25lO3N0cm9rZTojMDAwMDAwO3N0cm9rZS13aWR0aDoxMjtzdHJva2UtbGluZWNhcDpyb3VuZDtzdHJva2UtbGluZWpvaW46cm91bmQ7c3Ryb2tlLW1pdGVybGltaXQ6MTA7c3Ryb2tlLWRhc2hhcnJheTpub25lO3N0cm9rZS1vcGFjaXR5OjEiIGQ9Im0gNjc2NSw3ODI1IDUxOSw1MjAiLz4mI3hhOyAgICAgICAgPHBhdGggaWQ9InBhdGgzMTIiIHN0eWxlPSJmaWxsOm5vbmU7c3Ryb2tlOiMwMDAwMDA7c3Ryb2tlLXdpZHRoOjEyO3N0cm9rZS1saW5lY2FwOnJvdW5kO3N0cm9rZS1saW5lam9pbjpyb3VuZDtzdHJva2UtbWl0ZXJsaW1pdDoxMDtzdHJva2UtZGFzaGFycmF5Om5vbmU7c3Ryb2tlLW9wYWNpdHk6MSIgZD0ibSA3MzU0LDg0MTQgMTMyLDEzMyIvPiYjeGE7ICAgICAgICA8cGF0aCBpZD0icGF0aDMxNCIgc3R5bGU9ImZpbGw6bm9uZTtzdHJva2U6IzAwMDAwMDtzdHJva2Utd2lkdGg6MTI7c3Ryb2tlLWxpbmVjYXA6cm91bmQ7c3Ryb2tlLWxpbmVqb2luOnJvdW5kO3N0cm9rZS1taXRlcmxpbWl0OjEwO3N0cm9rZS1kYXNoYXJyYXk6bm9uZTtzdHJva2Utb3BhY2l0eToxIiBkPSJtIDY5NzcsNzgyNSA1MDksNTEwIi8+JiN4YTsgICAgICAgIDxwYXRoIGlkPSJwYXRoMzE2IiBzdHlsZT0iZmlsbDpub25lO3N0cm9rZTojMDAwMDAwO3N0cm9rZS13aWR0aDoxMjtzdHJva2UtbGluZWNhcDpyb3VuZDtzdHJva2UtbGluZWpvaW46cm91bmQ7c3Ryb2tlLW1pdGVybGltaXQ6MTA7c3Ryb2tlLWRhc2hhcnJheTpub25lO3N0cm9rZS1vcGFjaXR5OjEiIGQ9Im0gNzE4OSw3ODI1IDI5NywyOTciLz4mI3hhOyAgICAgICAgPHBhdGggaWQ9InBhdGgzMTgiIHN0eWxlPSJmaWxsOm5vbmU7c3Ryb2tlOiMwMDAwMDA7c3Ryb2tlLXdpZHRoOjEyO3N0cm9rZS1saW5lY2FwOnJvdW5kO3N0cm9rZS1saW5lam9pbjpyb3VuZDtzdHJva2UtbWl0ZXJsaW1pdDoxMDtzdHJva2UtZGFzaGFycmF5Om5vbmU7c3Ryb2tlLW9wYWNpdHk6MSIgZD0ibSA3NDAxLDc4MjUgODUsODUiLz4mI3hhOyAgICAgICAgPHBhdGggaWQ9InBhdGgzMjAiIHN0eWxlPSJmaWxsOm5vbmU7c3Ryb2tlOiMwMDAwMDA7c3Ryb2tlLXdpZHRoOjEyO3N0cm9rZS1saW5lY2FwOnJvdW5kO3N0cm9rZS1saW5lam9pbjpyb3VuZDtzdHJva2UtbWl0ZXJsaW1pdDoxMDtzdHJva2UtZGFzaGFycmF5Om5vbmU7c3Ryb2tlLW9wYWNpdHk6MSIgZD0ibSA2NTAwLDk2MjEgLTE3NiwxNzYiLz4mI3hhOyAgICAgICAgPHBhdGggaWQ9InBhdGgzMjIiIHN0eWxlPSJmaWxsOm5vbmU7c3Ryb2tlOiMwMDAwMDA7c3Ryb2tlLXdpZHRoOjEyO3N0cm9rZS1saW5lY2FwOnJvdW5kO3N0cm9rZS1saW5lam9pbjpyb3VuZDtzdHJva2UtbWl0ZXJsaW1pdDoxMDtzdHJva2UtZGFzaGFycmF5Om5vbmU7c3Ryb2tlLW9wYWNpdHk6MSIgZD0ibSA2NzEyLDk2MjEgLTM2MCwzNTkiLz4mI3hhOyAgICAgICAgPHBhdGggaWQ9InBhdGgzMjQiIHN0eWxlPSJmaWxsOm5vbmU7c3Ryb2tlOiMwMDAwMDA7c3Ryb2tlLXdpZHRoOjEyO3N0cm9rZS1saW5lY2FwOnJvdW5kO3N0cm9rZS1saW5lam9pbjpyb3VuZDtzdHJva2UtbWl0ZXJsaW1pdDoxMDtzdHJva2UtZGFzaGFycmF5Om5vbmU7c3Ryb2tlLW9wYWNpdHk6MSIgZD0ibSA2OTI0LDk2MjEgLTU3Miw1NzEiLz4mI3hhOyAgICAgICAgPHBhdGggaWQ9InBhdGgzMjYiIHN0eWxlPSJmaWxsOm5vbmU7c3Ryb2tlOiMwMDAwMDA7c3Ryb2tlLXdpZHRoOjEyO3N0cm9rZS1saW5lY2FwOnJvdW5kO3N0cm9rZS1saW5lam9pbjpyb3VuZDtzdHJva2UtbWl0ZXJsaW1pdDoxMDtzdHJva2UtZGFzaGFycmF5Om5vbmU7c3Ryb2tlLW9wYWNpdHk6MSIgZD0ibSA3MTM2LDk2MjEgLTc4NCw3ODQiLz4mI3hhOyAgICAgICAgPHBhdGggaWQ9InBhdGgzMjgiIHN0eWxlPSJmaWxsOm5vbmU7c3Ryb2tlOiMwMDAwMDA7c3Ryb2tlLXdpZHRoOjEyO3N0cm9rZS1saW5lY2FwOnJvdW5kO3N0cm9rZS1saW5lam9pbjpyb3VuZDtzdHJva2UtbWl0ZXJsaW1pdDoxMDtzdHJva2UtZGFzaGFycmF5Om5vbmU7c3Ryb2tlLW9wYWNpdHk6MSIgZD0ibSA3MzE0LDk2NTUgLTk2Miw5NjIiLz4mI3hhOyAgICAgICAgPHBhdGggaWQ9InBhdGgzMzAiIHN0eWxlPSJmaWxsOm5vbmU7c3Ryb2tlOiMwMDAwMDA7c3Ryb2tlLXdpZHRoOjEyO3N0cm9rZS1saW5lY2FwOnJvdW5kO3N0cm9rZS1saW5lam9pbjpyb3VuZDtzdHJva2UtbWl0ZXJsaW1pdDoxMDtzdHJva2UtZGFzaGFycmF5Om5vbmU7c3Ryb2tlLW9wYWNpdHk6MSIgZD0ibSA3Mjk3LDk4ODQgLTk0NSw5NDUiLz4mI3hhOyAgICAgICAgPHBhdGggaWQ9InBhdGgzMzIiIHN0eWxlPSJmaWxsOm5vbmU7c3Ryb2tlOiMwMDAwMDA7c3Ryb2tlLXdpZHRoOjEyO3N0cm9rZS1saW5lY2FwOnJvdW5kO3N0cm9rZS1saW5lam9pbjpyb3VuZDtzdHJva2UtbWl0ZXJsaW1pdDoxMDtzdHJva2UtZGFzaGFycmF5Om5vbmU7c3Ryb2tlLW9wYWNpdHk6MSIgZD0ibSA3Mjk3LDEwMDk2IC05NDUsOTQ1Ii8+JiN4YTsgICAgICAgIDxwYXRoIGlkPSJwYXRoMzM0IiBzdHlsZT0iZmlsbDpub25lO3N0cm9rZTojMDAwMDAwO3N0cm9rZS13aWR0aDoxMjtzdHJva2UtbGluZWNhcDpyb3VuZDtzdHJva2UtbGluZWpvaW46cm91bmQ7c3Ryb2tlLW1pdGVybGltaXQ6MTA7c3Ryb2tlLWRhc2hhcnJheTpub25lO3N0cm9rZS1vcGFjaXR5OjEiIGQ9Im0gNzI5NywxMDMwOCAtOTQ1LDk0NSIvPiYjeGE7ICAgICAgICA8cGF0aCBpZD0icGF0aDMzNiIgc3R5bGU9ImZpbGw6bm9uZTtzdHJva2U6IzAwMDAwMDtzdHJva2Utd2lkdGg6MTI7c3Ryb2tlLWxpbmVjYXA6cm91bmQ7c3Ryb2tlLWxpbmVqb2luOnJvdW5kO3N0cm9rZS1taXRlcmxpbWl0OjEwO3N0cm9rZS1kYXNoYXJyYXk6bm9uZTtzdHJva2Utb3BhY2l0eToxIiBkPSJtIDcyOTcsMTA1MjAgLTk0NSw5NDUiLz4mI3hhOyAgICAgICAgPHBhdGggaWQ9InBhdGgzMzgiIHN0eWxlPSJmaWxsOm5vbmU7c3Ryb2tlOiMwMDAwMDA7c3Ryb2tlLXdpZHRoOjEyO3N0cm9rZS1saW5lY2FwOnJvdW5kO3N0cm9rZS1saW5lam9pbjpyb3VuZDtzdHJva2UtbWl0ZXJsaW1pdDoxMDtzdHJva2UtZGFzaGFycmF5Om5vbmU7c3Ryb2tlLW9wYWNpdHk6MSIgZD0ibSA3Mjk3LDEwNzMzIC05NTgsOTU4Ii8+JiN4YTsgICAgICAgIDxwYXRoIGlkPSJwYXRoMzQwIiBzdHlsZT0iZmlsbDpub25lO3N0cm9rZTojMDAwMDAwO3N0cm9rZS13aWR0aDoxMjtzdHJva2UtbGluZWNhcDpyb3VuZDtzdHJva2UtbGluZWpvaW46cm91bmQ7c3Ryb2tlLW1pdGVybGltaXQ6MTA7c3Ryb2tlLWRhc2hhcnJheTpub25lO3N0cm9rZS1vcGFjaXR5OjEiIGQ9Im0gNjE1NSwxMTg3NSAtMTMzLDEzMyIvPiYjeGE7ICAgICAgICA8cGF0aCBpZD0icGF0aDM0MiIgc3R5bGU9ImZpbGw6bm9uZTtzdHJva2U6IzAwMDAwMDtzdHJva2Utd2lkdGg6MTI7c3Ryb2tlLWxpbmVjYXA6cm91bmQ7c3Ryb2tlLWxpbmVqb2luOnJvdW5kO3N0cm9rZS1taXRlcmxpbWl0OjEwO3N0cm9rZS1kYXNoYXJyYXk6bm9uZTtzdHJva2Utb3BhY2l0eToxIiBkPSJNIDcyOTcsMTA5NDUgNjAyMiwxMjIyMCIvPiYjeGE7ICAgICAgICA8cGF0aCBpZD0icGF0aDM0NCIgc3R5bGU9ImZpbGw6bm9uZTtzdHJva2U6IzAwMDAwMDtzdHJva2Utd2lkdGg6MTI7c3Ryb2tlLWxpbmVjYXA6cm91bmQ7c3Ryb2tlLWxpbmVqb2luOnJvdW5kO3N0cm9rZS1taXRlcmxpbWl0OjEwO3N0cm9rZS1kYXNoYXJyYXk6bm9uZTtzdHJva2Utb3BhY2l0eToxIiBkPSJNIDcyOTcsMTExNTcgNjEwOSwxMjM0NSIvPiYjeGE7ICAgICAgICA8cGF0aCBpZD0icGF0aDM0NiIgc3R5bGU9ImZpbGw6bm9uZTtzdHJva2U6IzAwMDAwMDtzdHJva2Utd2lkdGg6MTI7c3Ryb2tlLWxpbmVjYXA6cm91bmQ7c3Ryb2tlLWxpbmVqb2luOnJvdW5kO3N0cm9rZS1taXRlcmxpbWl0OjEwO3N0cm9rZS1kYXNoYXJyYXk6bm9uZTtzdHJva2Utb3BhY2l0eToxIiBkPSJNIDcyOTcsMTEzNjkgNjIyMSwxMjQ0NSIvPiYjeGE7ICAgICAgICA8cGF0aCBpZD0icGF0aDM0OCIgc3R5bGU9ImZpbGw6bm9uZTtzdHJva2U6IzAwMDAwMDtzdHJva2Utd2lkdGg6MTI7c3Ryb2tlLWxpbmVjYXA6cm91bmQ7c3Ryb2tlLWxpbmVqb2luOnJvdW5kO3N0cm9rZS1taXRlcmxpbWl0OjEwO3N0cm9rZS1kYXNoYXJyYXk6bm9uZTtzdHJva2Utb3BhY2l0eToxIiBkPSJtIDcyOTcsMTE1ODEgLTg3NCw4NzQiLz4mI3hhOyAgICAgICAgPHBhdGggaWQ9InBhdGgzNTAiIHN0eWxlPSJmaWxsOm5vbmU7c3Ryb2tlOiMwMDAwMDA7c3Ryb2tlLXdpZHRoOjEyO3N0cm9rZS1saW5lY2FwOnJvdW5kO3N0cm9rZS1saW5lam9pbjpyb3VuZDtzdHJva2UtbWl0ZXJsaW1pdDoxMDtzdHJva2UtZGFzaGFycmF5Om5vbmU7c3Ryb2tlLW9wYWNpdHk6MSIgZD0ibSA3MzM4LDExNzUyIC03MDMsNzAzIi8+JiN4YTsgICAgICAgIDxwYXRoIGlkPSJwYXRoMzUyIiBzdHlsZT0iZmlsbDpub25lO3N0cm9rZTojMDAwMDAwO3N0cm9rZS13aWR0aDoxMjtzdHJva2UtbGluZWNhcDpyb3VuZDtzdHJva2UtbGluZWpvaW46cm91bmQ7c3Ryb2tlLW1pdGVybGltaXQ6MTA7c3Ryb2tlLWRhc2hhcnJheTpub25lO3N0cm9rZS1vcGFjaXR5OjEiIGQ9Im0gNzQ0NywxMTg1NSAtNjAwLDYwMCIvPiYjeGE7ICAgICAgICA8cGF0aCBpZD0icGF0aDM1NCIgc3R5bGU9ImZpbGw6bm9uZTtzdHJva2U6IzAwMDAwMDtzdHJva2Utd2lkdGg6MTI7c3Ryb2tlLWxpbmVjYXA6cm91bmQ7c3Ryb2tlLWxpbmVqb2luOnJvdW5kO3N0cm9rZS1taXRlcmxpbWl0OjEwO3N0cm9rZS1kYXNoYXJyYXk6bm9uZTtzdHJva2Utb3BhY2l0eToxIiBkPSJtIDc2MjYsMTE4ODggLTU2Nyw1NjciLz4mI3hhOyAgICAgICAgPHBhdGggaWQ9InBhdGgzNTYiIHN0eWxlPSJmaWxsOm5vbmU7c3Ryb2tlOiMwMDAwMDA7c3Ryb2tlLXdpZHRoOjEyO3N0cm9rZS1saW5lY2FwOnJvdW5kO3N0cm9rZS1saW5lam9pbjpyb3VuZDtzdHJva2UtbWl0ZXJsaW1pdDoxMDtzdHJva2UtZGFzaGFycmF5Om5vbmU7c3Ryb2tlLW9wYWNpdHk6MSIgZD0ibSA3ODIyLDExOTA0IC01NTAsNTUxIi8+JiN4YTsgICAgICAgIDxwYXRoIGlkPSJwYXRoMzU4IiBzdHlsZT0iZmlsbDpub25lO3N0cm9rZTojMDAwMDAwO3N0cm9rZS13aWR0aDoxMjtzdHJva2UtbGluZWNhcDpyb3VuZDtzdHJva2UtbGluZWpvaW46cm91bmQ7c3Ryb2tlLW1pdGVybGltaXQ6MTA7c3Ryb2tlLWRhc2hhcnJheTpub25lO3N0cm9rZS1vcGFjaXR5OjEiIGQ9Im0gNzg2NCwxMjA3NSAtMzgwLDM4MCIvPiYjeGE7ICAgICAgICA8cGF0aCBpZD0icGF0aDM2MCIgc3R5bGU9ImZpbGw6bm9uZTtzdHJva2U6IzAwMDAwMDtzdHJva2Utd2lkdGg6MjQ7c3Ryb2tlLWxpbmVjYXA6cm91bmQ7c3Ryb2tlLWxpbmVqb2luOnJvdW5kO3N0cm9rZS1taXRlcmxpbWl0OjEwO3N0cm9rZS1kYXNoYXJyYXk6bm9uZTtzdHJva2Utb3BhY2l0eToxIiBkPSJtIDI3NjIsMTI1NzMgdiAtMjM2Ii8+JiN4YTsgICAgICAgIDxwYXRoIGlkPSJwYXRoMzYyIiBzdHlsZT0iZmlsbDpub25lO3N0cm9rZTojMDAwMDAwO3N0cm9rZS13aWR0aDoyNDtzdHJva2UtbGluZWNhcDpyb3VuZDtzdHJva2UtbGluZWpvaW46cm91bmQ7c3Ryb2tlLW1pdGVybGltaXQ6MTA7c3Ryb2tlLWRhc2hhcnJheTpub25lO3N0cm9rZS1vcGFjaXR5OjEiIGQ9Im0gMjc2Miw3NzA3IHYgMjM2Ii8+JiN4YTsgICAgICAgIDxwYXRoIGlkPSJwYXRoMzY0IiBzdHlsZT0iZmlsbDpub25lO3N0cm9rZTojMDAwMDAwO3N0cm9rZS13aWR0aDoxMjtzdHJva2UtbGluZWNhcDpyb3VuZDtzdHJva2UtbGluZWpvaW46cm91bmQ7c3Ryb2tlLW1pdGVybGltaXQ6MTA7c3Ryb2tlLWRhc2hhcnJheTpub25lO3N0cm9rZS1vcGFjaXR5OjEiIGQ9Im0gMjc2MiwxMjMzNyB2IC01MDkiLz4mI3hhOyAgICAgICAgPHBhdGggaWQ9InBhdGgzNjYiIHN0eWxlPSJmaWxsOm5vbmU7c3Ryb2tlOiMwMDAwMDA7c3Ryb2tlLXdpZHRoOjEyO3N0cm9rZS1saW5lY2FwOnJvdW5kO3N0cm9rZS1saW5lam9pbjpyb3VuZDtzdHJva2UtbWl0ZXJsaW1pdDoxMDtzdHJva2UtZGFzaGFycmF5Om5vbmU7c3Ryb2tlLW9wYWNpdHk6MSIgZD0ibSAyNzYyLDExNzE1IHYgLTExMiIvPiYjeGE7ICAgICAgICA8cGF0aCBpZD0icGF0aDM2OCIgc3R5bGU9ImZpbGw6bm9uZTtzdHJva2U6IzAwMDAwMDtzdHJva2Utd2lkdGg6MTI7c3Ryb2tlLWxpbmVjYXA6cm91bmQ7c3Ryb2tlLWxpbmVqb2luOnJvdW5kO3N0cm9rZS1taXRlcmxpbWl0OjEwO3N0cm9rZS1kYXNoYXJyYXk6bm9uZTtzdHJva2Utb3BhY2l0eToxIiBkPSJtIDI3NjIsMTE0OTAgdiAtNjc1Ii8+JiN4YTsgICAgICAgIDxwYXRoIGlkPSJwYXRoMzcwIiBzdHlsZT0iZmlsbDpub25lO3N0cm9rZTojMDAwMDAwO3N0cm9rZS13aWR0aDoxMjtzdHJva2UtbGluZWNhcDpyb3VuZDtzdHJva2UtbGluZWpvaW46cm91bmQ7c3Ryb2tlLW1pdGVybGltaXQ6MTA7c3Ryb2tlLWRhc2hhcnJheTpub25lO3N0cm9rZS1vcGFjaXR5OjEiIGQ9Im0gMjc2MiwxMDcwMyB2IC0xMTMiLz4mI3hhOyAgICAgICAgPHBhdGggaWQ9InBhdGgzNzIiIHN0eWxlPSJmaWxsOm5vbmU7c3Ryb2tlOiMwMDAwMDA7c3Ryb2tlLXdpZHRoOjEyO3N0cm9rZS1saW5lY2FwOnJvdW5kO3N0cm9rZS1saW5lam9pbjpyb3VuZDtzdHJva2UtbWl0ZXJsaW1pdDoxMDtzdHJva2UtZGFzaGFycmF5Om5vbmU7c3Ryb2tlLW9wYWNpdHk6MSIgZD0iTSAyNzYyLDEwNDc4IFYgOTgwMyIvPiYjeGE7ICAgICAgICA8cGF0aCBpZD0icGF0aDM3NCIgc3R5bGU9ImZpbGw6bm9uZTtzdHJva2U6IzAwMDAwMDtzdHJva2Utd2lkdGg6MTI7c3Ryb2tlLWxpbmVjYXA6cm91bmQ7c3Ryb2tlLWxpbmVqb2luOnJvdW5kO3N0cm9rZS1taXRlcmxpbWl0OjEwO3N0cm9rZS1kYXNoYXJyYXk6bm9uZTtzdHJva2Utb3BhY2l0eToxIiBkPSJNIDI3NjIsOTY5MCBWIDk1NzgiLz4mI3hhOyAgICAgICAgPHBhdGggaWQ9InBhdGgzNzYiIHN0eWxlPSJmaWxsOm5vbmU7c3Ryb2tlOiMwMDAwMDA7c3Ryb2tlLXdpZHRoOjEyO3N0cm9rZS1saW5lY2FwOnJvdW5kO3N0cm9rZS1saW5lam9pbjpyb3VuZDtzdHJva2UtbWl0ZXJsaW1pdDoxMDtzdHJva2UtZGFzaGFycmF5Om5vbmU7c3Ryb2tlLW9wYWNpdHk6MSIgZD0iTSAyNzYyLDk0NjUgViA4NzkwIi8+JiN4YTsgICAgICAgIDxwYXRoIGlkPSJwYXRoMzc4IiBzdHlsZT0iZmlsbDpub25lO3N0cm9rZTojMDAwMDAwO3N0cm9rZS13aWR0aDoxMjtzdHJva2UtbGluZWNhcDpyb3VuZDtzdHJva2UtbGluZWpvaW46cm91bmQ7c3Ryb2tlLW1pdGVybGltaXQ6MTA7c3Ryb2tlLWRhc2hhcnJheTpub25lO3N0cm9rZS1vcGFjaXR5OjEiIGQ9Ik0gMjc2Miw4Njc4IFYgODU2NSIvPiYjeGE7ICAgICAgICA8cGF0aCBpZD0icGF0aDM4MCIgc3R5bGU9ImZpbGw6bm9uZTtzdHJva2U6IzAwMDAwMDtzdHJva2Utd2lkdGg6MTI7c3Ryb2tlLWxpbmVjYXA6cm91bmQ7c3Ryb2tlLWxpbmVqb2luOnJvdW5kO3N0cm9rZS1taXRlcmxpbWl0OjEwO3N0cm9rZS1kYXNoYXJyYXk6bm9uZTtzdHJva2Utb3BhY2l0eToxIiBkPSJNIDI3NjIsODQ1MyBWIDc5NDMiLz4mI3hhOyAgICAgICAgPHBhdGggaWQ9InBhdGgzODIiIHN0eWxlPSJmaWxsOm5vbmU7c3Ryb2tlOiMwMDAwMDA7c3Ryb2tlLXdpZHRoOjEyO3N0cm9rZS1saW5lY2FwOnJvdW5kO3N0cm9rZS1saW5lam9pbjpyb3VuZDtzdHJva2UtbWl0ZXJsaW1pdDoxMDtzdHJva2UtZGFzaGFycmF5Om5vbmU7c3Ryb2tlLW9wYWNpdHk6MSIgZD0iTSAyNTI2LDEyNDU1IEggMjI5MCIvPiYjeGE7ICAgICAgICA8ZyBpZD0iZzM4NCI+JiN4YTsgICAgICAgICAgPHBhdGggaWQ9InBhdGgzODYiIHN0eWxlPSJmaWxsOiMwMDAwMDA7ZmlsbC1vcGFjaXR5OjE7ZmlsbC1ydWxlOm5vbnplcm87c3Ryb2tlOiMwMDAwMDA7c3Ryb2tlLXdpZHRoOjEyLjU7c3Ryb2tlLWxpbmVjYXA6cm91bmQ7c3Ryb2tlLWxpbmVqb2luOm1pdGVyO3N0cm9rZS1taXRlcmxpbWl0OjEwO3N0cm9rZS1kYXNoYXJyYXk6bm9uZTtzdHJva2Utb3BhY2l0eToxIiBkPSJtIDI1MjYsMTI0OTQgMjM2LC0zOSAtMjM2LC0zOSB6Ii8+JiN4YTsgICAgICAgIDwvZz4mI3hhOyAgICAgICAgPHBhdGggaWQ9InBhdGgzODgiIHN0eWxlPSJmaWxsOm5vbmU7c3Ryb2tlOiMwMDAwMDA7c3Ryb2tlLXdpZHRoOjEyO3N0cm9rZS1saW5lY2FwOnJvdW5kO3N0cm9rZS1saW5lam9pbjpyb3VuZDtzdHJva2UtbWl0ZXJsaW1pdDoxMDtzdHJva2UtZGFzaGFycmF5Om5vbmU7c3Ryb2tlLW9wYWNpdHk6MSIgZD0iTSAyNTI2LDc4MjUgSCAyMjkwIi8+JiN4YTsgICAgICAgIDxnIGlkPSJnMzkwIj4mI3hhOyAgICAgICAgICA8cGF0aCBpZD0icGF0aDM5MiIgc3R5bGU9ImZpbGw6IzAwMDAwMDtmaWxsLW9wYWNpdHk6MTtmaWxsLXJ1bGU6bm9uemVybztzdHJva2U6IzAwMDAwMDtzdHJva2Utd2lkdGg6MTIuNTtzdHJva2UtbGluZWNhcDpyb3VuZDtzdHJva2UtbGluZWpvaW46bWl0ZXI7c3Ryb2tlLW1pdGVybGltaXQ6MTA7c3Ryb2tlLWRhc2hhcnJheTpub25lO3N0cm9rZS1vcGFjaXR5OjEiIGQ9Im0gMjUyNiw3ODY1IDIzNiwtNDAgLTIzNiwtMzkgeiIvPiYjeGE7ICAgICAgICA8L2c+JiN4YTsgICAgICA8L2c+JiN4YTsgICAgPC9nPiYjeGE7ICAgIDxnIGlkPSJnMzk0Ij4mI3hhOyAgICAgIDxnIGNsaXAtcGF0aD0idXJsKCNjbGlwUGF0aDQwMCkiIGlkPSJnMzk2Ij4mI3hhOyAgICAgICAgPHRleHQgaWQ9InRleHQ0MDQiIHN0eWxlPSJmb250LXZhcmlhbnQ6bm9ybWFsO2ZvbnQtd2VpZ2h0Om5vcm1hbDtmb250LXNpemU6MzI5Ljk4OHB4O2ZvbnQtZmFtaWx5OkFyaWFsOy1pbmtzY2FwZS1mb250LXNwZWNpZmljYXRpb246QXJpYWxNVDt3cml0aW5nLW1vZGU6bHItdGI7ZmlsbDojMDAwMDAwO2ZpbGwtb3BhY2l0eToxO2ZpbGwtcnVsZTpub256ZXJvO3N0cm9rZTpub25lIiB0cmFuc2Zvcm09Im1hdHJpeCgxLDAsMCwtMSwyNzYyLDEyNjY4KSIgeG1sOnNwYWNlPSJwcmVzZXJ2ZSI+PHRzcGFuIGlkPSJ0c3BhbjQwMiIgeT0iMCIgeD0iMCI+4oCJPC90c3Bhbj48L3RleHQ+JiN4YTsgICAgICA8L2c+JiN4YTsgICAgPC9nPiYjeGE7ICAgIDxnIGlkPSJnNDA2Ij4mI3hhOyAgICAgIDxnIGNsaXAtcGF0aD0idXJsKCNjbGlwUGF0aDQxMikiIGlkPSJnNDA4Ij4mI3hhOyAgICAgICAgPHRleHQgaWQ9InRleHQ0MTYiIHN0eWxlPSJmb250LXZhcmlhbnQ6bm9ybWFsO2ZvbnQtd2VpZ2h0Om5vcm1hbDtmb250LXNpemU6MzI5Ljk4OHB4O2ZvbnQtZmFtaWx5OkFyaWFsOy1pbmtzY2FwZS1mb250LXNwZWNpZmljYXRpb246QXJpYWxNVDt3cml0aW5nLW1vZGU6bHItdGI7ZmlsbDojMDAwMDAwO2ZpbGwtb3BhY2l0eToxO2ZpbGwtcnVsZTpub256ZXJvO3N0cm9rZTpub25lIiB0cmFuc2Zvcm09Im1hdHJpeCgxLDAsMCwtMSwyNzYyLDczNzcpIiB4bWw6c3BhY2U9InByZXNlcnZlIj48dHNwYW4gaWQ9InRzcGFuNDE0IiB5PSIwIiB4PSIwIj7igIk8L3RzcGFuPjwvdGV4dD4mI3hhOyAgICAgICAgPHBhdGggaWQ9InBhdGg0MTgiIHN0eWxlPSJmaWxsOm5vbmU7c3Ryb2tlOiMwMDAwMDA7c3Ryb2tlLXdpZHRoOjEyO3N0cm9rZS1saW5lY2FwOnJvdW5kO3N0cm9rZS1saW5lam9pbjpyb3VuZDtzdHJva2UtbWl0ZXJsaW1pdDoxMDtzdHJva2UtZGFzaGFycmF5Om5vbmU7c3Ryb2tlLW9wYWNpdHk6MSIgZD0iTSAyMTkxLDEyNDU1IEggMTY5NCIvPiYjeGE7ICAgICAgICA8cGF0aCBpZD0icGF0aDQyMCIgc3R5bGU9ImZpbGw6bm9uZTtzdHJva2U6IzAwMDAwMDtzdHJva2Utd2lkdGg6MTI7c3Ryb2tlLWxpbmVjYXA6cm91bmQ7c3Ryb2tlLWxpbmVqb2luOnJvdW5kO3N0cm9rZS1taXRlcmxpbWl0OjEwO3N0cm9rZS1kYXNoYXJyYXk6bm9uZTtzdHJva2Utb3BhY2l0eToxIiBkPSJNIDIxOTEsNzgyNSBIIDE2OTQiLz4mI3hhOyAgICAgICAgPHBhdGggaWQ9InBhdGg0MjIiIHN0eWxlPSJmaWxsOm5vbmU7c3Ryb2tlOiMwMDAwMDA7c3Ryb2tlLXdpZHRoOjEyO3N0cm9rZS1saW5lY2FwOnJvdW5kO3N0cm9rZS1saW5lam9pbjpyb3VuZDtzdHJva2UtbWl0ZXJsaW1pdDoxMDtzdHJva2UtZGFzaGFycmF5Om5vbmU7c3Ryb2tlLW9wYWNpdHk6MSIgZD0iTSAxNzk0LDEyMjkwIFYgNzk5MSIvPiYjeGE7ICAgICAgICA8ZyBpZD0iZzQyNCI+JiN4YTsgICAgICAgICAgPHBhdGggaWQ9InBhdGg0MjYiIHN0eWxlPSJmaWxsOiMwMDAwMDA7ZmlsbC1vcGFjaXR5OjE7ZmlsbC1ydWxlOm5vbnplcm87c3Ryb2tlOiMwMDAwMDA7c3Ryb2tlLXdpZHRoOjEyLjU7c3Ryb2tlLWxpbmVjYXA6cm91bmQ7c3Ryb2tlLWxpbmVqb2luOm1pdGVyO3N0cm9rZS1taXRlcmxpbWl0OjEwO3N0cm9rZS1kYXNoYXJyYXk6bm9uZTtzdHJva2Utb3BhY2l0eToxIiBkPSJtIDE3NjYsMTIyOTAgaCA1NSBsIC0yNywxNjUgeiIvPiYjeGE7ICAgICAgICA8L2c+JiN4YTsgICAgICAgIDxnIGlkPSJnNDI4Ij4mI3hhOyAgICAgICAgICA8cGF0aCBpZD0icGF0aDQzMCIgc3R5bGU9ImZpbGw6IzAwMDAwMDtmaWxsLW9wYWNpdHk6MTtmaWxsLXJ1bGU6bm9uemVybztzdHJva2U6IzAwMDAwMDtzdHJva2Utd2lkdGg6MTIuNTtzdHJva2UtbGluZWNhcDpyb3VuZDtzdHJva2UtbGluZWpvaW46bWl0ZXI7c3Ryb2tlLW1pdGVybGltaXQ6MTA7c3Ryb2tlLWRhc2hhcnJheTpub25lO3N0cm9rZS1vcGFjaXR5OjEiIGQ9Im0gMTc2Niw3OTkxIGggNTUgbCAtMjcsLTE2NiB6Ii8+JiN4YTsgICAgICAgIDwvZz4mI3hhOyAgICAgIDwvZz4mI3hhOyAgICA8L2c+JiN4YTsgICAgPGcgaWQ9Imc0MzIiPiYjeGE7ICAgICAgPGcgY2xpcC1wYXRoPSJ1cmwoI2NsaXBQYXRoNDM4KSIgaWQ9Imc0MzQiPiYjeGE7ICAgICAgICA8dGV4dCBpZD0idGV4dDQ0MiIgc3R5bGU9ImZvbnQtdmFyaWFudDpub3JtYWw7Zm9udC13ZWlnaHQ6bm9ybWFsO2ZvbnQtc2l6ZToyMjcuNDIzcHg7Zm9udC1mYW1pbHk6VmVyZGFuYTstaW5rc2NhcGUtZm9udC1zcGVjaWZpY2F0aW9uOlZlcmRhbmE7d3JpdGluZy1tb2RlOmxyLXRiO2ZpbGw6IzAwMDAwMDtmaWxsLW9wYWNpdHk6MTtmaWxsLXJ1bGU6bm9uemVybztzdHJva2U6bm9uZSIgdHJhbnNmb3JtPSJtYXRyaXgoMCwxLDEsMCwxNzI0LDk5OTYpIiB4bWw6c3BhY2U9InByZXNlcnZlIj48dHNwYW4gaWQ9InRzcGFuNDQwIiB5PSIwIiB4PSIwIDE0NC42NDEwMiI+OTg8L3RzcGFuPjwvdGV4dD4mI3hhOyAgICAgIDwvZz4mI3hhOyAgICA8L2c+JiN4YTsgICAgPGcgaWQ9Imc0NDQiPiYjeGE7ICAgICAgPGcgY2xpcC1wYXRoPSJ1cmwoI2NsaXBQYXRoNDUwKSIgaWQ9Imc0NDYiPiYjeGE7ICAgICAgICA8cGF0aCBpZD0icGF0aDQ1MiIgc3R5bGU9ImZpbGw6bm9uZTtzdHJva2U6IzAwMDAwMDtzdHJva2Utd2lkdGg6MTI7c3Ryb2tlLWxpbmVjYXA6cm91bmQ7c3Ryb2tlLWxpbmVqb2luOnJvdW5kO3N0cm9rZS1taXRlcmxpbWl0OjEwO3N0cm9rZS1kYXNoYXJyYXk6bm9uZTtzdHJva2Utb3BhY2l0eToxIiBkPSJNIDIxMDEsNzgwMiBWIDczNTMiLz4mI3hhOyAgICAgICAgPHBhdGggaWQ9InBhdGg0NTQiIHN0eWxlPSJmaWxsOm5vbmU7c3Ryb2tlOiMwMDAwMDA7c3Ryb2tlLXdpZHRoOjEyO3N0cm9rZS1saW5lY2FwOnJvdW5kO3N0cm9rZS1saW5lam9pbjpyb3VuZDtzdHJva2UtbWl0ZXJsaW1pdDoxMDtzdHJva2UtZGFzaGFycmF5Om5vbmU7c3Ryb2tlLW9wYWNpdHk6MSIgZD0iTSAzNDI0LDc4MDIgViA3MzUzIi8+JiN4YTsgICAgICAgIDxwYXRoIGlkPSJwYXRoNDU2IiBzdHlsZT0iZmlsbDpub25lO3N0cm9rZTojMDAwMDAwO3N0cm9rZS13aWR0aDoxMjtzdHJva2UtbGluZWNhcDpyb3VuZDtzdHJva2UtbGluZWpvaW46cm91bmQ7c3Ryb2tlLW1pdGVybGltaXQ6MTA7c3Ryb2tlLWRhc2hhcnJheTpub25lO3N0cm9rZS1vcGFjaXR5OjEiIGQ9Im0gMjI2Niw3NDUyIGggOTkyIi8+JiN4YTsgICAgICAgIDxnIGlkPSJnNDU4Ij4mI3hhOyAgICAgICAgICA8cGF0aCBpZD0icGF0aDQ2MCIgc3R5bGU9ImZpbGw6IzAwMDAwMDtmaWxsLW9wYWNpdHk6MTtmaWxsLXJ1bGU6bm9uemVybztzdHJva2U6IzAwMDAwMDtzdHJva2Utd2lkdGg6MTIuNTtzdHJva2UtbGluZWNhcDpyb3VuZDtzdHJva2UtbGluZWpvaW46bWl0ZXI7c3Ryb2tlLW1pdGVybGltaXQ6MTA7c3Ryb2tlLWRhc2hhcnJheTpub25lO3N0cm9rZS1vcGFjaXR5OjEiIGQ9Im0gMjI2Niw3NDc5IHYgLTU1IGwgLTE2NSwyOCB6Ii8+JiN4YTsgICAgICAgIDwvZz4mI3hhOyAgICAgICAgPGcgaWQ9Imc0NjIiPiYjeGE7ICAgICAgICAgIDxwYXRoIGlkPSJwYXRoNDY0IiBzdHlsZT0iZmlsbDojMDAwMDAwO2ZpbGwtb3BhY2l0eToxO2ZpbGwtcnVsZTpub256ZXJvO3N0cm9rZTojMDAwMDAwO3N0cm9rZS13aWR0aDoxMi41O3N0cm9rZS1saW5lY2FwOnJvdW5kO3N0cm9rZS1saW5lam9pbjptaXRlcjtzdHJva2UtbWl0ZXJsaW1pdDoxMDtzdHJva2UtZGFzaGFycmF5Om5vbmU7c3Ryb2tlLW9wYWNpdHk6MSIgZD0ibSAzMjU4LDc0NzkgdiAtNTUgbCAxNjYsMjggeiIvPiYjeGE7ICAgICAgICA8L2c+JiN4YTsgICAgICAgIDx0ZXh0IGlkPSJ0ZXh0NDY4IiBzdHlsZT0iZm9udC12YXJpYW50Om5vcm1hbDtmb250LXdlaWdodDpub3JtYWw7Zm9udC1zaXplOjIyNy40MjNweDtmb250LWZhbWlseTpWZXJkYW5hOy1pbmtzY2FwZS1mb250LXNwZWNpZmljYXRpb246VmVyZGFuYTt3cml0aW5nLW1vZGU6bHItdGI7ZmlsbDojMDAwMDAwO2ZpbGwtb3BhY2l0eToxO2ZpbGwtcnVsZTpub256ZXJvO3N0cm9rZTpub25lIiB0cmFuc2Zvcm09Im1hdHJpeCgxLDAsMCwtMSwyNjE1LDc1MjIpIiB4bWw6c3BhY2U9InByZXNlcnZlIj48dHNwYW4gaWQ9InRzcGFuNDY2IiB5PSIwIiB4PSIwIDE0NC42NDEwMiI+Mjg8L3RzcGFuPjwvdGV4dD4mI3hhOyAgICAgICAgPHBhdGggaWQ9InBhdGg0NzAiIHN0eWxlPSJmaWxsOm5vbmU7c3Ryb2tlOiMwMDAwMDA7c3Ryb2tlLXdpZHRoOjEyO3N0cm9rZS1saW5lY2FwOnJvdW5kO3N0cm9rZS1saW5lam9pbjpyb3VuZDtzdHJva2UtbWl0ZXJsaW1pdDoxMDtzdHJva2UtZGFzaGFycmF5Om5vbmU7c3Ryb2tlLW9wYWNpdHk6MSIgZD0iTSA2MTQwLDc4MjUgSCA1NDc2Ii8+JiN4YTsgICAgICAgIDxwYXRoIGlkPSJwYXRoNDcyIiBzdHlsZT0iZmlsbDpub25lO3N0cm9rZTojMDAwMDAwO3N0cm9rZS13aWR0aDoxMjtzdHJva2UtbGluZWNhcDpyb3VuZDtzdHJva2UtbGluZWpvaW46cm91bmQ7c3Ryb2tlLW1pdGVybGltaXQ6MTA7c3Ryb2tlLWRhc2hhcnJheTpub25lO3N0cm9rZS1vcGFjaXR5OjEiIGQ9Ik0gNjE0MCwxMDc1NCBIIDU0NzYiLz4mI3hhOyAgICAgICAgPHBhdGggaWQ9InBhdGg0NzQiIHN0eWxlPSJmaWxsOm5vbmU7c3Ryb2tlOiMwMDAwMDA7c3Ryb2tlLXdpZHRoOjEyO3N0cm9rZS1saW5lY2FwOnJvdW5kO3N0cm9rZS1saW5lam9pbjpyb3VuZDtzdHJva2UtbWl0ZXJsaW1pdDoxMDtzdHJva2UtZGFzaGFycmF5Om5vbmU7c3Ryb2tlLW9wYWNpdHk6MSIgZD0ibSA1NTc1LDc5OTEgdiAyNTk4Ii8+JiN4YTsgICAgICAgIDxnIGlkPSJnNDc2Ij4mI3hhOyAgICAgICAgICA8cGF0aCBpZD0icGF0aDQ3OCIgc3R5bGU9ImZpbGw6IzAwMDAwMDtmaWxsLW9wYWNpdHk6MTtmaWxsLXJ1bGU6bm9uemVybztzdHJva2U6IzAwMDAwMDtzdHJva2Utd2lkdGg6MTIuNTtzdHJva2UtbGluZWNhcDpyb3VuZDtzdHJva2UtbGluZWpvaW46bWl0ZXI7c3Ryb2tlLW1pdGVybGltaXQ6MTA7c3Ryb2tlLWRhc2hhcnJheTpub25lO3N0cm9rZS1vcGFjaXR5OjEiIGQ9Im0gNTU0Nyw3OTkxIGggNTUgbCAtMjcsLTE2NiB6Ii8+JiN4YTsgICAgICAgIDwvZz4mI3hhOyAgICAgICAgPGcgaWQ9Imc0ODAiPiYjeGE7ICAgICAgICAgIDxwYXRoIGlkPSJwYXRoNDgyIiBzdHlsZT0iZmlsbDojMDAwMDAwO2ZpbGwtb3BhY2l0eToxO2ZpbGwtcnVsZTpub256ZXJvO3N0cm9rZTojMDAwMDAwO3N0cm9rZS13aWR0aDoxMi41O3N0cm9rZS1saW5lY2FwOnJvdW5kO3N0cm9rZS1saW5lam9pbjptaXRlcjtzdHJva2UtbWl0ZXJsaW1pdDoxMDtzdHJva2UtZGFzaGFycmF5Om5vbmU7c3Ryb2tlLW9wYWNpdHk6MSIgZD0ibSA1NTQ3LDEwNTg5IGggNTUgbCAtMjcsMTY1IHoiLz4mI3hhOyAgICAgICAgPC9nPiYjeGE7ICAgICAgICA8dGV4dCBpZD0idGV4dDQ4NiIgc3R5bGU9ImZvbnQtdmFyaWFudDpub3JtYWw7Zm9udC13ZWlnaHQ6bm9ybWFsO2ZvbnQtc2l6ZToyMjcuNDIzcHg7Zm9udC1mYW1pbHk6VmVyZGFuYTstaW5rc2NhcGUtZm9udC1zcGVjaWZpY2F0aW9uOlZlcmRhbmE7d3JpdGluZy1tb2RlOmxyLXRiO2ZpbGw6IzAwMDAwMDtmaWxsLW9wYWNpdHk6MTtmaWxsLXJ1bGU6bm9uemVybztzdHJva2U6bm9uZSIgdHJhbnNmb3JtPSJtYXRyaXgoMCwxLDEsMCw1NTA1LDkxNDUpIiB4bWw6c3BhY2U9InByZXNlcnZlIj48dHNwYW4gaWQ9InRzcGFuNDg0IiB5PSIwIiB4PSIwIDE0NC42NDEwMiI+NjI8L3RzcGFuPjwvdGV4dD4mI3hhOyAgICAgICAgPHBhdGggaWQ9InBhdGg0ODgiIHN0eWxlPSJmaWxsOm5vbmU7c3Ryb2tlOiMwMDAwMDA7c3Ryb2tlLXdpZHRoOjEyO3N0cm9rZS1saW5lY2FwOnJvdW5kO3N0cm9rZS1saW5lam9pbjpyb3VuZDtzdHJva2UtbWl0ZXJsaW1pdDoxMDtzdHJva2UtZGFzaGFycmF5Om5vbmU7c3Ryb2tlLW9wYWNpdHk6MSIgZD0iTSAyMjk5LDEwMTc0IFYgOTQxMyIvPiYjeGE7ICAgICAgICA8cGF0aCBpZD0icGF0aDQ5MCIgc3R5bGU9ImZpbGw6bm9uZTtzdHJva2U6IzAwMDAwMDtzdHJva2Utd2lkdGg6MTI7c3Ryb2tlLWxpbmVjYXA6cm91bmQ7c3Ryb2tlLWxpbmVqb2luOnJvdW5kO3N0cm9rZS1taXRlcmxpbWl0OjEwO3N0cm9rZS1kYXNoYXJyYXk6bm9uZTtzdHJva2Utb3BhY2l0eToxIiBkPSJNIDMyMzUsMTAxNzQgViA5NDEzIi8+JiN4YTsgICAgICAgIDxwYXRoIGlkPSJwYXRoNDkyIiBzdHlsZT0iZmlsbDpub25lO3N0cm9rZTojMDAwMDAwO3N0cm9rZS13aWR0aDoxMjtzdHJva2UtbGluZWNhcDpyb3VuZDtzdHJva2UtbGluZWpvaW46cm91bmQ7c3Ryb2tlLW1pdGVybGltaXQ6MTA7c3Ryb2tlLWRhc2hhcnJheTpub25lO3N0cm9rZS1vcGFjaXR5OjEiIGQ9Im0gMjQ2NSw5NTEyIGggNjA0Ii8+JiN4YTsgICAgICAgIDxnIGlkPSJnNDk0Ij4mI3hhOyAgICAgICAgICA8cGF0aCBpZD0icGF0aDQ5NiIgc3R5bGU9ImZpbGw6IzAwMDAwMDtmaWxsLW9wYWNpdHk6MTtmaWxsLXJ1bGU6bm9uemVybztzdHJva2U6IzAwMDAwMDtzdHJva2Utd2lkdGg6MTIuNTtzdHJva2UtbGluZWNhcDpyb3VuZDtzdHJva2UtbGluZWpvaW46bWl0ZXI7c3Ryb2tlLW1pdGVybGltaXQ6MTA7c3Ryb2tlLWRhc2hhcnJheTpub25lO3N0cm9rZS1vcGFjaXR5OjEiIGQ9Im0gMjQ2NSw5NTQwIHYgLTU2IGwgLTE2NiwyOCB6Ii8+JiN4YTsgICAgICAgIDwvZz4mI3hhOyAgICAgICAgPGcgaWQ9Imc0OTgiPiYjeGE7ICAgICAgICAgIDxwYXRoIGlkPSJwYXRoNTAwIiBzdHlsZT0iZmlsbDojMDAwMDAwO2ZpbGwtb3BhY2l0eToxO2ZpbGwtcnVsZTpub256ZXJvO3N0cm9rZTojMDAwMDAwO3N0cm9rZS13aWR0aDoxMi41O3N0cm9rZS1saW5lY2FwOnJvdW5kO3N0cm9rZS1saW5lam9pbjptaXRlcjtzdHJva2UtbWl0ZXJsaW1pdDoxMDtzdHJva2UtZGFzaGFycmF5Om5vbmU7c3Ryb2tlLW9wYWNpdHk6MSIgZD0ibSAzMDY5LDk1NDAgdiAtNTYgbCAxNjYsMjggeiIvPiYjeGE7ICAgICAgICA8L2c+JiN4YTsgICAgICAgIDx0ZXh0IGlkPSJ0ZXh0NTA0IiBzdHlsZT0iZm9udC12YXJpYW50Om5vcm1hbDtmb250LXdlaWdodDpub3JtYWw7Zm9udC1zaXplOjIyNy40MjNweDtmb250LWZhbWlseTpWZXJkYW5hOy1pbmtzY2FwZS1mb250LXNwZWNpZmljYXRpb246VmVyZGFuYTt3cml0aW5nLW1vZGU6bHItdGI7ZmlsbDojMDAwMDAwO2ZpbGwtb3BhY2l0eToxO2ZpbGwtcnVsZTpub256ZXJvO3N0cm9rZTpub25lIiB0cmFuc2Zvcm09Im1hdHJpeCgxLDAsMCwtMSwyNTAwLDk1ODIpIiB4bWw6c3BhY2U9InByZXNlcnZlIj48dHNwYW4gaWQ9InRzcGFuNTAyIiB5PSIwIiB4PSIwIDE0NC42NDEwMiAyODkuMjgyMDQgMzcyLjA2NDAzIj4xOS44PC90c3Bhbj48L3RleHQ+JiN4YTsgICAgICAgIDxwYXRoIGlkPSJwYXRoNTA2IiBzdHlsZT0iZmlsbDpub25lO3N0cm9rZTojMDAwMDAwO3N0cm9rZS13aWR0aDoxMjtzdHJva2UtbGluZWNhcDpyb3VuZDtzdHJva2UtbGluZWpvaW46cm91bmQ7c3Ryb2tlLW1pdGVybGltaXQ6MTA7c3Ryb2tlLWRhc2hhcnJheTpub25lO3N0cm9rZS1vcGFjaXR5OjEiIGQ9Im0gMjE3NiwxMDY1NSB2IC00MjciLz4mI3hhOyAgICAgICAgPHBhdGggaWQ9InBhdGg1MDgiIHN0eWxlPSJmaWxsOm5vbmU7c3Ryb2tlOiMwMDAwMDA7c3Ryb2tlLXdpZHRoOjEyO3N0cm9rZS1saW5lY2FwOnJvdW5kO3N0cm9rZS1saW5lam9pbjpyb3VuZDtzdHJva2UtbWl0ZXJsaW1pdDoxMDtzdHJva2UtZGFzaGFycmF5Om5vbmU7c3Ryb2tlLW9wYWNpdHk6MSIgZD0ibSAyMjkwLDEwNjU1IHYgLTQyNyIvPiYjeGE7ICAgICAgICA8cGF0aCBpZD0icGF0aDUxMCIgc3R5bGU9ImZpbGw6bm9uZTtzdHJva2U6IzAwMDAwMDtzdHJva2Utd2lkdGg6MTI7c3Ryb2tlLWxpbmVjYXA6cm91bmQ7c3Ryb2tlLWxpbmVqb2luOnJvdW5kO3N0cm9rZS1taXRlcmxpbWl0OjEwO3N0cm9rZS1kYXNoYXJyYXk6bm9uZTtzdHJva2Utb3BhY2l0eToxIiBkPSJNIDIwMTEsMTAzMjggSCAxODQ2Ii8+JiN4YTsgICAgICAgIDxwYXRoIGlkPSJwYXRoNTEyIiBzdHlsZT0iZmlsbDpub25lO3N0cm9rZTojMDAwMDAwO3N0cm9rZS13aWR0aDoxMjtzdHJva2UtbGluZWNhcDpyb3VuZDtzdHJva2UtbGluZWpvaW46cm91bmQ7c3Ryb2tlLW1pdGVybGltaXQ6MTA7c3Ryb2tlLWRhc2hhcnJheTpub25lO3N0cm9rZS1vcGFjaXR5OjEiIGQ9Im0gMjQ1NSwxMDMyOCBoIDgyNSIvPiYjeGE7ICAgICAgICA8cGF0aCBpZD0icGF0aDUxNCIgc3R5bGU9ImZpbGw6bm9uZTtzdHJva2U6IzAwMDAwMDtzdHJva2Utd2lkdGg6MTI7c3Ryb2tlLWxpbmVjYXA6cm91bmQ7c3Ryb2tlLWxpbmVqb2luOnJvdW5kO3N0cm9rZS1taXRlcmxpbWl0OjEwO3N0cm9rZS1kYXNoYXJyYXk6bm9uZTtzdHJva2Utb3BhY2l0eToxIiBkPSJtIDIxNzYsMTAzMjggaCAxMTQiLz4mI3hhOyAgICAgICAgPGcgaWQ9Imc1MTYiPiYjeGE7ICAgICAgICAgIDxwYXRoIGlkPSJwYXRoNTE4IiBzdHlsZT0iZmlsbDojMDAwMDAwO2ZpbGwtb3BhY2l0eToxO2ZpbGwtcnVsZTpub256ZXJvO3N0cm9rZTojMDAwMDAwO3N0cm9rZS13aWR0aDoxMi41O3N0cm9rZS1saW5lY2FwOnJvdW5kO3N0cm9rZS1saW5lam9pbjptaXRlcjtzdHJva2UtbWl0ZXJsaW1pdDoxMDtzdHJva2UtZGFzaGFycmF5Om5vbmU7c3Ryb2tlLW9wYWNpdHk6MSIgZD0ibSAyMDExLDEwMzU1IHYgLTU1IGwgMTY1LDI4IHoiLz4mI3hhOyAgICAgICAgPC9nPiYjeGE7ICAgICAgICA8ZyBpZD0iZzUyMCI+JiN4YTsgICAgICAgICAgPHBhdGggaWQ9InBhdGg1MjIiIHN0eWxlPSJmaWxsOiMwMDAwMDA7ZmlsbC1vcGFjaXR5OjE7ZmlsbC1ydWxlOm5vbnplcm87c3Ryb2tlOiMwMDAwMDA7c3Ryb2tlLXdpZHRoOjEyLjU7c3Ryb2tlLWxpbmVjYXA6cm91bmQ7c3Ryb2tlLWxpbmVqb2luOm1pdGVyO3N0cm9rZS1taXRlcmxpbWl0OjEwO3N0cm9rZS1kYXNoYXJyYXk6bm9uZTtzdHJva2Utb3BhY2l0eToxIiBkPSJtIDI0NTUsMTAzNTUgdiAtNTUgbCAtMTY1LDI4IHoiLz4mI3hhOyAgICAgICAgPC9nPiYjeGE7ICAgICAgICA8dGV4dCBpZD0idGV4dDUyNiIgc3R5bGU9ImZvbnQtdmFyaWFudDpub3JtYWw7Zm9udC13ZWlnaHQ6bm9ybWFsO2ZvbnQtc2l6ZToyMjcuNDIzcHg7Zm9udC1mYW1pbHk6VmVyZGFuYTstaW5rc2NhcGUtZm9udC1zcGVjaWZpY2F0aW9uOlZlcmRhbmE7d3JpdGluZy1tb2RlOmxyLXRiO2ZpbGw6IzAwMDAwMDtmaWxsLW9wYWNpdHk6MTtmaWxsLXJ1bGU6bm9uemVybztzdHJva2U6bm9uZSIgdHJhbnNmb3JtPSJtYXRyaXgoMSwwLDAsLTEsMjg1MywxMDM5NCkiIHhtbDpzcGFjZT0icHJlc2VydmUiPjx0c3BhbiBpZD0idHNwYW41MjQiIHk9IjAiIHg9IjAgMTQ0LjY0MTAyIDIyNy40MjMiPjIuNDwvdHNwYW4+PC90ZXh0PiYjeGE7ICAgICAgICA8cGF0aCBpZD0icGF0aDUyOCIgc3R5bGU9ImZpbGw6bm9uZTtzdHJva2U6IzAwMDAwMDtzdHJva2Utd2lkdGg6MTI7c3Ryb2tlLWxpbmVjYXA6cm91bmQ7c3Ryb2tlLWxpbmVqb2luOnJvdW5kO3N0cm9rZS1taXRlcmxpbWl0OjEwO3N0cm9rZS1kYXNoYXJyYXk6bm9uZTtzdHJva2Utb3BhY2l0eToxIiBkPSJNIDYzMDAsOTYyMSBIIDU0NzIiLz4mI3hhOyAgICAgICAgPHBhdGggaWQ9InBhdGg1MzAiIHN0eWxlPSJmaWxsOm5vbmU7c3Ryb2tlOiMwMDAwMDA7c3Ryb2tlLXdpZHRoOjEyO3N0cm9rZS1saW5lY2FwOnJvdW5kO3N0cm9rZS1saW5lam9pbjpyb3VuZDtzdHJva2UtbWl0ZXJsaW1pdDoxMDtzdHJva2UtZGFzaGFycmF5Om5vbmU7c3Ryb2tlLW9wYWNpdHk6MSIgZD0iTSA2MTM0LDEyNDU1IEggNTQ3MiIvPiYjeGE7ICAgICAgICA8cGF0aCBpZD0icGF0aDUzMiIgc3R5bGU9ImZpbGw6bm9uZTtzdHJva2U6IzAwMDAwMDtzdHJva2Utd2lkdGg6MTI7c3Ryb2tlLWxpbmVjYXA6cm91bmQ7c3Ryb2tlLWxpbmVqb2luOnJvdW5kO3N0cm9rZS1taXRlcmxpbWl0OjEwO3N0cm9rZS1kYXNoYXJyYXk6bm9uZTtzdHJva2Utb3BhY2l0eToxIiBkPSJtIDU1NzIsOTc4NiB2IDI1MDQiLz4mI3hhOyAgICAgICAgPGcgaWQ9Imc1MzQiPiYjeGE7ICAgICAgICAgIDxwYXRoIGlkPSJwYXRoNTM2IiBzdHlsZT0iZmlsbDojMDAwMDAwO2ZpbGwtb3BhY2l0eToxO2ZpbGwtcnVsZTpub256ZXJvO3N0cm9rZTojMDAwMDAwO3N0cm9rZS13aWR0aDoxMi41O3N0cm9rZS1saW5lY2FwOnJvdW5kO3N0cm9rZS1saW5lam9pbjptaXRlcjtzdHJva2UtbWl0ZXJsaW1pdDoxMDtzdHJva2UtZGFzaGFycmF5Om5vbmU7c3Ryb2tlLW9wYWNpdHk6MSIgZD0ibSA1NTQ0LDk3ODYgaCA1NSBsIC0yNywtMTY1IHoiLz4mI3hhOyAgICAgICAgPC9nPiYjeGE7ICAgICAgICA8ZyBpZD0iZzUzOCI+JiN4YTsgICAgICAgICAgPHBhdGggaWQ9InBhdGg1NDAiIHN0eWxlPSJmaWxsOiMwMDAwMDA7ZmlsbC1vcGFjaXR5OjE7ZmlsbC1ydWxlOm5vbnplcm87c3Ryb2tlOiMwMDAwMDA7c3Ryb2tlLXdpZHRoOjEyLjU7c3Ryb2tlLWxpbmVjYXA6cm91bmQ7c3Ryb2tlLWxpbmVqb2luOm1pdGVyO3N0cm9rZS1taXRlcmxpbWl0OjEwO3N0cm9rZS1kYXNoYXJyYXk6bm9uZTtzdHJva2Utb3BhY2l0eToxIiBkPSJtIDU1NDQsMTIyOTAgaCA1NSBsIC0yNywxNjUgeiIvPiYjeGE7ICAgICAgICA8L2c+JiN4YTsgICAgICAgIDx0ZXh0IGlkPSJ0ZXh0NTQ0IiBzdHlsZT0iZm9udC12YXJpYW50Om5vcm1hbDtmb250LXdlaWdodDpub3JtYWw7Zm9udC1zaXplOjIyNy40MjNweDtmb250LWZhbWlseTpWZXJkYW5hOy1pbmtzY2FwZS1mb250LXNwZWNpZmljYXRpb246VmVyZGFuYTt3cml0aW5nLW1vZGU6bHItdGI7ZmlsbDojMDAwMDAwO2ZpbGwtb3BhY2l0eToxO2ZpbGwtcnVsZTpub256ZXJvO3N0cm9rZTpub25lIiB0cmFuc2Zvcm09Im1hdHJpeCgwLDEsMSwwLDU1MDIsMTA4OTMpIiB4bWw6c3BhY2U9InByZXNlcnZlIj48dHNwYW4gaWQ9InRzcGFuNTQyIiB5PSIwIiB4PSIwIDE0NC42NDEwMiI+NjA8L3RzcGFuPjwvdGV4dD4mI3hhOyAgICAgICAgPHBhdGggaWQ9InBhdGg1NDYiIHN0eWxlPSJmaWxsOm5vbmU7c3Ryb2tlOiMwMDAwMDA7c3Ryb2tlLXdpZHRoOjEyO3N0cm9rZS1saW5lY2FwOnJvdW5kO3N0cm9rZS1saW5lam9pbjpyb3VuZDtzdHJva2UtbWl0ZXJsaW1pdDoxMDtzdHJva2UtZGFzaGFycmF5Om5vbmU7c3Ryb2tlLW9wYWNpdHk6MSIgZD0ibSAzMzM0LDExODg4IGggNTE3Ii8+JiN4YTsgICAgICAgIDxwYXRoIGlkPSJwYXRoNTQ4IiBzdHlsZT0iZmlsbDpub25lO3N0cm9rZTojMDAwMDAwO3N0cm9rZS13aWR0aDoxMjtzdHJva2UtbGluZWNhcDpyb3VuZDtzdHJva2UtbGluZWpvaW46cm91bmQ7c3Ryb2tlLW1pdGVybGltaXQ6MTA7c3Ryb2tlLWRhc2hhcnJheTpub25lO3N0cm9rZS1vcGFjaXR5OjEiIGQ9Im0gMzMzNCwxMjQ1NSBoIDUxNyIvPiYjeGE7ICAgICAgICA8cGF0aCBpZD0icGF0aDU1MCIgc3R5bGU9ImZpbGw6bm9uZTtzdHJva2U6IzAwMDAwMDtzdHJva2Utd2lkdGg6MTI7c3Ryb2tlLWxpbmVjYXA6cm91bmQ7c3Ryb2tlLWxpbmVqb2luOnJvdW5kO3N0cm9rZS1taXRlcmxpbWl0OjEwO3N0cm9rZS1kYXNoYXJyYXk6bm9uZTtzdHJva2Utb3BhY2l0eToxIiBkPSJtIDM3NTIsMTIwNTQgdiAyMzYiLz4mI3hhOyAgICAgICAgPGcgaWQ9Imc1NTIiPiYjeGE7ICAgICAgICAgIDxwYXRoIGlkPSJwYXRoNTU0IiBzdHlsZT0iZmlsbDojMDAwMDAwO2ZpbGwtb3BhY2l0eToxO2ZpbGwtcnVsZTpub256ZXJvO3N0cm9rZTojMDAwMDAwO3N0cm9rZS13aWR0aDoxMi41O3N0cm9rZS1saW5lY2FwOnJvdW5kO3N0cm9rZS1saW5lam9pbjptaXRlcjtzdHJva2UtbWl0ZXJsaW1pdDoxMDtzdHJva2UtZGFzaGFycmF5Om5vbmU7c3Ryb2tlLW9wYWNpdHk6MSIgZD0ibSAzNzI0LDEyMDU0IGggNTUgbCAtMjcsLTE2NiB6Ii8+JiN4YTsgICAgICAgIDwvZz4mI3hhOyAgICAgICAgPGcgaWQ9Imc1NTYiPiYjeGE7ICAgICAgICAgIDxwYXRoIGlkPSJwYXRoNTU4IiBzdHlsZT0iZmlsbDojMDAwMDAwO2ZpbGwtb3BhY2l0eToxO2ZpbGwtcnVsZTpub256ZXJvO3N0cm9rZTojMDAwMDAwO3N0cm9rZS13aWR0aDoxMi41O3N0cm9rZS1saW5lY2FwOnJvdW5kO3N0cm9rZS1saW5lam9pbjptaXRlcjtzdHJva2UtbWl0ZXJsaW1pdDoxMDtzdHJva2UtZGFzaGFycmF5Om5vbmU7c3Ryb2tlLW9wYWNpdHk6MSIgZD0ibSAzNzI0LDEyMjkwIGggNTUgbCAtMjcsMTY1IHoiLz4mI3hhOyAgICAgICAgPC9nPiYjeGE7ICAgICAgICA8dGV4dCBpZD0idGV4dDU2MiIgc3R5bGU9ImZvbnQtdmFyaWFudDpub3JtYWw7Zm9udC13ZWlnaHQ6bm9ybWFsO2ZvbnQtc2l6ZToyMjcuNDIzcHg7Zm9udC1mYW1pbHk6VmVyZGFuYTstaW5rc2NhcGUtZm9udC1zcGVjaWZpY2F0aW9uOlZlcmRhbmE7d3JpdGluZy1tb2RlOmxyLXRiO2ZpbGw6IzAwMDAwMDtmaWxsLW9wYWNpdHk6MTtmaWxsLXJ1bGU6bm9uemVybztzdHJva2U6bm9uZSIgdHJhbnNmb3JtPSJtYXRyaXgoMCwxLDEsMCwzNjg2LDEyMDE5KSIgeG1sOnNwYWNlPSJwcmVzZXJ2ZSI+PHRzcGFuIGlkPSJ0c3BhbjU2MCIgeT0iMCIgeD0iMCAxNDQuNjQxMDIiPjEyPC90c3Bhbj48L3RleHQ+JiN4YTsgICAgICAgIDxwYXRoIGlkPSJwYXRoNTY0IiBzdHlsZT0iZmlsbDpub25lO3N0cm9rZTojMDAwMDAwO3N0cm9rZS13aWR0aDoxMjtzdHJva2UtbGluZWNhcDpyb3VuZDtzdHJva2UtbGluZWpvaW46cm91bmQ7c3Ryb2tlLW1pdGVybGltaXQ6MTA7c3Ryb2tlLWRhc2hhcnJheTpub25lO3N0cm9rZS1vcGFjaXR5OjEiIGQ9Ik0gNTcyOCwxMjI2NiBIIDU0NzEiLz4mI3hhOyAgICAgICAgPHBhdGggaWQ9InBhdGg1NjYiIHN0eWxlPSJmaWxsOm5vbmU7c3Ryb2tlOiMwMDAwMDA7c3Ryb2tlLXdpZHRoOjEyO3N0cm9rZS1saW5lY2FwOnJvdW5kO3N0cm9rZS1saW5lam9pbjpyb3VuZDtzdHJva2UtbWl0ZXJsaW1pdDoxMDtzdHJva2UtZGFzaGFycmF5Om5vbmU7c3Ryb2tlLW9wYWNpdHk6MSIgZD0iTSA2MTM0LDEyNDU1IEggNTQ3MSIvPiYjeGE7ICAgICAgICA8cGF0aCBpZD0icGF0aDU2OCIgc3R5bGU9ImZpbGw6bm9uZTtzdHJva2U6IzAwMDAwMDtzdHJva2Utd2lkdGg6MTI7c3Ryb2tlLWxpbmVjYXA6cm91bmQ7c3Ryb2tlLWxpbmVqb2luOnJvdW5kO3N0cm9rZS1taXRlcmxpbWl0OjEwO3N0cm9rZS1kYXNoYXJyYXk6bm9uZTtzdHJva2Utb3BhY2l0eToxIiBkPSJtIDU1NzAsMTIxMDEgdiAtMTY2Ii8+JiN4YTsgICAgICAgIDxwYXRoIGlkPSJwYXRoNTcwIiBzdHlsZT0iZmlsbDpub25lO3N0cm9rZTojMDAwMDAwO3N0cm9rZS13aWR0aDoxMjtzdHJva2UtbGluZWNhcDpyb3VuZDtzdHJva2UtbGluZWpvaW46cm91bmQ7c3Ryb2tlLW1pdGVybGltaXQ6MTA7c3Ryb2tlLWRhc2hhcnJheTpub25lO3N0cm9rZS1vcGFjaXR5OjEiIGQ9Im0gNTU3MCwxMjYyMCB2IDE2NiIvPiYjeGE7ICAgICAgICA8cGF0aCBpZD0icGF0aDU3MiIgc3R5bGU9ImZpbGw6bm9uZTtzdHJva2U6IzAwMDAwMDtzdHJva2Utd2lkdGg6MTI7c3Ryb2tlLWxpbmVjYXA6cm91bmQ7c3Ryb2tlLWxpbmVqb2luOnJvdW5kO3N0cm9rZS1taXRlcmxpbWl0OjEwO3N0cm9rZS1kYXNoYXJyYXk6bm9uZTtzdHJva2Utb3BhY2l0eToxIiBkPSJtIDU1NzAsMTIyNjYgdiAxODkiLz4mI3hhOyAgICAgICAgPGcgaWQ9Imc1NzQiPiYjeGE7ICAgICAgICAgIDxwYXRoIGlkPSJwYXRoNTc2IiBzdHlsZT0iZmlsbDojMDAwMDAwO2ZpbGwtb3BhY2l0eToxO2ZpbGwtcnVsZTpub256ZXJvO3N0cm9rZTojMDAwMDAwO3N0cm9rZS13aWR0aDoxMi41O3N0cm9rZS1saW5lY2FwOnJvdW5kO3N0cm9rZS1saW5lam9pbjptaXRlcjtzdHJva2UtbWl0ZXJsaW1pdDoxMDtzdHJva2UtZGFzaGFycmF5Om5vbmU7c3Ryb2tlLW9wYWNpdHk6MSIgZD0ibSA1NTQyLDEyMTAxIGggNTUgbCAtMjcsMTY1IHoiLz4mI3hhOyAgICAgICAgPC9nPiYjeGE7ICAgICAgICA8ZyBpZD0iZzU3OCI+JiN4YTsgICAgICAgICAgPHBhdGggaWQ9InBhdGg1ODAiIHN0eWxlPSJmaWxsOiMwMDAwMDA7ZmlsbC1vcGFjaXR5OjE7ZmlsbC1ydWxlOm5vbnplcm87c3Ryb2tlOiMwMDAwMDA7c3Ryb2tlLXdpZHRoOjEyLjU7c3Ryb2tlLWxpbmVjYXA6cm91bmQ7c3Ryb2tlLWxpbmVqb2luOm1pdGVyO3N0cm9rZS1taXRlcmxpbWl0OjEwO3N0cm9rZS1kYXNoYXJyYXk6bm9uZTtzdHJva2Utb3BhY2l0eToxIiBkPSJtIDU1NDIsMTI2MjAgaCA1NSBsIC0yNywtMTY1IHoiLz4mI3hhOyAgICAgICAgPC9nPiYjeGE7ICAgICAgICA8dGV4dCBpZD0idGV4dDU4NCIgc3R5bGU9ImZvbnQtdmFyaWFudDpub3JtYWw7Zm9udC13ZWlnaHQ6bm9ybWFsO2ZvbnQtc2l6ZToyMjcuNDIzcHg7Zm9udC1mYW1pbHk6VmVyZGFuYTstaW5rc2NhcGUtZm9udC1zcGVjaWZpY2F0aW9uOlZlcmRhbmE7d3JpdGluZy1tb2RlOmxyLXRiO2ZpbGw6IzAwMDAwMDtmaWxsLW9wYWNpdHk6MTtmaWxsLXJ1bGU6bm9uemVybztzdHJva2U6bm9uZSIgdHJhbnNmb3JtPSJtYXRyaXgoMCwxLDEsMCw1NTA0LDEyMjkwKSIgeG1sOnNwYWNlPSJwcmVzZXJ2ZSI+PHRzcGFuIGlkPSJ0c3BhbjU4MiIgeT0iMCIgeD0iMCI+NDwvdHNwYW4+PC90ZXh0PiYjeGE7ICAgICAgICA8cGF0aCBpZD0icGF0aDU4NiIgc3R5bGU9ImZpbGw6bm9uZTtzdHJva2U6IzAwMDAwMDtzdHJva2Utd2lkdGg6MTI7c3Ryb2tlLWxpbmVjYXA6cm91bmQ7c3Ryb2tlLWxpbmVqb2luOnJvdW5kO3N0cm9rZS1taXRlcmxpbWl0OjEwO3N0cm9rZS1kYXNoYXJyYXk6bm9uZTtzdHJva2Utb3BhY2l0eToxIiBkPSJtIDMzMzQsMTE4ODggaCA1MTUiLz4mI3hhOyAgICAgICAgPHBhdGggaWQ9InBhdGg1ODgiIHN0eWxlPSJmaWxsOm5vbmU7c3Ryb2tlOiMwMDAwMDA7c3Ryb2tlLXdpZHRoOjEyO3N0cm9rZS1saW5lY2FwOnJvdW5kO3N0cm9rZS1saW5lam9pbjpyb3VuZDtzdHJva2UtbWl0ZXJsaW1pdDoxMDtzdHJva2UtZGFzaGFycmF5Om5vbmU7c3Ryb2tlLW9wYWNpdHk6MSIgZD0ibSAzMzM0LDEwNzU0IGggNTE1Ii8+JiN4YTsgICAgICAgIDxwYXRoIGlkPSJwYXRoNTkwIiBzdHlsZT0iZmlsbDpub25lO3N0cm9rZTojMDAwMDAwO3N0cm9rZS13aWR0aDoxMjtzdHJva2UtbGluZWNhcDpyb3VuZDtzdHJva2UtbGluZWpvaW46cm91bmQ7c3Ryb2tlLW1pdGVybGltaXQ6MTA7c3Ryb2tlLWRhc2hhcnJheTpub25lO3N0cm9rZS1vcGFjaXR5OjEiIGQ9Im0gMzc1MCwxMTcyMyB2IC04MDMiLz4mI3hhOyAgICAgICAgPGcgaWQ9Imc1OTIiPiYjeGE7ICAgICAgICAgIDxwYXRoIGlkPSJwYXRoNTk0IiBzdHlsZT0iZmlsbDojMDAwMDAwO2ZpbGwtb3BhY2l0eToxO2ZpbGwtcnVsZTpub256ZXJvO3N0cm9rZTojMDAwMDAwO3N0cm9rZS13aWR0aDoxMi41O3N0cm9rZS1saW5lY2FwOnJvdW5kO3N0cm9rZS1saW5lam9pbjptaXRlcjtzdHJva2UtbWl0ZXJsaW1pdDoxMDtzdHJva2UtZGFzaGFycmF5Om5vbmU7c3Ryb2tlLW9wYWNpdHk6MSIgZD0ibSAzNzIzLDExNzIzIGggNTUgbCAtMjgsMTY1IHoiLz4mI3hhOyAgICAgICAgPC9nPiYjeGE7ICAgICAgICA8ZyBpZD0iZzU5NiI+JiN4YTsgICAgICAgICAgPHBhdGggaWQ9InBhdGg1OTgiIHN0eWxlPSJmaWxsOiMwMDAwMDA7ZmlsbC1vcGFjaXR5OjE7ZmlsbC1ydWxlOm5vbnplcm87c3Ryb2tlOiMwMDAwMDA7c3Ryb2tlLXdpZHRoOjEyLjU7c3Ryb2tlLWxpbmVjYXA6cm91bmQ7c3Ryb2tlLWxpbmVqb2luOm1pdGVyO3N0cm9rZS1taXRlcmxpbWl0OjEwO3N0cm9rZS1kYXNoYXJyYXk6bm9uZTtzdHJva2Utb3BhY2l0eToxIiBkPSJtIDM3MjMsMTA5MjAgaCA1NSBsIC0yOCwtMTY2IHoiLz4mI3hhOyAgICAgICAgPC9nPiYjeGE7ICAgICAgICA8dGV4dCBpZD0idGV4dDYwMiIgc3R5bGU9ImZvbnQtdmFyaWFudDpub3JtYWw7Zm9udC13ZWlnaHQ6bm9ybWFsO2ZvbnQtc2l6ZToyMjcuNDIzcHg7Zm9udC1mYW1pbHk6VmVyZGFuYTstaW5rc2NhcGUtZm9udC1zcGVjaWZpY2F0aW9uOlZlcmRhbmE7d3JpdGluZy1tb2RlOmxyLXRiO2ZpbGw6IzAwMDAwMDtmaWxsLW9wYWNpdHk6MTtmaWxsLXJ1bGU6bm9uemVybztzdHJva2U6bm9uZSIgdHJhbnNmb3JtPSJtYXRyaXgoMCwxLDEsMCwzNjg0LDExMTczKSIgeG1sOnNwYWNlPSJwcmVzZXJ2ZSI+PHRzcGFuIGlkPSJ0c3BhbjYwMCIgeT0iMCIgeD0iMCAxNDQuNjQxMDIiPjI0PC90c3Bhbj48L3RleHQ+JiN4YTsgICAgICAgIDxwYXRoIGlkPSJwYXRoNjA0IiBzdHlsZT0iZmlsbDpub25lO3N0cm9rZTojMDAwMDAwO3N0cm9rZS13aWR0aDoxMjtzdHJva2UtbGluZWNhcDpyb3VuZDtzdHJva2UtbGluZWpvaW46cm91bmQ7c3Ryb2tlLW1pdGVybGltaXQ6MTA7c3Ryb2tlLWRhc2hhcnJheTpub25lO3N0cm9rZS1vcGFjaXR5OjEiIGQ9Im0gODE1NSwxMTE4NyAtNjcwLDQ4NyIvPiYjeGE7ICAgICAgICA8dGV4dCBpZD0idGV4dDYwOCIgc3R5bGU9ImZvbnQtdmFyaWFudDpub3JtYWw7Zm9udC13ZWlnaHQ6bm9ybWFsO2ZvbnQtc2l6ZToyMjcuNDIzcHg7Zm9udC1mYW1pbHk6VmVyZGFuYTstaW5rc2NhcGUtZm9udC1zcGVjaWZpY2F0aW9uOlZlcmRhbmE7d3JpdGluZy1tb2RlOmxyLXRiO2ZpbGw6IzAwMDAwMDtmaWxsLW9wYWNpdHk6MTtmaWxsLXJ1bGU6bm9uemVybztzdHJva2U6bm9uZSIgdHJhbnNmb3JtPSJtYXRyaXgoMC44MDg5OSwtMC41ODc4MiwtMC41ODc4MiwtMC44MDg5OSw3OTA3LDExNDUzKSIgeG1sOnNwYWNlPSJwcmVzZXJ2ZSI+PHRzcGFuIGlkPSJ0c3BhbjYwNiIgeT0iMCIgeD0iMCAxNTguMDU4NzYiPlI2PC90c3Bhbj48L3RleHQ+JiN4YTsgICAgICAgIDxnIGlkPSJnNjEwIj4mI3hhOyAgICAgICAgICA8cGF0aCBpZD0icGF0aDYxMiIgc3R5bGU9ImZpbGw6IzAwMDAwMDtmaWxsLW9wYWNpdHk6MTtmaWxsLXJ1bGU6bm9uemVybztzdHJva2U6IzAwMDAwMDtzdHJva2Utd2lkdGg6MTIuNTtzdHJva2UtbGluZWNhcDpyb3VuZDtzdHJva2UtbGluZWpvaW46bWl0ZXI7c3Ryb2tlLW1pdGVybGltaXQ6MTA7c3Ryb2tlLWRhc2hhcnJheTpub25lO3N0cm9rZS1vcGFjaXR5OjEiIGQ9Im0gNzUwMSwxMTY5NiAtMzIsLTQ0IC0xMTgsMTE5IHoiLz4mI3hhOyAgICAgICAgPC9nPiYjeGE7ICAgICAgICA8cGF0aCBpZD0icGF0aDYxNCIgc3R5bGU9ImZpbGw6bm9uZTtzdHJva2U6IzAwMDAwMDtzdHJva2Utd2lkdGg6MTI7c3Ryb2tlLWxpbmVjYXA6cm91bmQ7c3Ryb2tlLWxpbmVqb2luOnJvdW5kO3N0cm9rZS1taXRlcmxpbWl0OjEwO3N0cm9rZS1kYXNoYXJyYXk6bm9uZTtzdHJva2Utb3BhY2l0eToxIiBkPSJNIDYyOTYsODEwNCBWIDczNTMiLz4mI3hhOyAgICAgICAgPHBhdGggaWQ9InBhdGg2MTYiIHN0eWxlPSJmaWxsOm5vbmU7c3Ryb2tlOiMwMDAwMDA7c3Ryb2tlLXdpZHRoOjEyO3N0cm9rZS1saW5lY2FwOnJvdW5kO3N0cm9rZS1saW5lam9pbjpyb3VuZDtzdHJva2UtbWl0ZXJsaW1pdDoxMDtzdHJva2UtZGFzaGFycmF5Om5vbmU7c3Ryb2tlLW9wYWNpdHk6MSIgZD0iTSA3MzU0LDgxMDQgViA3MzUzIi8+JiN4YTsgICAgICAgIDxwYXRoIGlkPSJwYXRoNjE4IiBzdHlsZT0iZmlsbDpub25lO3N0cm9rZTojMDAwMDAwO3N0cm9rZS13aWR0aDoxMjtzdHJva2UtbGluZWNhcDpyb3VuZDtzdHJva2UtbGluZWpvaW46cm91bmQ7c3Ryb2tlLW1pdGVybGltaXQ6MTA7c3Ryb2tlLWRhc2hhcnJheTpub25lO3N0cm9rZS1vcGFjaXR5OjEiIGQ9Im0gNjQ2MSw3NDUyIGggNzI3Ii8+JiN4YTsgICAgICAgIDxnIGlkPSJnNjIwIj4mI3hhOyAgICAgICAgICA8cGF0aCBpZD0icGF0aDYyMiIgc3R5bGU9ImZpbGw6IzAwMDAwMDtmaWxsLW9wYWNpdHk6MTtmaWxsLXJ1bGU6bm9uemVybztzdHJva2U6IzAwMDAwMDtzdHJva2Utd2lkdGg6MTIuNTtzdHJva2UtbGluZWNhcDpyb3VuZDtzdHJva2UtbGluZWpvaW46bWl0ZXI7c3Ryb2tlLW1pdGVybGltaXQ6MTA7c3Ryb2tlLWRhc2hhcnJheTpub25lO3N0cm9rZS1vcGFjaXR5OjEiIGQ9Im0gNjQ2MSw3NDc5IHYgLTU1IGwgLTE2NSwyOCB6Ii8+JiN4YTsgICAgICAgIDwvZz4mI3hhOyAgICAgICAgPGcgaWQ9Imc2MjQiPiYjeGE7ICAgICAgICAgIDxwYXRoIGlkPSJwYXRoNjI2IiBzdHlsZT0iZmlsbDojMDAwMDAwO2ZpbGwtb3BhY2l0eToxO2ZpbGwtcnVsZTpub256ZXJvO3N0cm9rZTojMDAwMDAwO3N0cm9rZS13aWR0aDoxMi41O3N0cm9rZS1saW5lY2FwOnJvdW5kO3N0cm9rZS1saW5lam9pbjptaXRlcjtzdHJva2UtbWl0ZXJsaW1pdDoxMDtzdHJva2UtZGFzaGFycmF5Om5vbmU7c3Ryb2tlLW9wYWNpdHk6MSIgZD0ibSA3MTg4LDc0NzkgdiAtNTUgbCAxNjYsMjggeiIvPiYjeGE7ICAgICAgICA8L2c+JiN4YTsgICAgICAgIDx0ZXh0IGlkPSJ0ZXh0NjMwIiBzdHlsZT0iZm9udC12YXJpYW50Om5vcm1hbDtmb250LXdlaWdodDpub3JtYWw7Zm9udC1zaXplOjIyNy40MjNweDtmb250LWZhbWlseTpWZXJkYW5hOy1pbmtzY2FwZS1mb250LXNwZWNpZmljYXRpb246VmVyZGFuYTt3cml0aW5nLW1vZGU6bHItdGI7ZmlsbDojMDAwMDAwO2ZpbGwtb3BhY2l0eToxO2ZpbGwtcnVsZTpub256ZXJvO3N0cm9rZTpub25lIiB0cmFuc2Zvcm09Im1hdHJpeCgxLDAsMCwtMSw2NTYzLDc1MTgpIiB4bWw6c3BhY2U9InByZXNlcnZlIj48dHNwYW4gaWQ9InRzcGFuNjI4IiB5PSIwIiB4PSIwIDE0NC42NDEwMiAyODkuMjgyMDQgMzcyLjA2NDAzIj4yMi40PC90c3Bhbj48L3RleHQ+JiN4YTsgICAgICAgIDxwYXRoIGlkPSJwYXRoNjMyIiBzdHlsZT0iZmlsbDpub25lO3N0cm9rZTojMDAwMDAwO3N0cm9rZS13aWR0aDoxMjtzdHJva2UtbGluZWNhcDpyb3VuZDtzdHJva2UtbGluZWpvaW46cm91bmQ7c3Ryb2tlLW1pdGVybGltaXQ6MTA7c3Ryb2tlLWRhc2hhcnJheTpub25lO3N0cm9rZS1vcGFjaXR5OjEiIGQ9Ik0gNjE5Niw4MjAzIEggNTQ3NiIvPiYjeGE7ICAgICAgICA8cGF0aCBpZD0icGF0aDYzNCIgc3R5bGU9ImZpbGw6bm9uZTtzdHJva2U6IzAwMDAwMDtzdHJva2Utd2lkdGg6MTI7c3Ryb2tlLWxpbmVjYXA6cm91bmQ7c3Ryb2tlLWxpbmVqb2luOnJvdW5kO3N0cm9rZS1taXRlcmxpbWl0OjEwO3N0cm9rZS1kYXNoYXJyYXk6bm9uZTtzdHJva2Utb3BhY2l0eToxIiBkPSJNIDYxNDAsNzgyNSBIIDU0NzYiLz4mI3hhOyAgICAgICAgPHBhdGggaWQ9InBhdGg2MzYiIHN0eWxlPSJmaWxsOm5vbmU7c3Ryb2tlOiMwMDAwMDA7c3Ryb2tlLXdpZHRoOjEyO3N0cm9rZS1saW5lY2FwOnJvdW5kO3N0cm9rZS1saW5lam9pbjpyb3VuZDtzdHJva2UtbWl0ZXJsaW1pdDoxMDtzdHJva2UtZGFzaGFycmF5Om5vbmU7c3Ryb2tlLW9wYWNpdHk6MSIgZD0ibSA1NTc1LDgzNjkgdiAxNjUiLz4mI3hhOyAgICAgICAgPHBhdGggaWQ9InBhdGg2MzgiIHN0eWxlPSJmaWxsOm5vbmU7c3Ryb2tlOiMwMDAwMDA7c3Ryb2tlLXdpZHRoOjEyO3N0cm9rZS1saW5lY2FwOnJvdW5kO3N0cm9rZS1saW5lam9pbjpyb3VuZDtzdHJva2UtbWl0ZXJsaW1pdDoxMDtzdHJva2UtZGFzaGFycmF5Om5vbmU7c3Ryb2tlLW9wYWNpdHk6MSIgZD0iTSA1NTc1LDc2NjAgViA3NDk1Ii8+JiN4YTsgICAgICAgIDxwYXRoIGlkPSJwYXRoNjQwIiBzdHlsZT0iZmlsbDpub25lO3N0cm9rZTojMDAwMDAwO3N0cm9rZS13aWR0aDoxMjtzdHJva2UtbGluZWNhcDpyb3VuZDtzdHJva2UtbGluZWpvaW46cm91bmQ7c3Ryb2tlLW1pdGVybGltaXQ6MTA7c3Ryb2tlLWRhc2hhcnJheTpub25lO3N0cm9rZS1vcGFjaXR5OjEiIGQ9Ik0gNTU3NSw4MjAzIFYgNzgyNSIvPiYjeGE7ICAgICAgICA8ZyBpZD0iZzY0MiI+JiN4YTsgICAgICAgICAgPHBhdGggaWQ9InBhdGg2NDQiIHN0eWxlPSJmaWxsOiMwMDAwMDA7ZmlsbC1vcGFjaXR5OjE7ZmlsbC1ydWxlOm5vbnplcm87c3Ryb2tlOiMwMDAwMDA7c3Ryb2tlLXdpZHRoOjEyLjU7c3Ryb2tlLWxpbmVjYXA6cm91bmQ7c3Ryb2tlLWxpbmVqb2luOm1pdGVyO3N0cm9rZS1taXRlcmxpbWl0OjEwO3N0cm9rZS1kYXNoYXJyYXk6bm9uZTtzdHJva2Utb3BhY2l0eToxIiBkPSJtIDU1NDcsODM2OSBoIDU1IGwgLTI3LC0xNjYgeiIvPiYjeGE7ICAgICAgICA8L2c+JiN4YTsgICAgICAgIDxnIGlkPSJnNjQ2Ij4mI3hhOyAgICAgICAgICA8cGF0aCBpZD0icGF0aDY0OCIgc3R5bGU9ImZpbGw6IzAwMDAwMDtmaWxsLW9wYWNpdHk6MTtmaWxsLXJ1bGU6bm9uemVybztzdHJva2U6IzAwMDAwMDtzdHJva2Utd2lkdGg6MTIuNTtzdHJva2UtbGluZWNhcDpyb3VuZDtzdHJva2UtbGluZWpvaW46bWl0ZXI7c3Ryb2tlLW1pdGVybGltaXQ6MTA7c3Ryb2tlLWRhc2hhcnJheTpub25lO3N0cm9rZS1vcGFjaXR5OjEiIGQ9Im0gNTU0Nyw3NjYwIGggNTUgbCAtMjcsMTY1IHoiLz4mI3hhOyAgICAgICAgPC9nPiYjeGE7ICAgICAgICA8dGV4dCBpZD0idGV4dDY1MiIgc3R5bGU9ImZvbnQtdmFyaWFudDpub3JtYWw7Zm9udC13ZWlnaHQ6bm9ybWFsO2ZvbnQtc2l6ZToyMjcuNDIzcHg7Zm9udC1mYW1pbHk6VmVyZGFuYTstaW5rc2NhcGUtZm9udC1zcGVjaWZpY2F0aW9uOlZlcmRhbmE7d3JpdGluZy1tb2RlOmxyLXRiO2ZpbGw6IzAwMDAwMDtmaWxsLW9wYWNpdHk6MTtmaWxsLXJ1bGU6bm9uemVybztzdHJva2U6bm9uZSIgdHJhbnNmb3JtPSJtYXRyaXgoMCwxLDEsMCw1NTA1LDc5NDIpIiB4bWw6c3BhY2U9InByZXNlcnZlIj48dHNwYW4gaWQ9InRzcGFuNjUwIiB5PSIwIiB4PSIwIj44PC90c3Bhbj48L3RleHQ+JiN4YTsgICAgICAgIDxwYXRoIGlkPSJwYXRoNjU0IiBzdHlsZT0iZmlsbDpub25lO3N0cm9rZTojMDAwMDAwO3N0cm9rZS13aWR0aDoxMjtzdHJva2UtbGluZWNhcDpyb3VuZDtzdHJva2UtbGluZWpvaW46cm91bmQ7c3Ryb2tlLW1pdGVybGltaXQ6MTA7c3Ryb2tlLWRhc2hhcnJheTpub25lO3N0cm9rZS1vcGFjaXR5OjEiIGQ9Ik0gNjY0MCw4ODE3IEggODI2NSIvPiYjeGE7ICAgICAgICA8cGF0aCBpZD0icGF0aDY1NiIgc3R5bGU9ImZpbGw6bm9uZTtzdHJva2U6IzAwMDAwMDtzdHJva2Utd2lkdGg6MTI7c3Ryb2tlLWxpbmVjYXA6cm91bmQ7c3Ryb2tlLWxpbmVqb2luOnJvdW5kO3N0cm9rZS1taXRlcmxpbWl0OjEwO3N0cm9rZS1kYXNoYXJyYXk6bm9uZTtzdHJva2Utb3BhY2l0eToxIiBkPSJNIDY2NDAsODYyOCBIIDgyNjUiLz4mI3hhOyAgICAgICAgPHBhdGggaWQ9InBhdGg2NTgiIHN0eWxlPSJmaWxsOm5vbmU7c3Ryb2tlOiMwMDAwMDA7c3Ryb2tlLXdpZHRoOjEyO3N0cm9rZS1saW5lY2FwOnJvdW5kO3N0cm9rZS1saW5lam9pbjpyb3VuZDtzdHJva2UtbWl0ZXJsaW1pdDoxMDtzdHJva2UtZGFzaGFycmF5Om5vbmU7c3Ryb2tlLW9wYWNpdHk6MSIgZD0ibSA4MTY2LDg5ODMgdiAxNjUiLz4mI3hhOyAgICAgICAgPHBhdGggaWQ9InBhdGg2NjAiIHN0eWxlPSJmaWxsOm5vbmU7c3Ryb2tlOiMwMDAwMDA7c3Ryb2tlLXdpZHRoOjEyO3N0cm9rZS1saW5lY2FwOnJvdW5kO3N0cm9rZS1saW5lam9pbjpyb3VuZDtzdHJva2UtbWl0ZXJsaW1pdDoxMDtzdHJva2UtZGFzaGFycmF5Om5vbmU7c3Ryb2tlLW9wYWNpdHk6MSIgZD0iTSA4MTY2LDg0NjMgViA4Mjk4Ii8+JiN4YTsgICAgICAgIDxwYXRoIGlkPSJwYXRoNjYyIiBzdHlsZT0iZmlsbDpub25lO3N0cm9rZTojMDAwMDAwO3N0cm9rZS13aWR0aDoxMjtzdHJva2UtbGluZWNhcDpyb3VuZDtzdHJva2UtbGluZWpvaW46cm91bmQ7c3Ryb2tlLW1pdGVybGltaXQ6MTA7c3Ryb2tlLWRhc2hhcnJheTpub25lO3N0cm9rZS1vcGFjaXR5OjEiIGQ9Ik0gODE2Niw4ODE3IFYgODYyOCIvPiYjeGE7ICAgICAgICA8ZyBpZD0iZzY2NCI+JiN4YTsgICAgICAgICAgPHBhdGggaWQ9InBhdGg2NjYiIHN0eWxlPSJmaWxsOiMwMDAwMDA7ZmlsbC1vcGFjaXR5OjE7ZmlsbC1ydWxlOm5vbnplcm87c3Ryb2tlOiMwMDAwMDA7c3Ryb2tlLXdpZHRoOjEyLjU7c3Ryb2tlLWxpbmVjYXA6cm91bmQ7c3Ryb2tlLWxpbmVqb2luOm1pdGVyO3N0cm9rZS1taXRlcmxpbWl0OjEwO3N0cm9rZS1kYXNoYXJyYXk6bm9uZTtzdHJva2Utb3BhY2l0eToxIiBkPSJtIDgxMzgsODk4MyBoIDU2IGwgLTI4LC0xNjYgeiIvPiYjeGE7ICAgICAgICA8L2c+JiN4YTsgICAgICAgIDxnIGlkPSJnNjY4Ij4mI3hhOyAgICAgICAgICA8cGF0aCBpZD0icGF0aDY3MCIgc3R5bGU9ImZpbGw6IzAwMDAwMDtmaWxsLW9wYWNpdHk6MTtmaWxsLXJ1bGU6bm9uemVybztzdHJva2U6IzAwMDAwMDtzdHJva2Utd2lkdGg6MTIuNTtzdHJva2UtbGluZWNhcDpyb3VuZDtzdHJva2UtbGluZWpvaW46bWl0ZXI7c3Ryb2tlLW1pdGVybGltaXQ6MTA7c3Ryb2tlLWRhc2hhcnJheTpub25lO3N0cm9rZS1vcGFjaXR5OjEiIGQ9Im0gODEzOCw4NDYzIGggNTYgbCAtMjgsMTY1IHoiLz4mI3hhOyAgICAgICAgPC9nPiYjeGE7ICAgICAgICA8dGV4dCBpZD0idGV4dDY3NCIgc3R5bGU9ImZvbnQtdmFyaWFudDpub3JtYWw7Zm9udC13ZWlnaHQ6bm9ybWFsO2ZvbnQtc2l6ZToyMjcuNDIzcHg7Zm9udC1mYW1pbHk6VmVyZGFuYTstaW5rc2NhcGUtZm9udC1zcGVjaWZpY2F0aW9uOlZlcmRhbmE7d3JpdGluZy1tb2RlOmxyLXRiO2ZpbGw6IzAwMDAwMDtmaWxsLW9wYWNpdHk6MTtmaWxsLXJ1bGU6bm9uemVybztzdHJva2U6bm9uZSIgdHJhbnNmb3JtPSJtYXRyaXgoMCwxLDEsMCw4MTAwLDg2NTIpIiB4bWw6c3BhY2U9InByZXNlcnZlIj48dHNwYW4gaWQ9InRzcGFuNjcyIiB5PSIwIiB4PSIwIj40PC90c3Bhbj48L3RleHQ+JiN4YTsgICAgICAgIDxwYXRoIGlkPSJwYXRoNjc2IiBzdHlsZT0iZmlsbDpub25lO3N0cm9rZTojMDAwMDAwO3N0cm9rZS13aWR0aDoxMjtzdHJva2UtbGluZWNhcDpyb3VuZDtzdHJva2UtbGluZWpvaW46cm91bmQ7c3Ryb2tlLW1pdGVybGltaXQ6MTA7c3Ryb2tlLWRhc2hhcnJheTpub25lO3N0cm9rZS1vcGFjaXR5OjEiIGQ9Ik0gNjY0MCw4NjI4IEggODI2NSIvPiYjeGE7ICAgICAgICA8cGF0aCBpZD0icGF0aDY3OCIgc3R5bGU9ImZpbGw6bm9uZTtzdHJva2U6IzAwMDAwMDtzdHJva2Utd2lkdGg6MTI7c3Ryb2tlLWxpbmVjYXA6cm91bmQ7c3Ryb2tlLWxpbmVqb2luOnJvdW5kO3N0cm9rZS1taXRlcmxpbWl0OjEwO3N0cm9rZS1kYXNoYXJyYXk6bm9uZTtzdHJva2Utb3BhY2l0eToxIiBkPSJNIDcyMDcsODIwMyBIIDgyNjUiLz4mI3hhOyAgICAgICAgPHBhdGggaWQ9InBhdGg2ODAiIHN0eWxlPSJmaWxsOm5vbmU7c3Ryb2tlOiMwMDAwMDA7c3Ryb2tlLXdpZHRoOjEyO3N0cm9rZS1saW5lY2FwOnJvdW5kO3N0cm9rZS1saW5lam9pbjpyb3VuZDtzdHJva2UtbWl0ZXJsaW1pdDoxMDtzdHJva2UtZGFzaGFycmF5Om5vbmU7c3Ryb2tlLW9wYWNpdHk6MSIgZD0ibSA4MTY2LDg3OTQgdiAxNjUiLz4mI3hhOyAgICAgICAgPHBhdGggaWQ9InBhdGg2ODIiIHN0eWxlPSJmaWxsOm5vbmU7c3Ryb2tlOiMwMDAwMDA7c3Ryb2tlLXdpZHRoOjEyO3N0cm9rZS1saW5lY2FwOnJvdW5kO3N0cm9rZS1saW5lam9pbjpyb3VuZDtzdHJva2UtbWl0ZXJsaW1pdDoxMDtzdHJva2UtZGFzaGFycmF5Om5vbmU7c3Ryb2tlLW9wYWNpdHk6MSIgZD0iTSA4MTY2LDgwMzggViA3NDMzIi8+JiN4YTsgICAgICAgIDxwYXRoIGlkPSJwYXRoNjg0IiBzdHlsZT0iZmlsbDpub25lO3N0cm9rZTojMDAwMDAwO3N0cm9rZS13aWR0aDoxMjtzdHJva2UtbGluZWNhcDpyb3VuZDtzdHJva2UtbGluZWpvaW46cm91bmQ7c3Ryb2tlLW1pdGVybGltaXQ6MTA7c3Ryb2tlLWRhc2hhcnJheTpub25lO3N0cm9rZS1vcGFjaXR5OjEiIGQ9Ik0gODE2Niw4NjI4IFYgODIwMyIvPiYjeGE7ICAgICAgICA8ZyBpZD0iZzY4NiI+JiN4YTsgICAgICAgICAgPHBhdGggaWQ9InBhdGg2ODgiIHN0eWxlPSJmaWxsOiMwMDAwMDA7ZmlsbC1vcGFjaXR5OjE7ZmlsbC1ydWxlOm5vbnplcm87c3Ryb2tlOiMwMDAwMDA7c3Ryb2tlLXdpZHRoOjEyLjU7c3Ryb2tlLWxpbmVjYXA6cm91bmQ7c3Ryb2tlLWxpbmVqb2luOm1pdGVyO3N0cm9rZS1taXRlcmxpbWl0OjEwO3N0cm9rZS1kYXNoYXJyYXk6bm9uZTtzdHJva2Utb3BhY2l0eToxIiBkPSJtIDgxMzgsODc5NCBoIDU1IGwgLTI3LC0xNjYgeiIvPiYjeGE7ICAgICAgICA8L2c+JiN4YTsgICAgICAgIDxnIGlkPSJnNjkwIj4mI3hhOyAgICAgICAgICA8cGF0aCBpZD0icGF0aDY5MiIgc3R5bGU9ImZpbGw6IzAwMDAwMDtmaWxsLW9wYWNpdHk6MTtmaWxsLXJ1bGU6bm9uemVybztzdHJva2U6IzAwMDAwMDtzdHJva2Utd2lkdGg6MTIuNTtzdHJva2UtbGluZWNhcDpyb3VuZDtzdHJva2UtbGluZWpvaW46bWl0ZXI7c3Ryb2tlLW1pdGVybGltaXQ6MTA7c3Ryb2tlLWRhc2hhcnJheTpub25lO3N0cm9rZS1vcGFjaXR5OjEiIGQ9Im0gODEzOCw4MDM4IGggNTUgbCAtMjcsMTY1IHoiLz4mI3hhOyAgICAgICAgPC9nPiYjeGE7ICAgICAgICA8dGV4dCBpZD0idGV4dDY5NiIgc3R5bGU9ImZvbnQtdmFyaWFudDpub3JtYWw7Zm9udC13ZWlnaHQ6bm9ybWFsO2ZvbnQtc2l6ZToyMjcuNDIzcHg7Zm9udC1mYW1pbHk6VmVyZGFuYTstaW5rc2NhcGUtZm9udC1zcGVjaWZpY2F0aW9uOlZlcmRhbmE7d3JpdGluZy1tb2RlOmxyLXRiO2ZpbGw6IzAwMDAwMDtmaWxsLW9wYWNpdHk6MTtmaWxsLXJ1bGU6bm9uemVybztzdHJva2U6bm9uZSIgdHJhbnNmb3JtPSJtYXRyaXgoMCwxLDEsMCw4MDk2LDc0ODcpIiB4bWw6c3BhY2U9InByZXNlcnZlIj48dHNwYW4gaWQ9InRzcGFuNjk0IiB5PSIwIiB4PSIwIj45PC90c3Bhbj48L3RleHQ+JiN4YTsgICAgICAgIDxwYXRoIGlkPSJwYXRoNjk4IiBzdHlsZT0iZmlsbDpub25lO3N0cm9rZTojMDAwMDAwO3N0cm9rZS13aWR0aDoxMjtzdHJva2UtbGluZWNhcDpyb3VuZDtzdHJva2UtbGluZWpvaW46cm91bmQ7c3Ryb2tlLW1pdGVybGltaXQ6MTA7c3Ryb2tlLWRhc2hhcnJheTpub25lO3N0cm9rZS1vcGFjaXR5OjEiIGQ9Ik0gMjEwMSw0NDY2IFYgMzkwMCIvPiYjeGE7ICAgICAgICA8cGF0aCBpZD0icGF0aDcwMCIgc3R5bGU9ImZpbGw6bm9uZTtzdHJva2U6IzAwMDAwMDtzdHJva2Utd2lkdGg6MTI7c3Ryb2tlLWxpbmVjYXA6cm91bmQ7c3Ryb2tlLWxpbmVqb2luOnJvdW5kO3N0cm9rZS1taXRlcmxpbWl0OjEwO3N0cm9rZS1kYXNoYXJyYXk6bm9uZTtzdHJva2Utb3BhY2l0eToxIiBkPSJNIDM0MjQsNDQ2NiBWIDM5MDAiLz4mI3hhOyAgICAgICAgPHBhdGggaWQ9InBhdGg3MDIiIHN0eWxlPSJmaWxsOm5vbmU7c3Ryb2tlOiMwMDAwMDA7c3Ryb2tlLXdpZHRoOjEyO3N0cm9rZS1saW5lY2FwOnJvdW5kO3N0cm9rZS1saW5lam9pbjpyb3VuZDtzdHJva2UtbWl0ZXJsaW1pdDoxMDtzdHJva2UtZGFzaGFycmF5Om5vbmU7c3Ryb2tlLW9wYWNpdHk6MSIgZD0ibSAyMjY2LDM5OTkgaCA5OTIiLz4mI3hhOyAgICAgICAgPGcgaWQ9Imc3MDQiPiYjeGE7ICAgICAgICAgIDxwYXRoIGlkPSJwYXRoNzA2IiBzdHlsZT0iZmlsbDojMDAwMDAwO2ZpbGwtb3BhY2l0eToxO2ZpbGwtcnVsZTpub256ZXJvO3N0cm9rZTojMDAwMDAwO3N0cm9rZS13aWR0aDoxMi41O3N0cm9rZS1saW5lY2FwOnJvdW5kO3N0cm9rZS1saW5lam9pbjptaXRlcjtzdHJva2UtbWl0ZXJsaW1pdDoxMDtzdHJva2UtZGFzaGFycmF5Om5vbmU7c3Ryb2tlLW9wYWNpdHk6MSIgZD0ibSAyMjY2LDQwMjcgdiAtNTUgbCAtMTY1LDI3IHoiLz4mI3hhOyAgICAgICAgPC9nPiYjeGE7ICAgICAgICA8ZyBpZD0iZzcwOCI+JiN4YTsgICAgICAgICAgPHBhdGggaWQ9InBhdGg3MTAiIHN0eWxlPSJmaWxsOiMwMDAwMDA7ZmlsbC1vcGFjaXR5OjE7ZmlsbC1ydWxlOm5vbnplcm87c3Ryb2tlOiMwMDAwMDA7c3Ryb2tlLXdpZHRoOjEyLjU7c3Ryb2tlLWxpbmVjYXA6cm91bmQ7c3Ryb2tlLWxpbmVqb2luOm1pdGVyO3N0cm9rZS1taXRlcmxpbWl0OjEwO3N0cm9rZS1kYXNoYXJyYXk6bm9uZTtzdHJva2Utb3BhY2l0eToxIiBkPSJtIDMyNTgsNDAyNyB2IC01NSBsIDE2NiwyNyB6Ii8+JiN4YTsgICAgICAgIDwvZz4mI3hhOyAgICAgICAgPHRleHQgaWQ9InRleHQ3MTQiIHN0eWxlPSJmb250LXZhcmlhbnQ6bm9ybWFsO2ZvbnQtd2VpZ2h0Om5vcm1hbDtmb250LXNpemU6MjI3LjQyM3B4O2ZvbnQtZmFtaWx5OlZlcmRhbmE7LWlua3NjYXBlLWZvbnQtc3BlY2lmaWNhdGlvbjpWZXJkYW5hO3dyaXRpbmctbW9kZTpsci10YjtmaWxsOiMwMDAwMDA7ZmlsbC1vcGFjaXR5OjE7ZmlsbC1ydWxlOm5vbnplcm87c3Ryb2tlOm5vbmUiIHRyYW5zZm9ybT0ibWF0cml4KDEsMCwwLC0xLDI2MTUsNDA2OSkiIHhtbDpzcGFjZT0icHJlc2VydmUiPjx0c3BhbiBpZD0idHNwYW43MTIiIHk9IjAiIHg9IjAgMTQ0LjY0MTAyIj4yODwvdHNwYW4+PC90ZXh0PiYjeGE7ICAgICAgICA8cGF0aCBpZD0icGF0aDcxNiIgc3R5bGU9ImZpbGw6bm9uZTtzdHJva2U6IzAwMDAwMDtzdHJva2Utd2lkdGg6MTI7c3Ryb2tlLWxpbmVjYXA6cm91bmQ7c3Ryb2tlLWxpbmVqb2luOnJvdW5kO3N0cm9rZS1taXRlcmxpbWl0OjEwO3N0cm9rZS1kYXNoYXJyYXk6bm9uZTtzdHJva2Utb3BhY2l0eToxIiBkPSJtIDMyMzksNjQ1NyAyNzMsMTM3Ii8+JiN4YTsgICAgICAgIDxwYXRoIGlkPSJwYXRoNzE4IiBzdHlsZT0iZmlsbDpub25lO3N0cm9rZTojMDAwMDAwO3N0cm9rZS13aWR0aDoxMjtzdHJva2UtbGluZWNhcDpyb3VuZDtzdHJva2UtbGluZWpvaW46cm91bmQ7c3Ryb2tlLW1pdGVybGltaXQ6MTA7c3Ryb2tlLWRhc2hhcnJheTpub25lO3N0cm9rZS1vcGFjaXR5OjEiIGQ9Im0gMzQyNCw2MzQzIHYgMzA2Ii8+JiN4YTsgICAgICAgIDxwYXRoIGlkPSJwYXRoNzIwIiBzdHlsZT0iZmlsbDpub25lO3N0cm9rZTojMDAwMDAwO3N0cm9rZS13aWR0aDoxMjtzdHJva2UtbGluZWNhcDpyb3VuZDtzdHJva2UtbGluZWpvaW46cm91bmQ7c3Ryb2tlLW1pdGVybGltaXQ6MTA7c3Ryb2tlLWRhc2hhcnJheTpub25lO3N0cm9rZS1vcGFjaXR5OjEiIGQ9Im0gMzUyMyw2NTUwIGggMzQ1Ii8+JiN4YTsgICAgICAgIDxwYXRoIGlkPSJwYXRoNzIyIiBzdHlsZT0iZmlsbDpub25lO3N0cm9rZTojMDAwMDAwO3N0cm9rZS13aWR0aDoxMjtzdHJva2UtbGluZWNhcDpyb3VuZDtzdHJva2UtbGluZWpvaW46cm91bmQ7c3Ryb2tlLW1pdGVybGltaXQ6MTA7c3Ryb2tlLWRhc2hhcnJheTpub25lO3N0cm9rZS1vcGFjaXR5OjEiIGQ9Im0gMzMzNCw0Mzc3IGggNTM0Ii8+JiN4YTsgICAgICAgIDxwYXRoIGlkPSJwYXRoNzI0IiBzdHlsZT0iZmlsbDpub25lO3N0cm9rZTojMDAwMDAwO3N0cm9rZS13aWR0aDoxMjtzdHJva2UtbGluZWNhcDpyb3VuZDtzdHJva2UtbGluZWpvaW46cm91bmQ7c3Ryb2tlLW1pdGVybGltaXQ6MTA7c3Ryb2tlLWRhc2hhcnJheTpub25lO3N0cm9rZS1vcGFjaXR5OjEiIGQ9Ik0gMzc2OSw2Mzg0IFYgNDU0MiIvPiYjeGE7ICAgICAgICA8ZyBpZD0iZzcyNiI+JiN4YTsgICAgICAgICAgPHBhdGggaWQ9InBhdGg3MjgiIHN0eWxlPSJmaWxsOiMwMDAwMDA7ZmlsbC1vcGFjaXR5OjE7ZmlsbC1ydWxlOm5vbnplcm87c3Ryb2tlOiMwMDAwMDA7c3Ryb2tlLXdpZHRoOjEyLjU7c3Ryb2tlLWxpbmVjYXA6cm91bmQ7c3Ryb2tlLWxpbmVqb2luOm1pdGVyO3N0cm9rZS1taXRlcmxpbWl0OjEwO3N0cm9rZS1kYXNoYXJyYXk6bm9uZTtzdHJva2Utb3BhY2l0eToxIiBkPSJtIDM3NDEsNjM4NCBoIDU1IGwgLTI3LDE2NiB6Ii8+JiN4YTsgICAgICAgIDwvZz4mI3hhOyAgICAgICAgPGcgaWQ9Imc3MzAiPiYjeGE7ICAgICAgICAgIDxwYXRoIGlkPSJwYXRoNzMyIiBzdHlsZT0iZmlsbDojMDAwMDAwO2ZpbGwtb3BhY2l0eToxO2ZpbGwtcnVsZTpub256ZXJvO3N0cm9rZTojMDAwMDAwO3N0cm9rZS13aWR0aDoxMi41O3N0cm9rZS1saW5lY2FwOnJvdW5kO3N0cm9rZS1saW5lam9pbjptaXRlcjtzdHJva2UtbWl0ZXJsaW1pdDoxMDtzdHJva2UtZGFzaGFycmF5Om5vbmU7c3Ryb2tlLW9wYWNpdHk6MSIgZD0ibSAzNzQxLDQ1NDIgaCA1NSBsIC0yNywtMTY1IHoiLz4mI3hhOyAgICAgICAgPC9nPiYjeGE7ICAgICAgICA8dGV4dCBpZD0idGV4dDczNiIgc3R5bGU9ImZvbnQtdmFyaWFudDpub3JtYWw7Zm9udC13ZWlnaHQ6bm9ybWFsO2ZvbnQtc2l6ZToyMjcuNDIzcHg7Zm9udC1mYW1pbHk6VmVyZGFuYTstaW5rc2NhcGUtZm9udC1zcGVjaWZpY2F0aW9uOlZlcmRhbmE7d3JpdGluZy1tb2RlOmxyLXRiO2ZpbGw6IzAwMDAwMDtmaWxsLW9wYWNpdHk6MTtmaWxsLXJ1bGU6bm9uemVybztzdHJva2U6bm9uZSIgdHJhbnNmb3JtPSJtYXRyaXgoMCwxLDEsMCwzNjk5LDUzMjApIiB4bWw6c3BhY2U9InByZXNlcnZlIj48dHNwYW4gaWQ9InRzcGFuNzM0IiB5PSIwIiB4PSIwIDE0NC42NDEwMiI+NDY8L3RzcGFuPjwvdGV4dD4mI3hhOyAgICAgICAgPHBhdGggaWQ9InBhdGg3MzgiIHN0eWxlPSJmaWxsOm5vbmU7c3Ryb2tlOiMwMDAwMDA7c3Ryb2tlLXdpZHRoOjEyO3N0cm9rZS1saW5lY2FwOnJvdW5kO3N0cm9rZS1saW5lam9pbjpyb3VuZDtzdHJva2UtbWl0ZXJsaW1pdDoxMDtzdHJva2UtZGFzaGFycmF5Om5vbmU7c3Ryb2tlLW9wYWNpdHk6MSIgZD0iTSAyMTkxLDYwNzcgSCAxNjk0Ii8+JiN4YTsgICAgICAgIDxwYXRoIGlkPSJwYXRoNzQwIiBzdHlsZT0iZmlsbDpub25lO3N0cm9rZTojMDAwMDAwO3N0cm9rZS13aWR0aDoxMjtzdHJva2UtbGluZWNhcDpyb3VuZDtzdHJva2UtbGluZWpvaW46cm91bmQ7c3Ryb2tlLW1pdGVybGltaXQ6MTA7c3Ryb2tlLWRhc2hhcnJheTpub25lO3N0cm9rZS1vcGFjaXR5OjEiIGQ9Ik0gMjE5MSw0Mzc3IEggMTY5NCIvPiYjeGE7ICAgICAgICA8cGF0aCBpZD0icGF0aDc0MiIgc3R5bGU9ImZpbGw6bm9uZTtzdHJva2U6IzAwMDAwMDtzdHJva2Utd2lkdGg6MTI7c3Ryb2tlLWxpbmVjYXA6cm91bmQ7c3Ryb2tlLWxpbmVqb2luOnJvdW5kO3N0cm9rZS1taXRlcmxpbWl0OjEwO3N0cm9rZS1kYXNoYXJyYXk6bm9uZTtzdHJva2Utb3BhY2l0eToxIiBkPSJNIDE3OTQsNTkxMiBWIDQ1NDIiLz4mI3hhOyAgICAgICAgPGcgaWQ9Imc3NDQiPiYjeGE7ICAgICAgICAgIDxwYXRoIGlkPSJwYXRoNzQ2IiBzdHlsZT0iZmlsbDojMDAwMDAwO2ZpbGwtb3BhY2l0eToxO2ZpbGwtcnVsZTpub256ZXJvO3N0cm9rZTojMDAwMDAwO3N0cm9rZS13aWR0aDoxMi41O3N0cm9rZS1saW5lY2FwOnJvdW5kO3N0cm9rZS1saW5lam9pbjptaXRlcjtzdHJva2UtbWl0ZXJsaW1pdDoxMDtzdHJva2UtZGFzaGFycmF5Om5vbmU7c3Ryb2tlLW9wYWNpdHk6MSIgZD0ibSAxNzY2LDU5MTIgaCA1NSBsIC0yNywxNjUgeiIvPiYjeGE7ICAgICAgICA8L2c+JiN4YTsgICAgICAgIDxnIGlkPSJnNzQ4Ij4mI3hhOyAgICAgICAgICA8cGF0aCBpZD0icGF0aDc1MCIgc3R5bGU9ImZpbGw6IzAwMDAwMDtmaWxsLW9wYWNpdHk6MTtmaWxsLXJ1bGU6bm9uemVybztzdHJva2U6IzAwMDAwMDtzdHJva2Utd2lkdGg6MTIuNTtzdHJva2UtbGluZWNhcDpyb3VuZDtzdHJva2UtbGluZWpvaW46bWl0ZXI7c3Ryb2tlLW1pdGVybGltaXQ6MTA7c3Ryb2tlLWRhc2hhcnJheTpub25lO3N0cm9rZS1vcGFjaXR5OjEiIGQ9Im0gMTc2Niw0NTQyIGggNTUgbCAtMjcsLTE2NSB6Ii8+JiN4YTsgICAgICAgIDwvZz4mI3hhOyAgICAgICAgPHRleHQgaWQ9InRleHQ3NTQiIHN0eWxlPSJmb250LXZhcmlhbnQ6bm9ybWFsO2ZvbnQtd2VpZ2h0Om5vcm1hbDtmb250LXNpemU6MjI3LjQyM3B4O2ZvbnQtZmFtaWx5OlZlcmRhbmE7LWlua3NjYXBlLWZvbnQtc3BlY2lmaWNhdGlvbjpWZXJkYW5hO3dyaXRpbmctbW9kZTpsci10YjtmaWxsOiMwMDAwMDA7ZmlsbC1vcGFjaXR5OjE7ZmlsbC1ydWxlOm5vbnplcm87c3Ryb2tlOm5vbmUiIHRyYW5zZm9ybT0ibWF0cml4KDAsMSwxLDAsMTcyNCw1MDc5KSIgeG1sOnNwYWNlPSJwcmVzZXJ2ZSI+PHRzcGFuIGlkPSJ0c3Bhbjc1MiIgeT0iMCIgeD0iMCAxNDQuNjQxMDIiPjM2PC90c3Bhbj48L3RleHQ+JiN4YTsgICAgICAgIDxwYXRoIGlkPSJwYXRoNzU2IiBzdHlsZT0iZmlsbDpub25lO3N0cm9rZTojMDAwMDAwO3N0cm9rZS13aWR0aDoxMjtzdHJva2UtbGluZWNhcDpyb3VuZDtzdHJva2UtbGluZWpvaW46cm91bmQ7c3Ryb2tlLW1pdGVybGltaXQ6MTA7c3Ryb2tlLWRhc2hhcnJheTpub25lO3N0cm9rZS1vcGFjaXR5OjEiIGQ9Im0gMjI5MCwxMjU1NCB2IDI5MyIvPiYjeGE7ICAgICAgICA8cGF0aCBpZD0icGF0aDc1OCIgc3R5bGU9ImZpbGw6bm9uZTtzdHJva2U6IzAwMDAwMDtzdHJva2Utd2lkdGg6MTI7c3Ryb2tlLWxpbmVjYXA6cm91bmQ7c3Ryb2tlLWxpbmVqb2luOnJvdW5kO3N0cm9rZS1taXRlcmxpbWl0OjEwO3N0cm9rZS1kYXNoYXJyYXk6bm9uZTtzdHJva2Utb3BhY2l0eToxIiBkPSJtIDMyMzUsMTI1NTQgdiAyOTMiLz4mI3hhOyAgICAgICAgPHBhdGggaWQ9InBhdGg3NjAiIHN0eWxlPSJmaWxsOm5vbmU7c3Ryb2tlOiMwMDAwMDA7c3Ryb2tlLXdpZHRoOjEyO3N0cm9rZS1saW5lY2FwOnJvdW5kO3N0cm9rZS1saW5lam9pbjpyb3VuZDtzdHJva2UtbWl0ZXJsaW1pdDoxMDtzdHJva2UtZGFzaGFycmF5Om5vbmU7c3Ryb2tlLW9wYWNpdHk6MSIgZD0ibSAyNDU1LDEyNzQ4IGggNjE0Ii8+JiN4YTsgICAgICAgIDxnIGlkPSJnNzYyIj4mI3hhOyAgICAgICAgICA8cGF0aCBpZD0icGF0aDc2NCIgc3R5bGU9ImZpbGw6IzAwMDAwMDtmaWxsLW9wYWNpdHk6MTtmaWxsLXJ1bGU6bm9uemVybztzdHJva2U6IzAwMDAwMDtzdHJva2Utd2lkdGg6MTIuNTtzdHJva2UtbGluZWNhcDpyb3VuZDtzdHJva2UtbGluZWpvaW46bWl0ZXI7c3Ryb2tlLW1pdGVybGltaXQ6MTA7c3Ryb2tlLWRhc2hhcnJheTpub25lO3N0cm9rZS1vcGFjaXR5OjEiIGQ9Im0gMjQ1NSwxMjc3NSB2IC01NSBsIC0xNjUsMjggeiIvPiYjeGE7ICAgICAgICA8L2c+JiN4YTsgICAgICAgIDxnIGlkPSJnNzY2Ij4mI3hhOyAgICAgICAgICA8cGF0aCBpZD0icGF0aDc2OCIgc3R5bGU9ImZpbGw6IzAwMDAwMDtmaWxsLW9wYWNpdHk6MTtmaWxsLXJ1bGU6bm9uemVybztzdHJva2U6IzAwMDAwMDtzdHJva2Utd2lkdGg6MTIuNTtzdHJva2UtbGluZWNhcDpyb3VuZDtzdHJva2UtbGluZWpvaW46bWl0ZXI7c3Ryb2tlLW1pdGVybGltaXQ6MTA7c3Ryb2tlLWRhc2hhcnJheTpub25lO3N0cm9rZS1vcGFjaXR5OjEiIGQ9Im0gMzA2OSwxMjc3NSB2IC01NSBsIDE2NiwyOCB6Ii8+JiN4YTsgICAgICAgIDwvZz4mI3hhOyAgICAgICAgPHRleHQgaWQ9InRleHQ3NzIiIHN0eWxlPSJmb250LXZhcmlhbnQ6bm9ybWFsO2ZvbnQtd2VpZ2h0Om5vcm1hbDtmb250LXNpemU6MjI3LjQyM3B4O2ZvbnQtZmFtaWx5OlZlcmRhbmE7LWlua3NjYXBlLWZvbnQtc3BlY2lmaWNhdGlvbjpWZXJkYW5hO3dyaXRpbmctbW9kZTpsci10YjtmaWxsOiMwMDAwMDA7ZmlsbC1vcGFjaXR5OjE7ZmlsbC1ydWxlOm5vbnplcm87c3Ryb2tlOm5vbmUiIHRyYW5zZm9ybT0ibWF0cml4KDEsMCwwLC0xLDI2MTYsMTI4MTcpIiB4bWw6c3BhY2U9InByZXNlcnZlIj48dHNwYW4gaWQ9InRzcGFuNzcwIiB5PSIwIiB4PSIwIDE0NC42NDEwMiI+MjA8L3RzcGFuPjwvdGV4dD4mI3hhOyAgICAgICAgPHBhdGggaWQ9InBhdGg3NzQiIHN0eWxlPSJmaWxsOm5vbmU7c3Ryb2tlOiMwMDAwMDA7c3Ryb2tlLXdpZHRoOjEyO3N0cm9rZS1saW5lY2FwOnJvdW5kO3N0cm9rZS1saW5lam9pbjpyb3VuZDtzdHJva2UtbWl0ZXJsaW1pdDoxMDtzdHJva2UtZGFzaGFycmF5Om5vbmU7c3Ryb2tlLW9wYWNpdHk6MSIgZD0iTSAzNzMyLDcwMjAgMzQyNiw2NTQyIi8+JiN4YTsgICAgICAgIDx0ZXh0IGlkPSJ0ZXh0Nzc4IiBzdHlsZT0iZm9udC12YXJpYW50Om5vcm1hbDtmb250LXdlaWdodDpub3JtYWw7Zm9udC1zaXplOjIyNy40MjRweDtmb250LWZhbWlseTpWZXJkYW5hOy1pbmtzY2FwZS1mb250LXNwZWNpZmljYXRpb246VmVyZGFuYTt3cml0aW5nLW1vZGU6bHItdGI7ZmlsbDojMDAwMDAwO2ZpbGwtb3BhY2l0eToxO2ZpbGwtcnVsZTpub256ZXJvO3N0cm9rZTpub25lIiB0cmFuc2Zvcm09Im1hdHJpeCgwLjUzODU2LDAuODQyNTksMC44NDI1OSwtMC41Mzg1NiwzNDgzLDY3NTQpIiB4bWw6c3BhY2U9InByZXNlcnZlIj48dHNwYW4gaWQ9InRzcGFuNzc2IiB5PSIwIiB4PSIwIDE1OC4wNTkzNiI+UjQ8L3RzcGFuPjwvdGV4dD4mI3hhOyAgICAgICAgPHBhdGggaWQ9InBhdGg3ODAiIHN0eWxlPSJmaWxsOm5vbmU7c3Ryb2tlOiMwMDAwMDA7c3Ryb2tlLXdpZHRoOjEyO3N0cm9rZS1saW5lY2FwOnJvdW5kO3N0cm9rZS1saW5lam9pbjpyb3VuZDtzdHJva2UtbWl0ZXJsaW1pdDoxMDtzdHJva2UtZGFzaGFycmF5Om5vbmU7c3Ryb2tlLW9wYWNpdHk6MSIgZD0ibSAzMjM1LDYyNDQgMTAyLDE1OSIvPiYjeGE7ICAgICAgICA8ZyBpZD0iZzc4MiI+JiN4YTsgICAgICAgICAgPHBhdGggaWQ9InBhdGg3ODQiIHN0eWxlPSJmaWxsOiMwMDAwMDA7ZmlsbC1vcGFjaXR5OjE7ZmlsbC1ydWxlOm5vbnplcm87c3Ryb2tlOiMwMDAwMDA7c3Ryb2tlLXdpZHRoOjEyLjU7c3Ryb2tlLWxpbmVjYXA6cm91bmQ7c3Ryb2tlLWxpbmVqb2luOm1pdGVyO3N0cm9rZS1taXRlcmxpbWl0OjEwO3N0cm9rZS1kYXNoYXJyYXk6bm9uZTtzdHJva2Utb3BhY2l0eToxIiBkPSJtIDM0MDIsNjU1NyA0NywtMzAgLTExMiwtMTI0IHoiLz4mI3hhOyAgICAgICAgPC9nPiYjeGE7ICAgICAgPC9nPiYjeGE7ICAgIDwvZz4mI3hhOyAgPC9nPiYjeGE7PC9zdmc+;" parent="6ik4fCtfQ_uQef5bXLx3-1" vertex="1">
          <mxGeometry x="42.9133" y="39" width="748.52" height="1060" as="geometry" />
        </mxCell>
        <mxCell id="6ik4fCtfQ_uQef5bXLx3-3" value="" style="rounded=0;whiteSpace=wrap;html=1;fillColor=none;strokeWidth=1;" parent="6ik4fCtfQ_uQef5bXLx3-1" vertex="1">
          <mxGeometry x="39.37" y="39.37" width="748.03" height="1090.63" as="geometry" />
        </mxCell>
        <mxCell id="6ik4fCtfQ_uQef5bXLx3-4" value="" style="endArrow=none;html=1;rounded=0;curved=0;endSize=6;targetPerimeterSpacing=0;jumpSize=6;strokeColor=default;exitX=0.5;exitY=0.018;exitDx=0;exitDy=0;exitPerimeter=0;strokeWidth=1;" parent="6ik4fCtfQ_uQef5bXLx3-1" source="6ik4fCtfQ_uQef5bXLx3-3" edge="1">
          <mxGeometry width="50" height="50" relative="1" as="geometry">
            <mxPoint x="413.37" y="32.68" as="sourcePoint" />
            <mxPoint x="413.37" y="19.68" as="targetPoint" />
          </mxGeometry>
        </mxCell>
        <mxCell id="6ik4fCtfQ_uQef5bXLx3-5" value="" style="endArrow=none;html=1;rounded=0;entryX=0.026;entryY=0.5;entryDx=0;entryDy=0;entryPerimeter=0;strokeWidth=1;" parent="6ik4fCtfQ_uQef5bXLx3-1" target="6ik4fCtfQ_uQef5bXLx3-3" edge="1">
          <mxGeometry width="50" height="50" relative="1" as="geometry">
            <mxPoint x="19.69" y="584.67" as="sourcePoint" />
            <mxPoint x="27.69" y="584.67" as="targetPoint" />
          </mxGeometry>
        </mxCell>
        <mxCell id="6ik4fCtfQ_uQef5bXLx3-6" value="" style="endArrow=none;html=1;rounded=0;exitX=0.974;exitY=0.5;exitDx=0;exitDy=0;exitPerimeter=0;strokeWidth=1;" parent="6ik4fCtfQ_uQef5bXLx3-1" source="6ik4fCtfQ_uQef5bXLx3-3" edge="1">
          <mxGeometry width="50" height="50" relative="1" as="geometry">
            <mxPoint x="797" y="584.68" as="sourcePoint" />
            <mxPoint x="807" y="584.68" as="targetPoint" />
          </mxGeometry>
        </mxCell>
        <mxCell id="6ik4fCtfQ_uQef5bXLx3-7" value="" style="endArrow=none;html=1;rounded=0;entryX=1;entryY=0.75;entryDx=0;entryDy=0;exitX=0;exitY=0.75;exitDx=0;exitDy=0;strokeWidth=1;" parent="6ik4fCtfQ_uQef5bXLx3-1" edge="1">
          <mxGeometry width="50" height="50" relative="1" as="geometry">
            <mxPoint x="39.3" y="944.8825000000002" as="sourcePoint" />
            <mxPoint x="787.49" y="944.8825000000002" as="targetPoint" />
          </mxGeometry>
        </mxCell>
        <mxCell id="6ik4fCtfQ_uQef5bXLx3-8" value="" style="endArrow=none;html=1;rounded=0;entryX=1;entryY=0.75;entryDx=0;entryDy=0;exitX=0;exitY=0.75;exitDx=0;exitDy=0;strokeWidth=1;" parent="6ik4fCtfQ_uQef5bXLx3-1" edge="1">
          <mxGeometry width="50" height="50" relative="1" as="geometry">
            <mxPoint x="39.3" y="984.2510000000001" as="sourcePoint" />
            <mxPoint x="787.49" y="984.2510000000001" as="targetPoint" />
          </mxGeometry>
        </mxCell>
        <mxCell id="6ik4fCtfQ_uQef5bXLx3-9" value="" style="endArrow=none;html=1;rounded=0;strokeWidth=1;" parent="6ik4fCtfQ_uQef5bXLx3-1" edge="1">
          <mxGeometry width="50" height="50" relative="1" as="geometry">
            <mxPoint x="547.24" y="1130" as="sourcePoint" />
            <mxPoint x="547.24" y="944.9" as="targetPoint" />
          </mxGeometry>
        </mxCell>
        <mxCell id="6ik4fCtfQ_uQef5bXLx3-10" value="" style="endArrow=none;html=1;rounded=0;strokeWidth=1;" parent="6ik4fCtfQ_uQef5bXLx3-1" edge="1">
          <mxGeometry width="50" height="50" relative="1" as="geometry">
            <mxPoint x="307.08849999999995" y="1129.9985" as="sourcePoint" />
            <mxPoint x="307.08849999999995" y="944.9" as="targetPoint" />
          </mxGeometry>
        </mxCell>
        <mxCell id="6ik4fCtfQ_uQef5bXLx3-11" value="" style="endArrow=none;html=1;rounded=0;entryX=1;entryY=0.75;entryDx=0;entryDy=0;exitX=0;exitY=0.75;exitDx=0;exitDy=0;strokeWidth=1;" parent="6ik4fCtfQ_uQef5bXLx3-1" edge="1">
          <mxGeometry width="50" height="50" relative="1" as="geometry">
            <mxPoint x="307.1" y="1023.6195" as="sourcePoint" />
            <mxPoint x="787.5" y="1023.6195" as="targetPoint" />
          </mxGeometry>
        </mxCell>
        <mxCell id="6ik4fCtfQ_uQef5bXLx3-12" value="" style="endArrow=none;html=1;rounded=0;entryX=1;entryY=0.75;entryDx=0;entryDy=0;exitX=0;exitY=0.75;exitDx=0;exitDy=0;strokeWidth=1;" parent="6ik4fCtfQ_uQef5bXLx3-1" edge="1">
          <mxGeometry width="50" height="50" relative="1" as="geometry">
            <mxPoint x="547.2" y="1090.548" as="sourcePoint" />
            <mxPoint x="787.5" y="1090.548" as="targetPoint" />
          </mxGeometry>
        </mxCell>
        <mxCell id="6ik4fCtfQ_uQef5bXLx3-13" value="" style="endArrow=none;html=1;rounded=0;strokeWidth=1;" parent="6ik4fCtfQ_uQef5bXLx3-1" edge="1">
          <mxGeometry width="50" height="50" relative="1" as="geometry">
            <mxPoint x="586.6084999999999" y="1129.9985" as="sourcePoint" />
            <mxPoint x="586.6084999999999" y="1090.5" as="targetPoint" />
          </mxGeometry>
        </mxCell>
        <mxCell id="6ik4fCtfQ_uQef5bXLx3-14" value="" style="endArrow=none;html=1;rounded=0;strokeWidth=1;" parent="6ik4fCtfQ_uQef5bXLx3-1" edge="1">
          <mxGeometry width="50" height="50" relative="1" as="geometry">
            <mxPoint x="728.347" y="1129.9969999999998" as="sourcePoint" />
            <mxPoint x="728.347" y="1090.4985" as="targetPoint" />
          </mxGeometry>
        </mxCell>
        <mxCell id="6ik4fCtfQ_uQef5bXLx3-15" value="" style="endArrow=none;html=1;rounded=0;strokeWidth=1;" parent="6ik4fCtfQ_uQef5bXLx3-1" edge="1">
          <mxGeometry width="50" height="50" relative="1" as="geometry">
            <mxPoint x="173.22699999999986" y="984.3" as="sourcePoint" />
            <mxPoint x="173.22699999999986" y="944.8784999999999" as="targetPoint" />
          </mxGeometry>
        </mxCell>
        <mxCell id="6ik4fCtfQ_uQef5bXLx3-16" value="&lt;font style=&quot;font-size: 10px;&quot;&gt;Unit&lt;/font&gt;" style="text;html=1;align=left;verticalAlign=middle;whiteSpace=wrap;rounded=0;fillColor=none;fontStyle=0;fontFamily=Verdana;fontSize=10;" parent="6ik4fCtfQ_uQef5bXLx3-1" vertex="1">
          <mxGeometry x="41.339999999999996" y="944.88" width="25.59" height="12.29" as="geometry" />
        </mxCell>
        <mxCell id="6ik4fCtfQ_uQef5bXLx3-17" value="&lt;font style=&quot;font-size: 10px;&quot;&gt;Scale&lt;/font&gt;" style="text;html=1;align=left;verticalAlign=middle;whiteSpace=wrap;rounded=0;fontStyle=0;fontFamily=Verdana;fontSize=10;" parent="6ik4fCtfQ_uQef5bXLx3-1" vertex="1">
          <mxGeometry x="175.19849999999997" y="944.8784999999999" width="25.59" height="12.29" as="geometry" />
        </mxCell>
        <mxCell id="6ik4fCtfQ_uQef5bXLx3-18" value="&lt;font style=&quot;font-size: 10px;&quot;&gt;&lt;span style=&quot;font-size: 10px;&quot;&gt;General tolerances&lt;/span&gt;&lt;/font&gt;" style="text;html=1;align=left;verticalAlign=middle;whiteSpace=wrap;rounded=0;fontStyle=0;fontFamily=Verdana;fontSize=10;" parent="6ik4fCtfQ_uQef5bXLx3-1" vertex="1">
          <mxGeometry x="309.06" y="944.88" width="124.01" height="12.29" as="geometry" />
        </mxCell>
        <mxCell id="6ik4fCtfQ_uQef5bXLx3-19" value="&lt;font style=&quot;font-size: 10px;&quot;&gt;Material&lt;/font&gt;" style="text;html=1;align=left;verticalAlign=middle;whiteSpace=wrap;rounded=0;fontStyle=0;fontFamily=Verdana;fontSize=10;" parent="6ik4fCtfQ_uQef5bXLx3-1" vertex="1">
          <mxGeometry x="549.22" y="944.88" width="47.24" height="12.29" as="geometry" />
        </mxCell>
        <mxCell id="6ik4fCtfQ_uQef5bXLx3-20" value="&lt;font style=&quot;font-size: 10px;&quot;&gt;Created by&lt;/font&gt;" style="text;html=1;align=left;verticalAlign=middle;whiteSpace=wrap;rounded=0;fontStyle=0;fontFamily=Verdana;fontSize=10;" parent="6ik4fCtfQ_uQef5bXLx3-1" vertex="1">
          <mxGeometry x="549.22" y="984.25" width="74.79" height="12.29" as="geometry" />
        </mxCell>
        <mxCell id="6ik4fCtfQ_uQef5bXLx3-21" value="&lt;font style=&quot;font-size: 10px;&quot;&gt;Project title&lt;/font&gt;" style="text;html=1;align=left;verticalAlign=middle;whiteSpace=wrap;rounded=0;fontStyle=0;fontFamily=Verdana;fontSize=10;" parent="6ik4fCtfQ_uQef5bXLx3-1" vertex="1">
          <mxGeometry x="309.06" y="984.25" width="80.7" height="12.29" as="geometry" />
        </mxCell>
        <mxCell id="6ik4fCtfQ_uQef5bXLx3-22" value="&lt;font style=&quot;font-size: 10px;&quot;&gt;Drawing title&lt;/font&gt;" style="text;html=1;align=left;verticalAlign=middle;whiteSpace=wrap;rounded=0;fontStyle=0;fontFamily=Verdana;fontSize=10;" parent="6ik4fCtfQ_uQef5bXLx3-1" vertex="1">
          <mxGeometry x="309.06" y="1023.62" width="82.67" height="12.29" as="geometry" />
        </mxCell>
        <mxCell id="6ik4fCtfQ_uQef5bXLx3-23" value="&lt;font style=&quot;font-size: 10px;&quot;&gt;Drawing number&lt;/font&gt;" style="text;html=1;align=left;verticalAlign=middle;whiteSpace=wrap;rounded=0;fontStyle=0;fontFamily=Verdana;fontSize=10;" parent="6ik4fCtfQ_uQef5bXLx3-1" vertex="1">
          <mxGeometry x="549.22" y="1023.62" width="98.42" height="12.29" as="geometry" />
        </mxCell>
        <mxCell id="6ik4fCtfQ_uQef5bXLx3-24" value="&lt;font style=&quot;font-size: 10px;&quot;&gt;Notes (Scale 1:1)&lt;/font&gt;" style="text;html=1;align=left;verticalAlign=middle;whiteSpace=wrap;rounded=0;fontStyle=0;fontFamily=Verdana;fontSize=10;" parent="6ik4fCtfQ_uQef5bXLx3-1" vertex="1">
          <mxGeometry x="41.34" y="984.25" width="106.3" height="12.29" as="geometry" />
        </mxCell>
        <mxCell id="6ik4fCtfQ_uQef5bXLx3-25" value="&lt;font style=&quot;font-size: 10px;&quot;&gt;Rev.&lt;/font&gt;" style="text;html=1;align=left;verticalAlign=middle;whiteSpace=wrap;rounded=0;fontStyle=0;fontFamily=Verdana;fontSize=10;" parent="6ik4fCtfQ_uQef5bXLx3-1" vertex="1">
          <mxGeometry x="549.22" y="1090.55" width="41.33" height="12.29" as="geometry" />
        </mxCell>
        <mxCell id="6ik4fCtfQ_uQef5bXLx3-26" value="&lt;font style=&quot;font-size: 10px;&quot;&gt;Date of issue&lt;/font&gt;" style="text;html=1;align=left;verticalAlign=middle;whiteSpace=wrap;rounded=0;fontStyle=0;fontFamily=Verdana;fontSize=10;" parent="6ik4fCtfQ_uQef5bXLx3-1" vertex="1">
          <mxGeometry x="588" y="1090.55" width="83.26" height="12.29" as="geometry" />
        </mxCell>
        <mxCell id="6ik4fCtfQ_uQef5bXLx3-27" value="&lt;font style=&quot;font-size: 10px;&quot;&gt;Sheet&lt;/font&gt;" style="text;html=1;align=left;verticalAlign=middle;whiteSpace=wrap;rounded=0;fontStyle=0;fontFamily=Verdana;fontSize=10;" parent="6ik4fCtfQ_uQef5bXLx3-1" vertex="1">
          <mxGeometry x="729.73" y="1090.55" width="61.61" height="12.29" as="geometry" />
        </mxCell>
        <mxCell id="6ik4fCtfQ_uQef5bXLx3-28" value="&lt;font style=&quot;font-size: 20px; font-weight: normal;&quot;&gt;millimeters&lt;/font&gt;" style="text;html=1;align=left;verticalAlign=middle;whiteSpace=wrap;rounded=0;fillColor=none;fontStyle=1;fontFamily=Verdana;" parent="6ik4fCtfQ_uQef5bXLx3-1" vertex="1">
          <mxGeometry x="41.34" y="964.5699999999999" width="49.21" height="12.29" as="geometry" />
        </mxCell>
        <mxCell id="6ik4fCtfQ_uQef5bXLx3-29" value="&lt;font style=&quot;font-size: 20px; font-weight: normal;&quot;&gt;4:1&lt;/font&gt;" style="text;html=1;align=left;verticalAlign=middle;whiteSpace=wrap;rounded=0;fillColor=none;fontStyle=1;fontFamily=Verdana;" parent="6ik4fCtfQ_uQef5bXLx3-1" vertex="1">
          <mxGeometry x="175.1985" y="964.5684999999999" width="49.21" height="12.29" as="geometry" />
        </mxCell>
        <mxCell id="6ik4fCtfQ_uQef5bXLx3-30" value="&lt;font style=&quot;font-weight: normal; font-size: 20px;&quot;&gt;ISO 2768-m&lt;/font&gt;" style="text;html=1;align=left;verticalAlign=middle;whiteSpace=wrap;rounded=0;fillColor=none;fontStyle=1;fontFamily=Verdana;" parent="6ik4fCtfQ_uQef5bXLx3-1" vertex="1">
          <mxGeometry x="311.03" y="964.57" width="226.37" height="12.29" as="geometry" />
        </mxCell>
        <mxCell id="6ik4fCtfQ_uQef5bXLx3-31" value="&lt;font style=&quot;font-size: 20px; font-weight: normal;&quot;&gt;Train Network&lt;/font&gt;" style="text;html=1;align=left;verticalAlign=middle;whiteSpace=wrap;rounded=0;fillColor=none;fontStyle=1;fontFamily=Verdana;" parent="6ik4fCtfQ_uQef5bXLx3-1" vertex="1">
          <mxGeometry x="311.03" y="1003.94" width="187" height="12.29" as="geometry" />
        </mxCell>
        <mxCell id="6ik4fCtfQ_uQef5bXLx3-32" value="&lt;font style=&quot;font-size: 20px; font-weight: normal;&quot;&gt;Polylactic Acid (PLA)&lt;/font&gt;" style="text;html=1;align=left;verticalAlign=middle;whiteSpace=wrap;rounded=0;fillColor=none;fontStyle=1;fontFamily=Verdana;" parent="6ik4fCtfQ_uQef5bXLx3-1" vertex="1">
          <mxGeometry x="551.18" y="964.57" width="226.38" height="12.29" as="geometry" />
        </mxCell>
        <mxCell id="6ik4fCtfQ_uQef5bXLx3-33" value="&lt;font style=&quot;font-size: 20px; font-weight: normal;&quot;&gt;teoelectric&lt;/font&gt;" style="text;html=1;align=left;verticalAlign=middle;whiteSpace=wrap;rounded=0;fillColor=none;fontStyle=1;fontFamily=Verdana;" parent="6ik4fCtfQ_uQef5bXLx3-1" vertex="1">
          <mxGeometry x="551.17" y="1003.94" width="145.67" height="12.29" as="geometry" />
        </mxCell>
        <mxCell id="6ik4fCtfQ_uQef5bXLx3-34" value="&lt;span style=&quot;font-size: 20px; font-weight: 400;&quot;&gt;41&lt;/span&gt;" style="text;html=1;align=center;verticalAlign=middle;whiteSpace=wrap;rounded=0;fillColor=none;fontStyle=1;fontFamily=Verdana;" parent="6ik4fCtfQ_uQef5bXLx3-1" vertex="1">
          <mxGeometry x="557.0899999999999" y="1053.15" width="220.47" height="12.29" as="geometry" />
        </mxCell>
        <mxCell id="6ik4fCtfQ_uQef5bXLx3-35" value="&lt;font style=&quot;font-size: 20px; font-weight: normal;&quot;&gt;Buffer Dimensions&lt;/font&gt;" style="text;html=1;align=left;verticalAlign=middle;whiteSpace=wrap;rounded=0;fillColor=none;fontStyle=1;fontFamily=Verdana;" parent="6ik4fCtfQ_uQef5bXLx3-1" vertex="1">
          <mxGeometry x="311.03" y="1068.9" width="244.09" height="12.29" as="geometry" />
        </mxCell>
        <mxCell id="6ik4fCtfQ_uQef5bXLx3-36" value="&lt;font style=&quot;font-size: 20px; font-weight: normal;&quot;&gt;1/1&lt;/font&gt;" style="text;html=1;align=left;verticalAlign=middle;whiteSpace=wrap;rounded=0;fillColor=none;fontStyle=1;fontFamily=Verdana;" parent="6ik4fCtfQ_uQef5bXLx3-1" vertex="1">
          <mxGeometry x="735.934" y="1106.2939999999994" width="49.21" height="12.29" as="geometry" />
        </mxCell>
        <mxCell id="6ik4fCtfQ_uQef5bXLx3-37" value="&lt;font style=&quot;font-size: 20px; font-weight: normal;&quot;&gt;17/08/2025&lt;/font&gt;" style="text;html=1;align=center;verticalAlign=middle;whiteSpace=wrap;rounded=0;fillColor=none;fontStyle=1;fontFamily=Verdana;" parent="6ik4fCtfQ_uQef5bXLx3-1" vertex="1">
          <mxGeometry x="647.64" y="1106.2900000000002" width="19.69" height="12.29" as="geometry" />
        </mxCell>
        <mxCell id="6ik4fCtfQ_uQef5bXLx3-38" value="&lt;font style=&quot;font-size: 20px; font-weight: normal;&quot;&gt;A&lt;/font&gt;" style="text;html=1;align=center;verticalAlign=middle;whiteSpace=wrap;rounded=0;fillColor=none;fontStyle=1;fontFamily=Verdana;" parent="6ik4fCtfQ_uQef5bXLx3-1" vertex="1">
          <mxGeometry x="557.0884999999998" y="1106.2985" width="19.69" height="12.29" as="geometry" />
        </mxCell>
        <mxCell id="6ik4fCtfQ_uQef5bXLx3-39" value="&lt;span style=&quot;font-size: 20px; font-weight: 400;&quot;&gt;Buffer compressed state&lt;/span&gt;" style="text;html=1;align=left;verticalAlign=middle;whiteSpace=wrap;rounded=0;fillColor=none;fontStyle=1;fontFamily=Verdana;" parent="6ik4fCtfQ_uQef5bXLx3-1" vertex="1">
          <mxGeometry x="41.33" y="1003.94" width="273.63" height="12.29" as="geometry" />
        </mxCell>
        <mxCell id="6ik4fCtfQ_uQef5bXLx3-40" value="&lt;span style=&quot;font-size: 20px; font-weight: 400;&quot;&gt;length: 21&lt;/span&gt;" style="text;html=1;align=left;verticalAlign=middle;whiteSpace=wrap;rounded=0;fillColor=none;fontStyle=1;fontFamily=Verdana;" parent="6ik4fCtfQ_uQef5bXLx3-1" vertex="1">
          <mxGeometry x="41.33" y="1027.56" width="259.85" height="12.29" as="geometry" />
        </mxCell>
      </root>
    </mxGraphModel>
  </diagram>
</mxfile>
